<svg width="81" height="90" viewBox="0 0 81 90" fill="none" xmlns="http://www.w3.org/2000/svg">
    <g opacity="0.5">
        <path d="M19.5321 13.4344C19.144 13.4344 18.756 13.1735 18.6266 12.9126C18.3679 12.3909 18.4973 11.7387 19.0147 11.3474L23.2833 8.86914C23.8007 8.60827 24.4475 8.73871 24.8355 9.26045C25.0943 9.78219 24.9649 10.4344 24.4475 10.8257L20.1788 13.3039C19.9201 13.4344 19.6614 13.4344 19.5321 13.4344Z" fill="#FFFFFF"/>
        <path d="M1.16417 44.3476C0.517411 44.3476 0 43.8259 0 43.1737V30.1302C0 25.3042 2.4577 20.8694 6.59699 18.5215L10.6069 16.1737C11.1243 15.9129 11.7711 16.0433 12.1592 16.565C12.4179 17.0868 12.2885 17.7389 11.7711 18.1302L7.76116 20.4781C4.39799 22.4346 2.199 26.2172 2.32835 30.1302V43.1737C2.199 43.8259 1.81094 44.3476 1.16417 44.3476Z" fill="#FFFFFF"/>
        <path d="M40.0993 89.8692C37.771 89.8692 35.4426 89.2171 33.5024 88.0431L6.72634 72.7823C2.58705 70.4344 0.129353 65.9997 0 61.1736V53.7388C0 53.0866 0.517411 52.5649 1.03482 52.5649C1.68159 52.5649 2.06964 53.0866 2.06964 53.6084V61.0431C2.06964 64.9562 4.26864 68.7388 7.63181 70.6953L34.2785 86.0866C35.9601 86.9997 37.9004 87.5214 39.7113 87.5214C41.6516 87.5214 43.5919 86.9997 45.2735 85.9562L55.8804 79.6953C56.3978 79.4344 57.0446 79.5649 57.4326 80.0866C57.6913 80.6084 57.562 81.2605 57.0446 81.6518L46.4376 87.9127C44.6267 89.2171 42.2983 89.8692 40.0993 89.8692Z" fill="#FFFFFF"/>
        <path d="M73.9898 46.5653C73.343 46.5653 72.9549 46.0436 72.9549 45.5218V30.0001C72.9549 27.6523 71.6614 25.5653 69.7211 24.3914L64.0296 21.1305C63.5122 20.8697 63.3828 20.0871 63.6415 19.5653C63.9002 19.0436 64.6764 18.9131 65.1938 19.174L70.8853 22.4349C73.6017 24.0001 75.2833 26.8697 75.2833 30.0001V45.5218C75.0246 46.174 74.6365 46.5653 73.9898 46.5653Z" fill="#FFFFFF"/>
        <path d="M64.8059 77.2173C64.4178 77.2173 64.1591 77.0869 63.9004 76.6956L61.184 72.913C61.0547 72.6521 60.9253 72.3912 61.0547 71.9999C61.184 71.7391 61.3134 71.4782 61.5721 71.2173L69.7213 66.3912C71.6616 65.2173 72.9551 63.1304 72.9551 60.7825V57.2608C72.9551 56.6086 73.4725 56.0869 73.9899 56.0869C74.6367 56.0869 75.0248 56.6086 75.0248 57.1304V60.6521C75.0248 63.7825 73.3432 66.6521 70.7561 68.2173L63.6417 72.3912L65.0646 74.3478L72.0497 70.3043C75.4128 68.3478 77.6118 64.5652 77.4825 60.6521V29.9999C77.4825 26.0869 75.2835 22.3043 71.9203 20.3478C71.4029 20.0869 71.2735 19.3043 71.5322 18.7825C71.7909 18.2608 72.5671 18.1304 73.0845 18.3912C77.2238 20.7391 79.6815 25.1738 79.8108 29.9999L79.9402 60.913C79.9402 65.6086 77.4825 70.1739 73.3432 72.5217L65.4527 77.0869C65.194 77.2173 64.9352 77.2173 64.8059 77.2173Z" fill="#FFFFFF"/>
        <path d="M39.97 85.1737C38.4177 85.1737 36.9949 84.7824 35.7013 83.9998L28.5869 79.9563C28.0695 79.6954 27.9402 78.9128 28.1989 78.3911C28.4576 77.8693 29.2337 77.7389 29.7511 77.9998L36.8655 82.0432C37.9003 82.565 38.9352 82.9563 40.0993 82.9563C41.2635 82.9563 42.2983 82.6954 43.3331 82.0432L58.0794 73.4346C58.5968 73.1737 59.2435 73.3041 59.6316 73.8259C59.8903 74.3476 59.7609 74.9998 59.2435 75.3911L44.4973 83.9998C43.0744 84.7824 41.5222 85.1737 39.97 85.1737Z" fill="#FFFFFF"/>
        <path d="M19.1445 74.3478C19.0152 74.3478 18.7565 74.3478 18.6271 74.2173L9.05501 68.7391C6.3386 67.1739 4.65701 64.3043 4.65701 61.1739V39.6521C4.65701 38.9999 5.17442 38.4782 5.69184 38.4782C6.3386 38.4782 6.85601 38.9999 6.85601 39.5217L6.98536 61.0434C6.98536 63.3913 8.27889 65.4782 10.2192 66.6521L19.7913 72.1304C20.3087 72.3913 20.438 73.1739 20.1793 73.6956C19.9206 74.0869 19.5326 74.3478 19.1445 74.3478Z" fill="#FFFFFF"/>
        <path d="M5.69184 31.3043C5.04507 31.3043 4.65701 30.7826 4.65701 30.2609C4.65701 27.1304 6.3386 24.2609 8.92565 22.6956L21.0848 15.5217C21.6022 15.2609 22.249 15.3913 22.637 15.913C22.8958 16.4348 22.7664 17.0869 22.249 17.4783L10.0898 24.6522C8.14954 25.8261 6.85601 27.913 6.85601 30.2609C6.85601 30.7826 6.3386 31.3043 5.69184 31.3043Z" fill="#FFFFFF"/>
        <path d="M56.9149 16.8259C56.7856 16.8259 56.5269 16.8259 56.3975 16.6954L42.9448 8.99979C41.0046 7.82588 38.4175 7.82588 36.4772 8.99979L28.328 13.8259C27.8106 14.0867 27.1638 13.9563 26.7758 13.4346C26.517 12.9128 26.6464 12.2607 27.1638 11.8694L35.313 7.04327C37.9001 5.47805 41.2633 5.47805 43.9797 7.04327L56.5269 14.2172L57.9498 12.2607L45.2732 4.95631C41.91 2.99979 37.512 2.99979 34.1489 4.95631L28.9747 7.95631C28.4573 8.21718 27.8106 8.08675 27.4225 7.56501C27.1638 7.04327 27.2932 6.3911 27.8106 5.99979L32.9847 2.99979C36.9946 0.651966 42.2981 0.651966 46.308 2.99979L60.1488 10.9563C60.4075 11.0867 60.6662 11.3476 60.6662 11.7389C60.7955 11.9998 60.6662 12.3911 60.5368 12.652L57.8204 16.4346C57.5617 16.6954 57.303 16.8259 56.9149 16.8259Z" fill="#FFFFFF"/>
        <path d="M60.5368 31.9563L61.8303 32.7389C62.4771 33.1302 62.8651 32.8694 62.8651 32.3476V31.0433C62.8651 30.2607 62.9945 30.1302 62.2184 29.6085L60.9248 28.8259C60.1487 28.4346 59.89 28.6955 59.89 29.2172V30.5215C60.0194 31.4346 59.89 31.4346 60.5368 31.9563Z" fill="#FFF8F1"/>
        <path d="M68.6861 33.5211L65.1936 31.3037C64.5468 30.9124 64.1588 31.1733 64.1588 31.695V32.9994C64.1588 33.782 64.0294 33.782 64.8055 34.1733L66.2284 34.9559C66.8752 35.3472 67.2632 35.9994 67.2632 36.782V39.2602C67.2632 40.4341 67.2632 40.695 67.91 41.0863C67.91 41.0863 68.6861 41.608 68.9448 41.608C69.3329 41.7385 69.9796 41.608 69.9796 41.0863V35.2167C69.8503 34.4341 69.5916 33.9124 68.6861 33.5211Z" fill="#FFF8F1"/>
        <path d="M62.4771 46.9561C62.4771 46.9561 63.1239 47.3474 63.6413 47.6083C63.7707 47.7387 64.0294 47.7387 64.1587 47.7387C64.4174 47.7387 64.6761 47.4778 64.6761 47.217V39.2605C64.6761 38.3474 64.4174 37.9561 63.6413 37.4344L54.8453 32.3474C54.5866 32.217 54.1986 32.0865 53.9399 32.0865C53.6812 32.0865 53.2931 32.217 52.905 32.3474L45.2732 37.3039C44.4971 37.6952 44.3678 37.8257 44.3678 38.3474C44.3678 38.3474 44.3678 39.13 44.3678 39.6518C44.3678 39.7822 44.3678 39.9126 44.4971 40.0431C44.6265 40.3039 44.8852 40.3039 45.1439 40.1735L53.1637 35.4779C53.4224 35.3474 53.8105 35.217 54.0692 35.217C54.3279 35.217 54.716 35.3474 54.9747 35.4779L61.0543 38.9996C61.5717 39.3909 61.9597 39.9126 61.9597 40.5648V45.2605C61.9597 46.4344 61.9597 46.6952 62.4771 46.9561Z" fill="#FFF8F1"/>
        <path d="M59.8903 57.2604L48.2486 50.3473C47.9898 50.2169 47.7311 50.0864 47.3431 50.0864C47.0844 50.0864 46.955 50.0864 46.6963 50.2169C46.1789 50.3473 45.2734 51.1299 45.2734 51.1299C45.0147 51.2604 44.8854 51.5212 44.756 51.7821C44.756 52.043 44.8854 52.1734 45.0147 52.3038L56.1391 58.956C56.6565 59.2169 57.0445 59.3473 57.4326 59.3473C57.6913 59.3473 57.8207 59.3473 57.95 59.2169C57.95 59.2169 59.1142 58.6951 59.7609 58.1734C60.0197 57.9125 60.149 57.7821 60.149 57.6517C60.149 57.5212 60.0196 57.3908 59.8903 57.2604Z" fill="#FFF8F1"/>
        <path d="M64.6764 52.5649L54.4575 46.5649C54.1988 46.4344 53.9401 46.304 53.552 46.304C53.2933 46.304 53.164 46.304 52.9053 46.4344C52.3878 46.5649 51.4824 47.217 51.4824 47.3475C51.2237 47.4779 50.965 47.7388 50.965 47.9996C50.965 48.1301 51.0943 48.3909 51.2237 48.5214L60.9251 54.2605C61.4425 54.5214 61.8306 54.6518 62.2187 54.6518C62.4774 54.6518 62.6067 54.6518 62.7361 54.5214C62.7361 54.5214 63.9002 53.9996 64.547 53.4779C64.8057 53.3475 64.9351 53.0866 64.9351 52.9562C64.9351 52.8257 64.8057 52.6953 64.6764 52.5649Z" fill="#FFF8F1"/>
        <path d="M17.9796 32.7384L19.1437 32.0862C19.7905 31.6949 19.6612 31.5644 19.7905 30.7818V29.4775C19.7905 28.9558 19.5318 28.6949 18.7557 29.0862L17.5915 29.7384C16.9447 30.2601 17.0741 30.2601 16.9447 31.1731V32.4775C16.9447 32.7384 17.2035 32.9992 17.9796 32.7384Z" fill="#FFF8F1"/>
        <path d="M15.6514 33.1301V31.8258C15.6514 31.304 15.3927 31.0432 14.6166 31.4345L10.9947 33.5214C10.2186 34.0432 9.9599 34.4345 9.9599 35.478V41.3475C9.9599 41.8693 10.6067 41.9997 10.9947 41.8693C11.2534 41.7388 12.0295 41.3475 12.0295 41.3475C12.547 40.9562 12.6763 40.6954 12.6763 39.5214V39.391V37.0432C12.6763 36.2606 13.0644 35.6084 13.7111 35.2171L15.134 34.4345C15.6514 33.9127 15.5221 33.9127 15.6514 33.1301Z" fill="#FFF8F1"/>
        <path d="M15.0045 39.391V47.3475C15.0045 47.6084 15.2633 47.8692 15.522 47.8692C15.6513 47.8692 15.7807 47.8692 16.0394 47.7388C16.5568 47.4779 17.2035 47.0866 17.2035 47.0866C17.721 46.6953 17.721 46.4344 17.721 45.391V40.6953C17.721 40.0431 18.109 39.391 18.6264 39.1301L24.706 35.6084C24.9647 35.4779 25.3528 35.3475 25.6115 35.3475C25.8702 35.3475 26.2582 35.4779 26.5169 35.6084L34.5368 40.304C34.7955 40.4344 35.0542 40.304 35.1836 40.1736C35.1836 40.0431 35.3129 39.9127 35.3129 39.7823C35.3129 39.2605 35.3129 38.4779 35.3129 38.4779C35.3129 37.9562 35.0542 37.8257 34.4075 37.4344L26.5169 32.6084C26.1289 32.3475 25.8702 32.3475 25.4821 32.3475C25.2234 32.3475 24.9647 32.4779 24.5766 32.6084L15.7807 37.6953C15.2633 37.9562 15.0045 38.4779 15.0045 39.391Z" fill="#FFF8F1"/>
        <path d="M28.7158 47.8689C28.7158 47.608 28.4571 47.3471 28.1984 47.2167C28.1984 47.2167 27.1636 46.5645 26.7755 46.3037C26.5168 46.1732 26.2581 46.1732 26.1288 46.1732C25.8701 46.1732 25.6113 46.3037 25.2233 46.4341L15.0044 52.4341C14.8751 52.5645 14.7457 52.695 14.7457 52.8254C14.7457 52.9558 14.8751 53.0863 15.1338 53.3471C15.7805 53.8689 16.9447 54.3906 16.9447 54.3906C17.0741 54.5211 17.3328 54.5211 17.5915 54.5211C17.9795 54.5211 18.3676 54.3906 18.885 54.1298L28.5865 48.3906C28.5865 48.2602 28.7158 48.1298 28.7158 47.8689Z" fill="#FFF8F1"/>
        <path d="M34.9251 51.7821C34.9251 51.5212 34.7957 51.2604 34.4077 51.1299C34.4077 51.1299 33.3728 50.4777 32.9848 50.2169C32.7261 50.0864 32.4674 50.0864 32.338 50.0864C32.0793 50.0864 31.8206 50.2169 31.4326 50.3473L19.7908 57.2604C19.6615 57.3908 19.5321 57.5212 19.5321 57.6517C19.5321 57.7821 19.6615 57.9125 19.9202 58.1734C20.5669 58.6951 21.7311 59.2169 21.7311 59.2169C21.8605 59.3473 22.1192 59.3473 22.3779 59.3473C22.7659 59.3473 23.154 59.2169 23.6714 58.956L34.7957 52.3038C34.9251 52.1734 35.0544 51.9125 34.9251 51.7821Z" fill="#FFF8F1"/>
        <path d="M54.7158 61.3039L41.3925 53.6082V49.043L53.1636 42.2604C53.681 41.9995 54.3278 41.9995 54.7158 42.2604L57.4323 43.8256C58.2084 44.2169 58.4671 43.956 58.4671 43.4343V42.13C58.4671 41.3474 58.5964 41.2169 57.8203 40.6952C57.8203 40.6952 55.1039 39.13 54.9746 38.9995C54.4571 38.7387 53.8104 38.4778 52.9049 38.9995L41.3925 45.7821V35.4778L53.1636 28.6952C53.681 28.4343 54.3278 28.4343 54.7158 28.6952L57.4323 30.2604C58.2084 30.6517 58.4671 30.3908 58.4671 29.8691V28.5647C58.4671 27.7821 58.5964 27.6517 57.8203 27.13C57.8203 27.13 55.1039 25.5647 54.9746 25.4343C54.4571 25.1734 53.8104 24.9126 52.9049 25.4343L41.3925 32.2169V23.9995C41.3925 23.0865 40.7457 22.4343 39.8403 22.4343C38.9348 22.4343 38.288 23.0865 38.288 23.9995V32.2169L26.7757 25.4343C25.8702 25.043 25.2234 25.1734 24.706 25.4343L21.8602 27.13C21.2135 27.6517 21.3428 27.6517 21.2135 28.5647V29.8691C21.2135 30.3908 21.4722 30.6517 22.2483 30.2604L24.9647 28.6952C25.4821 28.4343 26.1289 28.4343 26.5169 28.6952L38.288 35.4778V45.7821L26.7757 38.9995C25.8702 38.6082 25.2234 38.7387 24.706 38.9995L21.8602 40.6952C21.2135 41.2169 21.3428 41.2169 21.2135 42.13V43.4343C21.2135 43.956 21.4722 44.2169 22.2483 43.8256L24.9647 42.2604C25.4821 41.9995 26.1289 41.9995 26.5169 42.2604L38.288 49.043V53.6082L25.0941 61.3039C24.9647 61.4343 24.8354 61.5647 24.8354 61.6952C24.8354 61.8256 24.9647 61.9561 25.2234 62.2169C25.8702 62.7387 27.0344 63.2604 27.0344 63.2604C27.1637 63.3908 27.4224 63.3908 27.6811 63.3908C28.0692 63.3908 28.4572 63.2604 28.9746 62.9995L38.5468 57.3908V75.3908C38.5468 76.3039 39.1935 76.9561 40.099 76.9561C41.0045 76.9561 41.6512 76.3039 41.6512 75.3908V57.3908L51.2233 62.9995C51.7407 63.2604 52.1288 63.3908 52.5168 63.3908C52.7756 63.3908 52.9049 63.3908 53.0343 63.2604C53.0343 63.2604 54.1984 62.7387 54.8452 62.2169C55.1039 62.0865 55.2333 61.8256 55.2333 61.6952C54.9746 61.5647 54.8452 61.4343 54.7158 61.3039Z" fill="#FFF8F1"/>
    </g>
</svg>
