<svg width="21" height="17" viewBox="0 0 21 17" fill="none" xmlns="http://www.w3.org/2000/svg">
<path fill-rule="evenodd" clip-rule="evenodd" d="M0.292893 8.77817C0.268485 8.75377 0.245603 8.72841 0.224246 8.70223C-0.0961056 8.30945 -0.0732233 7.73008 0.292893 7.36396L7.36396 0.292893C7.75449 -0.0976313 8.38765 -0.097631 8.77817 0.292893C9.1687 0.683418 9.1687 1.31658 8.77817 1.70711L3.41421 7.07107H19.5858C20.1381 7.07107 20.5858 7.51878 20.5858 8.07107C20.5858 8.62335 20.1381 9.07107 19.5858 9.07107H3.41421L8.77817 14.435C9.1687 14.8256 9.1687 15.4587 8.77817 15.8492C8.38765 16.2398 7.75448 16.2398 7.36396 15.8492L0.292893 8.77817Z" fill="white"/>
</svg>
