<?xml version="1.0" encoding="utf-8"?>
<!-- Generator: Adobe Illustrator 22.1.0, SVG Export Plug-In . SVG Version: 6.00 Build 0)  -->
<svg version="1.1" id="Слой_1" xmlns="http://www.w3.org/2000/svg" xmlns:xlink="http://www.w3.org/1999/xlink" x="0px" y="0px"
	 viewBox="0 0 1920 1080" style="enable-background:new 0 0 1920 1080;" xml:space="preserve">
<style type="text/css">
	.st0{clip-path:url(#SVGID_2_);}
	.st1{fill:#FBFBFB;}
	.st2{display:none;opacity:0.1;fill:#FFD541;enable-background:new    ;}
	.st3{opacity:0.6;fill:url(#SVGID_3_);enable-background:new    ;}
	.st4{display:none;}
	.st5{display:inline;fill:#FFD541;}
	.st6{display:inline;fill:#141717;}
	.st7{display:inline;fill:#C39465;}
	.st8{display:inline;fill:#004222;}
	.st9{display:none;opacity:0.5;}
	.st10{display:inline;fill:#BA946B;}
	.st11{opacity:0.1;fill:#FFD541;enable-background:new    ;}
	.st12{opacity:0.2;fill:none;stroke:#BA946B;enable-background:new    ;}
	.st13{display:none;opacity:0.4;fill:none;stroke:#FFD541;enable-background:new    ;}
	.st14{opacity:0.4;}
	.st15{fill:#BA946B;}
	.st16{display:inline;}
	.st17{fill:#FFFFFF;}
	.st18{fill:#FFD541;}
	.st19{fill:#141717;}
	.st20{display:inline;fill:#FFFFFF;stroke:#DBDEDE;}
	.st21{display:inline;fill:#24272C;}
	.st22{display:inline;fill:#BFC1C4;}
	.st23{display:inline;opacity:0.6;fill:#EAEEEE;enable-background:new    ;}
	.st24{display:inline;fill:#26A17B;}
	.st25{display:inline;fill:#FFFFFF;}
	.st26{display:inline;fill:#555959;}
	.st27{display:inline;fill:#A6ADC0;}
	.st28{display:inline;fill:#F7931A;}
	.st29{display:inline;opacity:0.4;fill:#C39465;enable-background:new    ;}
</style>
<g>
	<defs>
		<rect id="SVGID_1_" width="1920" height="1080"/>
	</defs>
	<clipPath id="SVGID_2_">
		<use xlink:href="#SVGID_1_"  style="overflow:visible;"/>
	</clipPath>
	<g class="st0">
		<rect class="st1" width="1920" height="1080"/>
		<path class="st2" d="M931,84.7c18.3-10.4,40.7-10.4,59.1,0L1308.9,265c18.8,10.6,30.5,30.6,30.5,52.2v358.5
			c0,21.6-11.6,41.6-30.5,52.2L990,908.3c-18.3,10.4-40.7,10.4-59.1,0L612.1,728c-18.8-10.6-30.5-30.6-30.5-52.2V317.3
			c0-21.6,11.6-41.6,30.5-52.2L931,84.7z"/>
		
			<radialGradient id="SVGID_3_" cx="420" cy="1079.6621" r="1" gradientTransform="matrix(6.309993e-14 1030.5 1242.8101 -7.610017e-14 -1340854.875 -432362.5)" gradientUnits="userSpaceOnUse">
			<stop  offset="0" style="stop-color:#FFF2C2"/>
			<stop  offset="1" style="stop-color:#FFFBDB;stop-opacity:0"/>
		</radialGradient>
		<rect class="st3" width="1920" height="1592"/>
		<g class="st4">
			<path class="st5" d="M1733,28h151c2.2,0,4,1.8,4,4v32c0,2.2-1.8,4-4,4h-151c-2.2,0-4-1.8-4-4V32C1729,29.8,1730.8,28,1733,28z"/>
			<path class="st6" d="M1752.5,52.2c-1.2,0-2.1-0.4-2.7-1.2c-0.7-0.8-1-2-1-3.5c0-1.5,0.3-2.7,1-3.5c0.7-0.8,1.6-1.2,2.7-1.2
				c0.8,0,1.4,0.2,1.9,0.5c0.5,0.3,0.9,0.8,1.2,1.5l-1,0.6c-0.2-0.5-0.4-0.8-0.8-1.1s-0.8-0.4-1.3-0.4c-0.8,0-1.3,0.3-1.8,0.8
				c-0.4,0.5-0.6,1.2-0.6,2.1v1.4c0,0.9,0.2,1.6,0.6,2.1c0.4,0.5,1,0.8,1.8,0.8c0.6,0,1-0.1,1.4-0.4c0.4-0.3,0.6-0.7,0.8-1.1l1,0.6
				c-0.3,0.7-0.7,1.2-1.3,1.5C1754,52,1753.3,52.2,1752.5,52.2z M1760.1,52.2c-0.5,0-0.9-0.1-1.3-0.2c-0.4-0.2-0.7-0.4-1-0.7
				c-0.3-0.3-0.5-0.7-0.6-1.1c-0.2-0.4-0.2-0.9-0.2-1.5s0.1-1,0.2-1.5c0.1-0.4,0.3-0.8,0.6-1.1c0.3-0.3,0.6-0.6,1-0.7
				c0.4-0.2,0.8-0.2,1.3-0.2s0.9,0.1,1.3,0.2c0.4,0.2,0.7,0.4,1,0.7c0.3,0.3,0.5,0.7,0.6,1.1s0.2,0.9,0.2,1.5s-0.1,1-0.2,1.5
				s-0.4,0.8-0.6,1.1c-0.3,0.3-0.6,0.5-1,0.7C1761,52.1,1760.6,52.2,1760.1,52.2z M1760.1,51.1c0.5,0,1-0.2,1.3-0.5
				c0.3-0.3,0.5-0.8,0.5-1.5v-1c0-0.7-0.2-1.2-0.5-1.5c-0.3-0.3-0.8-0.5-1.3-0.5s-1,0.2-1.3,0.5c-0.3,0.3-0.5,0.8-0.5,1.5v1
				c0,0.7,0.2,1.2,0.5,1.5C1759.2,51,1759.6,51.1,1760.1,51.1z M1765.1,52v-6.7h1.2v1.1h0.1c0.2-0.4,0.4-0.7,0.7-0.9
				c0.3-0.2,0.7-0.4,1.2-0.4c0.7,0,1.2,0.2,1.6,0.7c0.4,0.5,0.6,1.1,0.6,1.9V52h-1.2v-4.1c0-1.1-0.5-1.7-1.4-1.7
				c-0.2,0-0.4,0-0.6,0.1c-0.2,0.1-0.4,0.1-0.5,0.2c-0.2,0.1-0.3,0.2-0.4,0.4c-0.1,0.1-0.1,0.3-0.1,0.5V52H1765.1z M1772.8,52v-6.7
				h1.2v1.1h0.1c0.2-0.4,0.4-0.7,0.7-0.9c0.3-0.2,0.7-0.4,1.2-0.4c0.7,0,1.2,0.2,1.6,0.7c0.4,0.5,0.6,1.1,0.6,1.9V52h-1.2v-4.1
				c0-1.1-0.5-1.7-1.4-1.7c-0.2,0-0.4,0-0.6,0.1c-0.2,0.1-0.3,0.1-0.5,0.2c-0.2,0.1-0.3,0.2-0.3,0.4c-0.1,0.1-0.1,0.3-0.1,0.5V52
				H1772.8z M1783.1,52.2c-0.5,0-0.9-0.1-1.3-0.2c-0.4-0.2-0.7-0.4-1-0.7c-0.3-0.3-0.5-0.7-0.6-1.1s-0.2-0.9-0.2-1.5
				c0-0.5,0.1-1,0.2-1.4c0.1-0.4,0.3-0.8,0.6-1.1c0.3-0.3,0.6-0.5,1-0.7c0.4-0.2,0.8-0.3,1.3-0.3c0.5,0,0.9,0.1,1.3,0.3
				c0.4,0.2,0.7,0.4,0.9,0.7c0.3,0.3,0.4,0.6,0.6,1.1s0.2,0.8,0.2,1.3v0.5h-4.7v0.3c0,0.6,0.2,1,0.5,1.4c0.3,0.4,0.8,0.5,1.4,0.5
				c0.4,0,0.8-0.1,1.1-0.3c0.3-0.2,0.5-0.5,0.7-0.8l0.8,0.7c-0.2,0.4-0.6,0.8-1.1,1.1C1784.3,52,1783.8,52.2,1783.1,52.2z
				 M1783.1,46.1c-0.3,0-0.5,0-0.7,0.1s-0.4,0.2-0.6,0.4c-0.2,0.2-0.3,0.4-0.4,0.6c-0.1,0.2-0.1,0.5-0.1,0.8v0.1h3.5V48
				c0-0.6-0.2-1-0.5-1.4C1784,46.3,1783.6,46.1,1783.1,46.1z M1790.5,52.2c-0.5,0-0.9-0.1-1.3-0.2c-0.4-0.2-0.7-0.4-0.9-0.7
				s-0.5-0.7-0.6-1.1c-0.1-0.4-0.2-0.9-0.2-1.5s0.1-1,0.2-1.5c0.1-0.4,0.3-0.8,0.6-1.1c0.3-0.3,0.6-0.6,0.9-0.7
				c0.4-0.2,0.8-0.2,1.3-0.2c0.7,0,1.2,0.1,1.6,0.4c0.4,0.3,0.7,0.7,0.9,1.2l-1,0.5c-0.1-0.3-0.3-0.6-0.6-0.8s-0.6-0.3-1-0.3
				c-0.6,0-1,0.2-1.3,0.5c-0.3,0.4-0.4,0.8-0.4,1.4v1.2c0,0.6,0.1,1,0.4,1.4c0.3,0.4,0.7,0.5,1.3,0.5c0.4,0,0.8-0.1,1-0.3
				c0.3-0.2,0.5-0.5,0.7-0.8l0.9,0.5c-0.2,0.5-0.5,0.9-1,1.2C1791.7,52,1791.2,52.2,1790.5,52.2z M1796.4,52c-0.4,0-0.7-0.1-0.9-0.3
				c-0.2-0.2-0.3-0.5-0.3-0.9v-4.4h-1.1v-1h0.6c0.2,0,0.4,0,0.5-0.1c0.1-0.1,0.1-0.3,0.1-0.5v-1.2h1.1v1.9h1.4v1h-1.4V51h1.3v1
				H1796.4z M1804.7,52c-0.4,0-0.7-0.1-0.9-0.3c-0.2-0.2-0.3-0.5-0.3-0.9v-4.4h-1.1v-1h0.6c0.2,0,0.4,0,0.5-0.1
				c0.1-0.1,0.1-0.3,0.1-0.5v-1.2h1.1v1.9h1.4v1h-1.4V51h1.3v1H1804.7z M1810.5,52.2c-0.5,0-0.9-0.1-1.3-0.2s-0.7-0.4-1-0.7
				c-0.3-0.3-0.5-0.7-0.6-1.1s-0.2-0.9-0.2-1.5s0.1-1,0.2-1.5s0.4-0.8,0.6-1.1c0.3-0.3,0.6-0.6,1-0.7c0.4-0.2,0.8-0.2,1.3-0.2
				s0.9,0.1,1.3,0.2c0.4,0.2,0.7,0.4,1,0.7c0.3,0.3,0.5,0.7,0.6,1.1c0.2,0.4,0.2,0.9,0.2,1.5s-0.1,1-0.2,1.5
				c-0.1,0.4-0.3,0.8-0.6,1.1c-0.3,0.3-0.6,0.5-1,0.7S1810.9,52.2,1810.5,52.2z M1810.5,51.1c0.5,0,1-0.2,1.3-0.5
				c0.3-0.3,0.5-0.8,0.5-1.5v-1c0-0.7-0.2-1.2-0.5-1.5c-0.3-0.3-0.8-0.5-1.3-0.5s-1,0.2-1.3,0.5c-0.3,0.3-0.5,0.8-0.5,1.5v1
				c0,0.7,0.2,1.2,0.5,1.5C1809.5,51,1809.9,51.1,1810.5,51.1z M1823.7,52c-0.4,0-0.7-0.1-0.8-0.3c-0.2-0.2-0.3-0.5-0.3-0.8h-0.1
				c-0.1,0.4-0.4,0.7-0.7,0.9c-0.3,0.2-0.8,0.3-1.2,0.3c-0.7,0-1.3-0.2-1.6-0.5c-0.4-0.4-0.6-0.9-0.6-1.5c0-0.6,0.2-1.1,0.7-1.5
				c0.5-0.3,1.2-0.5,2.2-0.5h1.3v-0.6c0-0.5-0.1-0.8-0.4-1c-0.3-0.2-0.6-0.4-1.1-0.4c-0.4,0-0.7,0.1-1,0.3c-0.3,0.2-0.5,0.4-0.7,0.7
				l-0.7-0.7c0.2-0.4,0.5-0.7,0.9-0.9c0.4-0.3,0.9-0.4,1.5-0.4c0.8,0,1.5,0.2,2,0.6c0.5,0.4,0.7,1,0.7,1.7V51h0.8v1H1823.7z
				 M1820.8,51.2c0.5,0,0.9-0.1,1.2-0.3c0.3-0.2,0.5-0.5,0.5-0.8v-1h-1.3c-0.6,0-1,0.1-1.2,0.2c-0.3,0.2-0.4,0.4-0.4,0.7v0.3
				c0,0.3,0.1,0.6,0.3,0.7C1820.1,51.1,1820.4,51.2,1820.8,51.2z M1830.8,52l-2.2-9.1h1.3l1,4.4l0.7,3.2h0l0.8-3.2l1.1-4.4h1.4
				l1.1,4.4l0.8,3.2h0l0.7-3.2l1-4.4h1.3l-2.3,9.1h-1.4l-1.2-4.6l-0.8-3.1h0l-0.8,3.1l-1.2,4.6H1830.8z M1846.2,52
				c-0.4,0-0.7-0.1-0.8-0.3c-0.2-0.2-0.3-0.5-0.3-0.8h-0.1c-0.1,0.4-0.4,0.7-0.7,0.9c-0.3,0.2-0.8,0.3-1.2,0.3
				c-0.7,0-1.3-0.2-1.6-0.5c-0.4-0.4-0.6-0.9-0.6-1.5c0-0.6,0.2-1.1,0.7-1.5c0.5-0.3,1.2-0.5,2.2-0.5h1.3v-0.6c0-0.5-0.1-0.8-0.4-1
				c-0.3-0.2-0.6-0.4-1.1-0.4c-0.4,0-0.7,0.1-1,0.3c-0.3,0.2-0.5,0.4-0.7,0.7l-0.7-0.7c0.2-0.4,0.5-0.7,0.9-0.9
				c0.4-0.3,0.9-0.4,1.5-0.4c0.8,0,1.5,0.2,2,0.6c0.5,0.4,0.7,1,0.7,1.7V51h0.8v1H1846.2z M1843.3,51.2c0.5,0,0.9-0.1,1.2-0.3
				c0.3-0.2,0.5-0.5,0.5-0.8v-1h-1.3c-0.6,0-1,0.1-1.2,0.2c-0.3,0.2-0.4,0.4-0.4,0.7v0.3c0,0.3,0.1,0.6,0.3,0.7
				C1842.6,51.1,1842.9,51.2,1843.3,51.2z M1849.8,52c-0.4,0-0.7-0.1-0.9-0.3c-0.2-0.2-0.3-0.5-0.3-0.9v-8.4h1.2V51h1v1H1849.8z
				 M1853.6,52c-0.4,0-0.7-0.1-1-0.3c-0.2-0.2-0.3-0.5-0.3-0.9v-8.4h1.2V51h1v1H1853.6z M1858.8,52.2c-0.5,0-0.9-0.1-1.3-0.2
				c-0.4-0.2-0.7-0.4-1-0.7s-0.5-0.7-0.6-1.1c-0.1-0.4-0.2-0.9-0.2-1.5c0-0.5,0.1-1,0.2-1.4c0.2-0.4,0.4-0.8,0.6-1.1
				c0.3-0.3,0.6-0.5,1-0.7c0.4-0.2,0.8-0.3,1.3-0.3c0.5,0,0.9,0.1,1.3,0.3c0.4,0.2,0.7,0.4,0.9,0.7c0.3,0.3,0.4,0.6,0.6,1.1
				s0.2,0.8,0.2,1.3v0.5h-4.7v0.3c0,0.6,0.2,1,0.5,1.4c0.3,0.4,0.8,0.5,1.4,0.5c0.4,0,0.8-0.1,1.1-0.3c0.3-0.2,0.5-0.5,0.7-0.8
				l0.8,0.7c-0.2,0.4-0.6,0.8-1.1,1.1C1860,52,1859.5,52.2,1858.8,52.2z M1858.8,46.1c-0.3,0-0.5,0-0.7,0.1
				c-0.2,0.1-0.4,0.2-0.6,0.4c-0.2,0.2-0.3,0.4-0.4,0.6c-0.1,0.2-0.1,0.5-0.1,0.8v0.1h3.5V48c0-0.6-0.2-1-0.5-1.4
				C1859.8,46.3,1859.3,46.1,1858.8,46.1z M1865.3,52c-0.4,0-0.7-0.1-0.9-0.3c-0.2-0.2-0.3-0.5-0.3-0.9v-4.4h-1.1v-1h0.6
				c0.2,0,0.4,0,0.5-0.1c0.1-0.1,0.1-0.3,0.1-0.5v-1.2h1.1v1.9h1.4v1h-1.4V51h1.3v1H1865.3z"/>
		</g>
		<g class="st4">
			<path class="st7" d="M42.4,31.2c-0.2,0-0.4-0.1-0.5-0.3c-0.1-0.3-0.1-0.6,0.2-0.8l2.3-1.3c0.3-0.1,0.6-0.1,0.8,0.2
				c0.1,0.3,0.1,0.6-0.2,0.8l-2.3,1.3C42.6,31.2,42.5,31.2,42.4,31.2z"/>
			<path class="st7" d="M32.6,47.7c-0.3,0-0.6-0.3-0.6-0.6v-7c0-2.6,1.3-4.9,3.5-6.2l2.1-1.3c0.3-0.1,0.6-0.1,0.8,0.2
				c0.1,0.3,0.1,0.6-0.2,0.8l-2.1,1.3c-1.8,1-3,3.1-2.9,5.1v7C33.2,47.4,33,47.7,32.6,47.7z"/>
			<path class="st7" d="M53.4,71.9c-1.2,0-2.5-0.3-3.5-1l-14.3-8.1c-2.2-1.3-3.5-3.6-3.6-6.2v-4c0-0.3,0.3-0.6,0.6-0.6
				c0.3,0,0.6,0.3,0.6,0.6v4c0,2.1,1.2,4.1,3,5.1l14.2,8.2c0.9,0.5,1.9,0.8,2.9,0.8c1,0,2.1-0.3,3-0.8l5.7-3.3
				c0.3-0.1,0.6-0.1,0.8,0.2c0.1,0.3,0.1,0.6-0.2,0.8l-5.7,3.3C55.8,71.6,54.6,71.9,53.4,71.9z"/>
			<path class="st7" d="M71.4,48.8c-0.3,0-0.6-0.3-0.6-0.6V40c0-1.3-0.7-2.4-1.7-3l-3-1.7c-0.3-0.1-0.3-0.6-0.2-0.8
				c0.1-0.3,0.6-0.3,0.8-0.2l3,1.7c1.4,0.8,2.3,2.4,2.3,4v8.3C72,48.6,71.8,48.8,71.4,48.8z"/>
			<path class="st7" d="M66.6,65.2c-0.2,0-0.3-0.1-0.5-0.3l-1.4-2c-0.1-0.1-0.1-0.3-0.1-0.5c0.1-0.1,0.1-0.3,0.3-0.4l4.3-2.6
				c1-0.6,1.7-1.7,1.7-3v-1.9c0-0.3,0.3-0.6,0.6-0.6c0.3,0,0.6,0.3,0.6,0.6v1.9c0,1.7-0.9,3.2-2.3,4l-3.8,2.2l0.8,1l3.7-2.2
				c1.8-1,3-3.1,2.9-5.1V40c0-2.1-1.2-4.1-3-5.1c-0.3-0.1-0.3-0.6-0.2-0.8c0.1-0.3,0.6-0.3,0.8-0.2c2.2,1.3,3.5,3.6,3.6,6.2
				l0.1,16.5c0,2.5-1.3,4.9-3.5,6.2l-4.2,2.4C66.8,65.2,66.6,65.2,66.6,65.2z"/>
			<path class="st7" d="M53.3,69.4c-0.8,0-1.6-0.2-2.3-0.6l-3.8-2.2c-0.3-0.1-0.3-0.6-0.2-0.8c0.1-0.3,0.6-0.3,0.8-0.2l3.8,2.2
				c0.6,0.3,1.1,0.5,1.7,0.5c0.6,0,1.2-0.1,1.7-0.5l7.9-4.6c0.3-0.1,0.6-0.1,0.8,0.2c0.1,0.3,0.1,0.6-0.2,0.8l-7.9,4.6
				C55,69.2,54.1,69.4,53.3,69.4z"/>
			<path class="st7" d="M42.2,63.7c-0.1,0-0.2,0-0.3-0.1l-5.1-2.9c-1.4-0.8-2.3-2.4-2.3-4V45.1c0-0.3,0.3-0.6,0.6-0.6
				c0.3,0,0.6,0.3,0.6,0.6l0.1,11.5c0,1.3,0.7,2.4,1.7,3l5.1,2.9c0.3,0.1,0.3,0.6,0.2,0.8C42.6,63.5,42.4,63.7,42.2,63.7z"/>
			<path class="st7" d="M35,40.7c-0.3,0-0.6-0.3-0.6-0.6c0-1.7,0.9-3.2,2.3-4l6.5-3.8c0.3-0.1,0.6-0.1,0.8,0.2
				c0.1,0.3,0.1,0.6-0.2,0.8l-6.5,3.8c-1,0.6-1.7,1.7-1.7,3C35.7,40.4,35.4,40.7,35,40.7z"/>
			<path class="st7" d="M62.3,33c-0.1,0-0.2,0-0.3-0.1l-7.2-4.1c-1-0.6-2.4-0.6-3.4,0l-4.3,2.6c-0.3,0.1-0.6,0.1-0.8-0.2
				c-0.1-0.3-0.1-0.6,0.2-0.8l4.3-2.6c1.4-0.8,3.2-0.8,4.6,0l6.7,3.8l0.8-1l-6.8-3.9c-1.8-1-4.1-1-5.9,0l-2.8,1.6
				c-0.3,0.1-0.6,0.1-0.8-0.2c-0.1-0.3-0.1-0.6,0.2-0.8l2.8-1.6c2.1-1.3,5-1.3,7.1,0l7.4,4.2c0.1,0.1,0.3,0.2,0.3,0.4
				c0.1,0.1,0,0.3-0.1,0.5l-1.4,2C62.7,32.9,62.6,33,62.3,33z"/>
			<path class="st8" d="M64.3,41l0.7,0.4c0.3,0.2,0.6,0.1,0.6-0.2v-0.7c0-0.4,0.1-0.5-0.3-0.8l-0.7-0.4c-0.4-0.2-0.6-0.1-0.6,0.2
				v0.7C64,40.8,63.9,40.8,64.3,41z"/>
			<path class="st8" d="M68.6,41.9l-1.9-1.2c-0.3-0.2-0.6-0.1-0.6,0.2v0.7c0,0.4-0.1,0.4,0.3,0.6l0.8,0.4c0.3,0.2,0.6,0.6,0.6,1v1.3
				c0,0.6,0,0.8,0.3,1c0,0,0.4,0.3,0.6,0.3c0.2,0.1,0.6,0,0.6-0.3v-3.1C69.2,42.4,69.1,42.1,68.6,41.9z"/>
			<path class="st8" d="M65.3,49c0,0,0.3,0.2,0.6,0.3c0.1,0.1,0.2,0.1,0.3,0.1c0.1,0,0.3-0.1,0.3-0.3v-4.2c0-0.5-0.1-0.7-0.6-1
				l-4.7-2.7c-0.1-0.1-0.3-0.1-0.5-0.1c-0.1,0-0.3,0.1-0.6,0.1l-4.1,2.6c-0.4,0.2-0.5,0.3-0.5,0.6c0,0,0,0.4,0,0.7
				c0,0.1,0,0.1,0.1,0.2c0.1,0.1,0.2,0.1,0.3,0.1l4.3-2.5c0.1-0.1,0.3-0.1,0.5-0.1c0.1,0,0.3,0.1,0.5,0.1l3.2,1.9
				c0.3,0.2,0.5,0.5,0.5,0.8v2.5C65,48.8,65,48.9,65.3,49z"/>
			<path class="st8" d="M63.9,54.5l-6.2-3.7c-0.1-0.1-0.3-0.1-0.5-0.1c-0.1,0-0.2,0-0.3,0.1c-0.3,0.1-0.8,0.5-0.8,0.5
				c-0.1,0.1-0.2,0.2-0.3,0.3c0,0.1,0.1,0.2,0.1,0.3l5.9,3.5c0.3,0.1,0.5,0.2,0.7,0.2c0.1,0,0.2,0,0.3-0.1c0,0,0.6-0.3,1-0.6
				c0.1-0.1,0.2-0.2,0.2-0.3C64.1,54.7,64,54.6,63.9,54.5z"/>
			<path class="st8" d="M66.5,52L61,48.8c-0.1-0.1-0.3-0.1-0.5-0.1c-0.1,0-0.2,0-0.3,0.1c-0.3,0.1-0.8,0.4-0.8,0.5
				c-0.1,0.1-0.3,0.2-0.3,0.3c0,0.1,0.1,0.2,0.1,0.3l5.2,3.1c0.3,0.1,0.5,0.2,0.7,0.2c0.1,0,0.2,0,0.3-0.1c0,0,0.6-0.3,1-0.6
				c0.1-0.1,0.2-0.2,0.2-0.3C66.6,52.2,66.6,52.1,66.5,52z"/>
			<path class="st8" d="M41.6,41.5l0.6-0.3c0.3-0.2,0.3-0.3,0.3-0.7v-0.7c0-0.3-0.1-0.4-0.6-0.2l-0.6,0.3c-0.3,0.3-0.3,0.3-0.3,0.8
				v0.7C41,41.5,41.2,41.6,41.6,41.5z"/>
			<path class="st8" d="M40.3,41.7V41c0-0.3-0.1-0.4-0.6-0.2l-1.9,1.1c-0.4,0.3-0.6,0.5-0.6,1v3.1c0,0.3,0.3,0.3,0.6,0.3
				c0.1-0.1,0.6-0.3,0.6-0.3c0.3-0.2,0.3-0.3,0.3-1V45v-1.3c0-0.4,0.2-0.8,0.6-1l0.8-0.4C40.3,42.1,40.3,42.1,40.3,41.7z"/>
			<path class="st8" d="M40,45v4.2c0,0.1,0.1,0.3,0.3,0.3c0.1,0,0.1,0,0.3-0.1c0.3-0.1,0.6-0.3,0.6-0.3c0.3-0.2,0.3-0.3,0.3-0.9
				v-2.5c0-0.3,0.2-0.7,0.5-0.8l3.2-1.9c0.1-0.1,0.3-0.1,0.5-0.1s0.3,0.1,0.5,0.1l4.3,2.5c0.1,0.1,0.3,0,0.3-0.1
				c0-0.1,0.1-0.1,0.1-0.2c0-0.3,0-0.7,0-0.7c0-0.3-0.1-0.3-0.5-0.6l-4.2-2.6c-0.2-0.1-0.3-0.1-0.6-0.1c-0.1,0-0.3,0.1-0.5,0.1
				l-4.7,2.7C40.1,44.2,40,44.5,40,45z"/>
			<path class="st8" d="M47.3,49.5c0-0.1-0.1-0.3-0.3-0.3c0,0-0.6-0.3-0.8-0.5c-0.1-0.1-0.3-0.1-0.3-0.1c-0.1,0-0.3,0.1-0.5,0.1
				L40,52c-0.1,0.1-0.1,0.1-0.1,0.2c0,0.1,0.1,0.1,0.2,0.3c0.3,0.3,1,0.6,1,0.6c0.1,0.1,0.2,0.1,0.3,0.1c0.2,0,0.4-0.1,0.7-0.2
				l5.2-3.1C47.2,49.7,47.3,49.7,47.3,49.5z"/>
			<path class="st8" d="M50.6,51.6c0-0.1-0.1-0.3-0.3-0.3c0,0-0.6-0.3-0.8-0.5c-0.1-0.1-0.3-0.1-0.3-0.1c-0.1,0-0.3,0.1-0.5,0.1
				l-6.2,3.7c-0.1,0.1-0.1,0.1-0.1,0.2c0,0.1,0.1,0.1,0.2,0.3c0.3,0.3,1,0.6,1,0.6c0.1,0.1,0.2,0.1,0.3,0.1c0.2,0,0.4-0.1,0.7-0.2
				l5.9-3.5C50.6,51.8,50.7,51.7,50.6,51.6z"/>
			<path class="st8" d="M61.2,56.7l-7.1-4.1v-2.4l6.3-3.6c0.3-0.1,0.6-0.1,0.8,0l1.4,0.8c0.4,0.2,0.6,0.1,0.6-0.2v-0.7
				c0-0.4,0.1-0.5-0.3-0.8c0,0-1.4-0.8-1.5-0.9c-0.3-0.1-0.6-0.3-1.1,0l-6.1,3.6v-5.5l6.3-3.6c0.3-0.1,0.6-0.1,0.8,0l1.4,0.8
				c0.4,0.2,0.6,0.1,0.6-0.2v-0.7c0-0.4,0.1-0.5-0.3-0.8c0,0-1.4-0.8-1.5-0.9c-0.3-0.1-0.6-0.3-1.1,0l-6.1,3.6v-4.4
				c0-0.5-0.3-0.8-0.8-0.8c-0.5,0-0.8,0.3-0.8,0.8v4.4l-6.1-3.6c-0.5-0.2-0.8-0.1-1.1,0l-1.5,0.9c-0.3,0.3-0.3,0.3-0.3,0.8v0.7
				c0,0.3,0.1,0.4,0.6,0.2l1.4-0.8c0.3-0.1,0.6-0.1,0.8,0l6.3,3.6v5.5l-6.1-3.6c-0.5-0.2-0.8-0.1-1.1,0l-1.5,0.9
				c-0.3,0.3-0.3,0.3-0.3,0.8v0.7c0,0.3,0.1,0.4,0.6,0.2l1.4-0.8c0.3-0.1,0.6-0.1,0.8,0l6.3,3.6v2.4l-7,4.1
				c-0.1,0.1-0.1,0.1-0.1,0.2c0,0.1,0.1,0.1,0.2,0.3c0.3,0.3,1,0.6,1,0.6c0.1,0.1,0.2,0.1,0.3,0.1c0.2,0,0.4-0.1,0.7-0.2l5.1-3v9.6
				c0,0.5,0.3,0.8,0.8,0.8c0.5,0,0.8-0.3,0.8-0.8v-9.6l5.1,3c0.3,0.1,0.5,0.2,0.7,0.2c0.1,0,0.2,0,0.3-0.1c0,0,0.6-0.3,1-0.6
				c0.1-0.1,0.2-0.2,0.2-0.3C61.3,56.8,61.2,56.8,61.2,56.7z"/>
			<path class="st7" d="M114.8,57.9H86.9v0.6h27.9V57.9z"/>
			<path class="st7" d="M188.4,57.9h-27.9v0.6h27.9V57.9z"/>
			<path class="st8" d="M113,37.8c-0.3,0-0.5,0.1-0.6,0.1s-0.3,0.2-0.4,0.3l-5.7,7.6l-5.7-7.6c-0.1-0.1-0.3-0.3-0.4-0.3
				s-0.3-0.1-0.6-0.1c-0.3,0-0.6,0.1-0.9,0.2c-0.2,0.1-0.3,0.3-0.3,0.7v9.5h2.1v-6.7l4.9,6.5c0.2,0.3,0.6,0.4,1,0.4
				c0.4,0,0.8-0.1,1-0.4l4.9-6.5v6.7h2.1v-9.5c0-0.3-0.1-0.6-0.3-0.7C113.7,37.8,113.4,37.8,113,37.8z"/>
			<path class="st8" d="M120.9,38h-2.3v10.2h2.3V38z"/>
			<path class="st8" d="M191.7,39.6c-0.1-0.4-0.4-0.7-0.7-0.9c-0.3-0.2-0.8-0.4-1.2-0.5c-0.5-0.1-1.1-0.1-1.8-0.1h-7.9v1.9h7.7
				c0.3,0,0.7,0,0.9,0.1c0.3,0,0.4,0.1,0.6,0.2c0.1,0.1,0.2,0.2,0.3,0.4c0.1,0.1,0.1,0.4,0.1,0.6v0.6c0,0.3,0,0.5-0.1,0.7
				c-0.1,0.1-0.1,0.3-0.3,0.4c-0.1,0.1-0.3,0.1-0.6,0.2c-0.2,0-0.6,0.1-0.9,0.1h-7.7v5.1h2.2v-3.4h3.9h1.8c0.7,0,1.3-0.1,1.8-0.1
				c0.5-0.1,0.9-0.3,1.2-0.5c0.3-0.2,0.6-0.6,0.8-0.9c0.1-0.3,0.2-0.8,0.2-1.5v-0.7C191.9,40.4,191.8,39.9,191.7,39.6z"/>
			<path class="st8" d="M86.5,46.2c-0.2-0.1-0.3-0.1-0.5-0.3c-0.1-0.1-0.2-0.3-0.3-0.5c-0.1-0.2-0.1-0.4-0.1-0.8V44h8.6v-1.8H83.4
				v2.5c0,0.6,0.1,1.2,0.2,1.6c0.1,0.4,0.3,0.8,0.6,1c0.3,0.3,0.7,0.5,1.2,0.6c0.5,0.1,1.1,0.2,1.9,0.2h7v-1.9h-7.1
				C86.9,46.3,86.7,46.2,86.5,46.2z"/>
			<path class="st8" d="M94.3,38h-7c-0.8,0-1.4,0.1-1.9,0.2c-0.5,0.1-0.9,0.3-1.2,0.6c-0.3,0.3-0.5,0.6-0.6,1.1h10.7V38z"/>
			<path class="st8" d="M126.8,38.1c-0.3,0.1-0.7,0.3-0.9,0.5c-0.2,0.2-0.4,0.6-0.5,0.9c-0.1,0.1-0.1,0.3-0.1,0.4h14V38h-11.2
				C127.6,38,127.2,38.1,126.8,38.1z"/>
			<path class="st8" d="M138.6,42.7c-0.3-0.2-0.6-0.3-1-0.5c-0.4-0.1-0.9-0.1-1.4-0.1h-10.9c0,0.1,0.1,0.3,0.1,0.3
				c0.1,0.3,0.2,0.6,0.5,0.8c0.2,0.2,0.5,0.3,0.9,0.5c0.3,0.1,0.8,0.1,1.4,0.1h8c0.4,0,0.7,0.1,0.9,0.2c0.2,0.1,0.3,0.3,0.3,0.7v0.6
				c0,0.3-0.1,0.6-0.3,0.7c-0.2,0.1-0.5,0.2-0.9,0.2h-10.9v1.9h11c0.6,0,1-0.1,1.4-0.1c0.4-0.1,0.7-0.3,1-0.5
				c0.3-0.2,0.4-0.5,0.6-0.8s0.1-0.8,0.1-1.3v-0.8c0-0.5-0.1-0.8-0.1-1.2C139,43.2,138.9,42.9,138.6,42.7z"/>
			<path class="st8" d="M170.3,38c-0.3-0.2-0.6-0.3-1-0.3c-0.5,0-0.8,0.1-1.1,0.3c-0.3,0.2-0.5,0.4-0.6,0.7l-5.9,9.5h2.6l1.4-2.4h7
				l1.4,2.4h2.6l-5.9-9.5C170.8,38.4,170.6,38.2,170.3,38z M166.8,44l2.5-4l2.5,4H166.8z"/>
			<path class="st8" d="M159.2,37.9l-3,7.4l-2.9-6.7c-0.1-0.3-0.3-0.6-0.6-0.7c-0.2-0.1-0.5-0.2-0.9-0.2c-0.3,0-0.6,0.1-0.8,0.2
				c-0.2,0.1-0.3,0.3-0.6,0.7l-3,6.7l-2.9-7.4h-2.6l3.9,9.5c0.1,0.3,0.3,0.6,0.5,0.7c0.2,0.1,0.5,0.3,0.9,0.3c0.3,0,0.6-0.1,0.9-0.3
				c0.2-0.2,0.4-0.4,0.6-0.7l3.1-6.6l3,6.6c0.1,0.3,0.3,0.6,0.6,0.7c0.2,0.2,0.6,0.3,0.9,0.3c0.3,0,0.6-0.1,0.8-0.3
				c0.2-0.2,0.4-0.4,0.6-0.7c0.1-0.3,0.3-0.6,0.5-1.1c0.2-0.5,0.5-1,0.8-1.7c0.3-0.6,0.6-1.3,0.8-1.9c0.3-0.7,0.6-1.3,0.8-1.9
				c0.3-0.6,0.5-1.2,0.8-1.7c0.2-0.5,0.4-0.9,0.5-1.1H159.2z"/>
			<path class="st7" d="M120.3,59.6c0.1-0.3,0.1-0.8,0.1-1.1v-0.6c0-1-0.1-2.5-0.2-3.5c0.1-0.2-0.8-0.4-0.6-0.6h0.1
				c0.1,1.3,1.2,2.6,1.2,4c0,0.3,0,0.7-0.1,0.9C120.9,59,120.8,59.3,120.3,59.6L120.3,59.6z"/>
			<path class="st7" d="M125.9,57.3c-0.1-0.5-0.3-0.7-0.4-0.7c-0.3,0-0.6,0.1-0.9,0.4c-0.3,0.3-0.6,0.6-0.6,0.7
				c0,0.5,1.4,0.4,1.9,0.8c0.1,0.1,0.3,0.3,0.3,0.6c0,0.3-0.2,0.8-0.5,1c-0.6,0.5-1.4,0.9-2.1,0.9c-1.3,0-1.9-0.9-1.9-2.1
				c0-0.6,0.1-1,0.3-1.4l0.2,0.1c-0.1,0.3-0.2,0.7-0.2,1c0,1,0.7,1.6,1.7,1.6c0.3,0,1-0.1,1.5-0.5c0.3-0.2,0.7-0.5,0.7-0.6
				c0-0.1-0.4-0.3-0.9-0.3c-0.5-0.1-0.9-0.2-1-0.3c-0.1-0.1-0.2-0.3-0.2-0.5c0-0.6,0.2-1,0.6-1.5c0.4-0.4,1-0.8,1.4-0.8
				c0.2,0,0.3,0.1,0.4,0.3c0.1,0.2,0.1,0.3,0.1,0.6C126.1,56.8,126,57,125.9,57.3L125.9,57.3z M123.2,62.8c-0.2-0.2-0.4-0.4-0.6-0.6
				c0.1-0.2,0.3-0.4,0.4-0.6c0.2,0.2,0.4,0.3,0.6,0.6C123.5,62.5,123.4,62.7,123.2,62.8z M124.3,62.7c-0.2-0.2-0.4-0.4-0.6-0.6
				c0.1-0.2,0.3-0.4,0.4-0.6c0.2,0.2,0.4,0.3,0.6,0.6C124.6,62.5,124.5,62.6,124.3,62.7z"/>
			<path class="st7" d="M128,58.5c-0.6,0-0.9,0.3-0.9,0.4c0,0.6,0.4,1.7,0.7,2.9c0,0.1,0.1,0.3,0.1,0.5c0,0.3-0.1,0.6-0.1,0.8h-0.1
				c0-0.7-0.5-1.8-0.8-3c-0.1-0.2-0.1-0.5-0.1-0.6c0-0.3,0.1-0.5,0.1-0.8c0.1-0.3,0.3-0.6,0.5-0.7c-0.1-0.3-0.1-0.6-0.1-0.7
				c0-0.2,0.1-0.6,0.3-0.7c0.1-0.1,0.3-0.2,0.6-0.2c0.3,0,0.5,0.1,0.7,0.3c0.3,0.3,0.6,0.6,0.8,1.1c0.1,0.1,0.1,0.3,0.1,0.3
				c0,0.2-0.1,0.4-0.2,0.6C129,58.6,128.5,58.5,128,58.5z M129.1,57.9c-0.3-0.4-0.7-0.8-1.2-0.8c-0.1,0-0.2,0-0.3,0.1v0.3
				c0,0.2-0.1,0.4-0.1,0.6c0.2-0.1,0.5-0.1,0.8-0.1C128.4,57.8,128.8,57.9,129.1,57.9z"/>
			<path class="st7" d="M134.6,57.3c-0.1-0.5-0.3-0.7-0.4-0.7c-0.3,0-0.6,0.1-0.9,0.4c-0.3,0.3-0.6,0.6-0.6,0.7
				c0,0.5,1.4,0.4,1.9,0.8c0.1,0.1,0.3,0.3,0.3,0.6c0,0.3-0.2,0.8-0.5,1c-0.6,0.5-1.4,0.9-2.1,0.9c-1.3,0-1.9-0.9-1.9-2.1
				c0-0.6,0.1-1,0.3-1.4l0.2,0.1c-0.1,0.3-0.2,0.7-0.2,1c0,1,0.7,1.6,1.7,1.6c0.3,0,1-0.1,1.5-0.5c0.3-0.2,0.7-0.5,0.7-0.6
				c0-0.1-0.4-0.3-0.9-0.3s-0.9-0.2-1-0.3c-0.1-0.1-0.2-0.3-0.2-0.5c0-0.6,0.2-1,0.6-1.5s1-0.8,1.4-0.8c0.2,0,0.3,0.1,0.4,0.3
				c0.1,0.2,0.1,0.3,0.1,0.6C134.8,56.8,134.7,57,134.6,57.3L134.6,57.3z M131.9,62.8c-0.2-0.2-0.4-0.4-0.6-0.6
				c0.1-0.2,0.3-0.4,0.4-0.6c0.2,0.2,0.4,0.3,0.6,0.6C132.2,62.5,132.1,62.7,131.9,62.8z M133,62.7c-0.2-0.2-0.4-0.4-0.6-0.6
				c0.1-0.2,0.3-0.4,0.4-0.6c0.2,0.2,0.4,0.3,0.6,0.6C133.2,62.5,133.2,62.6,133,62.7z"/>
			<path class="st7" d="M140.4,57.3c0.1,0.3,0.3,0.6,0.3,0.8c0.1,0.2,0.1,0.5,0.5,0.5c0.1,0,0.3-0.1,0.3-0.1
				c0.1-0.1,0.3-0.2,0.3-0.4l0.1-0.6l0.3-0.2c-0.1,0.2-0.1,0.4-0.1,0.6c0,0.5,0.3,0.6,0.6,0.6c0.1,0,0.3-0.1,0.3-0.3
				c0-0.2-0.1-0.6-0.2-0.9c0.1-0.2,0.3-0.3,0.5-0.6c0.1,0.4,0.1,0.8,0.1,1c0,0.3-0.1,0.6-0.2,0.7c-0.1,0.3-0.4,0.6-0.8,0.6
				c-0.3,0-0.6-0.1-0.8-0.4c-0.2,0.3-0.5,0.6-1,0.6h-0.1c0,0.3-0.1,0.6-0.2,0.8c-0.3,0.6-1.1,1.1-1.9,1.1c-1.1,0-1.6-0.8-1.6-1.7
				c0-0.6,0.1-1.2,0.4-1.6l0.2,0.1c-0.1,0.3-0.3,0.7-0.3,1c0,0.9,0.6,1.4,1.4,1.4c0.7,0,1.5-0.5,1.7-1.1c-0.1-0.6-0.3-1-0.6-1.5
				C140.1,57.7,140.2,57.5,140.4,57.3z"/>
			<path class="st7" d="M146.1,58.9c-0.6,0-1.2-0.3-1.2-1c0-0.3,0.1-0.7,0.3-1c0.3-0.3,0.6-0.5,0.8-0.5c0.3,0,0.6,0.2,0.8,0.6
				s0.3,0.9,0.3,1.5c0,0.6-0.1,1-0.4,1.5c-0.5,0.8-1,1-1.4,1s-1-0.1-1.6-0.6l0.1-0.2c0.3,0.1,0.6,0.2,0.8,0.2c0.6,0,1.1-0.3,1.7-0.8
				c0.3-0.3,0.5-0.6,0.6-0.9C146.6,58.9,146.3,58.9,146.1,58.9z M145.8,57.1c-0.3,0-0.6,0.3-0.6,0.5c0,0.3,0.5,0.6,1,0.6
				c0.2,0,0.4,0,0.6-0.1C146.6,57.6,146.3,57.1,145.8,57.1z"/>
			<path class="st7" d="M147.8,59.6c0.1-0.3,0.1-0.8,0.1-1.1v-0.6c0-1-0.1-2.5-0.2-3.5c0.1-0.2-0.8-0.4-0.6-0.6h0.1
				c0.1,1.3,1.2,2.6,1.2,4c0,0.3,0,0.7-0.1,0.9C148.3,59,148.2,59.3,147.8,59.6L147.8,59.6z"/>
			<path class="st7" d="M151.8,59.7c-1.5,0-2.8-0.6-2.8-1.9c0-0.5,0.1-0.9,0.3-1.4l0.2,0.1c-0.1,0.3-0.1,0.6-0.1,0.8
				c0,1.1,1.1,1.6,2.5,1.6c0.6,0,1.3-0.1,1.9-0.2c0.3-0.1,0.5-0.1,0.8-0.2c0.1,0,0.1-0.1,0.1-0.1c0-0.3-0.3-0.8-0.6-1.4
				c0.1-0.2,0.3-0.5,0.4-0.6c0.3,0.5,0.6,1.2,0.6,1.7c0,0.4-0.1,0.7-0.3,0.9C154.3,59.3,152.9,59.7,151.8,59.7z M152,60.7
				c0.2,0.1,0.5,0.3,0.7,0.6c-0.1,0.2-0.3,0.4-0.5,0.6c-0.2-0.2-0.4-0.4-0.7-0.6C151.7,61.1,151.9,60.9,152,60.7z"/>
		</g>
		<g class="st9">
			<path class="st10" d="M939.5,183.4c-0.4,0-0.8-0.3-0.9-0.5c-0.3-0.5-0.1-1.2,0.4-1.6l4.3-2.5c0.5-0.3,1.2-0.1,1.6,0.4
				c0.3,0.5,0.1,1.2-0.4,1.6l-4.3,2.5C939.9,183.4,939.7,183.4,939.5,183.4z"/>
			<path class="st10" d="M921.2,214.3c-0.6,0-1.2-0.5-1.2-1.2v-13c0-4.8,2.5-9.3,6.6-11.6l4-2.3c0.5-0.3,1.2-0.1,1.6,0.4
				c0.3,0.5,0.1,1.2-0.4,1.6l-4,2.3c-3.4,2-5.6,5.7-5.4,9.7v13C922.2,213.8,921.8,214.3,921.2,214.3z"/>
			<path class="st10" d="M960.1,259.9c-2.3,0-4.7-0.7-6.6-1.8l-26.8-15.3c-4.1-2.3-6.6-6.8-6.7-11.6v-7.4c0-0.7,0.5-1.2,1-1.2
				c0.6,0,1,0.5,1,1v7.4c0,3.9,2.2,7.7,5.6,9.7l26.6,15.4c1.7,0.9,3.6,1.4,5.4,1.4c1.9,0,3.9-0.5,5.6-1.6l10.6-6.3
				c0.5-0.3,1.2-0.1,1.6,0.4c0.3,0.5,0.1,1.2-0.4,1.6l-10.6,6.3C964.6,259.2,962.3,259.9,960.1,259.9z"/>
			<path class="st10" d="M994,216.6c-0.6,0-1-0.5-1-1V200c0-2.3-1.3-4.4-3.2-5.6l-5.7-3.3c-0.5-0.3-0.6-1-0.4-1.6
				c0.3-0.5,1-0.7,1.6-0.4l5.7,3.3c2.7,1.6,4.4,4.4,4.4,7.6v15.5C995,216.2,994.6,216.6,994,216.6z"/>
			<path class="st10" d="M984.8,247.2c-0.4,0-0.6-0.1-0.9-0.5l-2.7-3.8c-0.1-0.3-0.3-0.5-0.1-0.9c0.1-0.3,0.3-0.5,0.5-0.8l8.1-4.8
				c1.9-1.2,3.2-3.3,3.2-5.6v-3.5c0-0.7,0.5-1.2,1-1.2c0.6,0,1,0.5,1,1v3.5c0,3.1-1.7,6-4.3,7.6l-7.1,4.2l1.4,2l7-4
				c3.4-2,5.6-5.7,5.4-9.7V200c0-3.9-2.2-7.7-5.6-9.7c-0.5-0.3-0.6-1-0.4-1.6c0.3-0.5,1-0.7,1.6-0.4c4.1,2.3,6.6,6.8,6.7,11.6
				l0.1,30.9c0,4.7-2.5,9.3-6.6,11.6l-7.9,4.6C985.2,247.2,984.9,247.2,984.8,247.2z"/>
			<path class="st10" d="M960,255.2c-1.6,0-3-0.4-4.3-1.2l-7.1-4c-0.5-0.3-0.6-1-0.4-1.6c0.3-0.5,1-0.7,1.6-0.4l7.1,4
				c1,0.5,2.1,0.9,3.2,0.9c1.2,0,2.2-0.3,3.2-0.9l14.7-8.6c0.5-0.3,1.2-0.1,1.6,0.4c0.3,0.5,0.1,1.2-0.4,1.6l-14.7,8.6
				C963.1,254.8,961.5,255.2,960,255.2z"/>
			<path class="st10" d="M939.1,244.3c-0.1,0-0.4,0-0.5-0.1l-9.6-5.5c-2.7-1.6-4.4-4.4-4.4-7.6v-21.5c0-0.7,0.5-1.2,1-1.2
				c0.6,0,1.2,0.5,1.2,1L927,231c0,2.3,1.3,4.4,3.2,5.6l9.6,5.5c0.5,0.3,0.6,1,0.4,1.6C939.9,244.1,939.5,244.3,939.1,244.3z"/>
			<path class="st10" d="M925.7,201.3c-0.6,0-1-0.5-1-1c0-3.1,1.7-6,4.3-7.6l12.2-7.2c0.5-0.3,1.2-0.1,1.6,0.4
				c0.3,0.5,0.1,1.2-0.4,1.6l-12.2,7.2c-1.9,1.2-3.2,3.3-3.2,5.6C926.9,200.8,926.3,201.3,925.7,201.3z"/>
			<path class="st10" d="M976.9,186.8c-0.1,0-0.4,0-0.5-0.1l-13.5-7.7c-1.9-1.2-4.5-1.2-6.5,0l-8.1,4.8c-0.5,0.3-1.2,0.1-1.6-0.4
				c-0.3-0.5-0.1-1.2,0.4-1.6l8.1-4.8c2.6-1.6,6-1.6,8.7,0l12.5,7.2l1.4-2l-12.7-7.3c-3.4-2-7.8-2-11.1,0l-5.2,3
				c-0.5,0.3-1.2,0.1-1.6-0.4c-0.3-0.5-0.1-1.2,0.4-1.6l5.2-3c4-2.3,9.3-2.3,13.3,0l13.8,8c0.3,0.1,0.5,0.4,0.5,0.8
				c0.1,0.3,0,0.7-0.1,0.9l-2.7,3.8C977.6,186.7,977.3,186.8,976.9,186.8z"/>
			<path class="st7" d="M980.5,202l1.3,0.8c0.6,0.4,1,0.1,1-0.4V201c0-0.8,0.1-0.9-0.6-1.4l-1.3-0.8c-0.8-0.4-1-0.1-1,0.4v1.3
				C980,201.4,979.9,201.4,980.5,202z"/>
			<path class="st7" d="M988.7,203.5l-3.5-2.2c-0.6-0.4-1-0.1-1,0.4v1.3c0,0.8-0.1,0.8,0.6,1.2l1.4,0.8c0.6,0.4,1,1,1,1.8v2.5
				c0,1.2,0,1.4,0.6,1.8c0,0,0.8,0.5,1,0.5c0.4,0.1,1,0,1-0.5v-5.9C989.8,204.4,989.6,203.9,988.7,203.5z"/>
			<path class="st7" d="M982.5,217c0,0,0.6,0.4,1.2,0.7c0.1,0.1,0.4,0.1,0.5,0.1c0.3,0,0.5-0.3,0.5-0.5v-8c0-0.9-0.3-1.3-1-1.8
				l-8.8-5.1c-0.3-0.1-0.6-0.3-0.9-0.3s-0.6,0.1-1,0.3l-7.6,5c-0.8,0.4-0.9,0.5-0.9,1c0,0,0,0.8,0,1.3c0,0.1,0,0.3,0.1,0.4
				c0.1,0.3,0.4,0.3,0.6,0.1l8-4.7c0.3-0.1,0.6-0.3,0.9-0.3c0.3,0,0.6,0.1,0.9,0.3l6.1,3.5c0.5,0.4,0.9,0.9,0.9,1.6v4.7
				C982,216.4,982,216.7,982.5,217z"/>
			<path class="st7" d="M979.9,227.3l-11.6-6.9c-0.3-0.1-0.5-0.3-0.9-0.3c-0.3,0-0.4,0-0.6,0.1c-0.5,0.1-1.4,0.9-1.4,0.9
				c-0.3,0.1-0.4,0.4-0.5,0.7c0,0.3,0.1,0.4,0.3,0.5l11.1,6.7c0.5,0.3,0.9,0.4,1.3,0.4c0.3,0,0.4,0,0.5-0.1c0,0,1.2-0.5,1.8-1
				c0.3-0.3,0.4-0.4,0.4-0.5C980.1,227.5,980,227.4,979.9,227.3z"/>
			<path class="st7" d="M984.7,222.6l-10.2-6c-0.3-0.1-0.5-0.3-0.9-0.3c-0.3,0-0.4,0-0.6,0.1c-0.5,0.1-1.4,0.8-1.4,0.9
				c-0.3,0.1-0.5,0.4-0.5,0.7c0,0.1,0.1,0.4,0.3,0.5l9.7,5.7c0.5,0.3,0.9,0.4,1.3,0.4c0.3,0,0.4,0,0.5-0.1c0,0,1.2-0.5,1.8-1
				c0.3-0.1,0.4-0.4,0.4-0.5C984.9,222.8,984.8,222.7,984.7,222.6z"/>
			<path class="st7" d="M938,202.7l1.2-0.7c0.6-0.4,0.5-0.5,0.6-1.3v-1.3c0-0.5-0.3-0.8-1-0.4l-1.2,0.7c-0.6,0.5-0.5,0.5-0.6,1.4
				v1.3C936.9,202.7,937.2,203,938,202.7z"/>
			<path class="st7" d="M935.7,203.1v-1.3c0-0.5-0.3-0.8-1-0.4l-3.6,2.1c-0.8,0.5-1,0.9-1,2v5.9c0,0.5,0.6,0.7,1,0.5
				c0.3-0.1,1-0.5,1-0.5c0.5-0.4,0.6-0.7,0.6-1.8v-0.1V207c0-0.8,0.4-1.4,1-1.8l1.4-0.8C935.7,203.9,935.5,203.9,935.7,203.1z"/>
			<path class="st7" d="M935,209.4v8c0,0.3,0.3,0.5,0.5,0.5c0.1,0,0.3,0,0.5-0.1c0.5-0.3,1.2-0.7,1.2-0.7c0.5-0.4,0.5-0.7,0.5-1.7
				v-4.7c0-0.7,0.4-1.3,0.9-1.6l6.1-3.5c0.3-0.1,0.6-0.3,0.9-0.3c0.3,0,0.6,0.1,0.9,0.3l8,4.7c0.3,0.1,0.5,0,0.6-0.1
				c0-0.1,0.1-0.3,0.1-0.4c0-0.5,0-1.3,0-1.3c0-0.5-0.3-0.7-0.9-1l-7.9-4.8c-0.4-0.3-0.6-0.3-1-0.3c-0.3,0-0.5,0.1-0.9,0.3l-8.8,5.1
				C935.3,208,935,208.5,935,209.4z"/>
			<path class="st7" d="M948.7,217.9c0-0.3-0.3-0.5-0.5-0.7c0,0-1-0.7-1.4-0.9c-0.3-0.1-0.5-0.1-0.6-0.1c-0.3,0-0.5,0.1-0.9,0.3
				l-10.2,6c-0.1,0.1-0.3,0.3-0.3,0.4c0,0.1,0.1,0.3,0.4,0.5c0.6,0.5,1.8,1,1.8,1c0.1,0.1,0.4,0.1,0.6,0.1c0.4,0,0.8-0.1,1.3-0.4
				l9.7-5.7C948.6,218.3,948.7,218.1,948.7,217.9z"/>
			<path class="st7" d="M954.9,221.8c0-0.3-0.1-0.5-0.5-0.7c0,0-1-0.7-1.4-0.9c-0.3-0.1-0.5-0.1-0.6-0.1c-0.3,0-0.5,0.1-0.9,0.3
				l-11.6,6.9c-0.1,0.1-0.3,0.3-0.3,0.4c0,0.1,0.1,0.3,0.4,0.5c0.6,0.5,1.8,1,1.8,1c0.1,0.1,0.4,0.1,0.6,0.1c0.4,0,0.8-0.1,1.3-0.4
				l11.1-6.7C954.9,222.2,955.1,221.9,954.9,221.8z"/>
			<path class="st7" d="M974.7,231.3l-13.3-7.7V219l11.8-6.8c0.5-0.3,1.2-0.3,1.6,0l2.7,1.6c0.8,0.4,1,0.1,1-0.4v-1.3
				c0-0.8,0.1-0.9-0.6-1.4c0,0-2.7-1.6-2.8-1.7c-0.5-0.3-1.2-0.5-2.1,0l-11.5,6.8v-10.3l11.8-6.8c0.5-0.3,1.2-0.3,1.6,0l2.7,1.6
				c0.8,0.4,1,0.1,1-0.4v-1.3c0-0.8,0.1-0.9-0.6-1.4c0,0-2.7-1.6-2.8-1.7c-0.5-0.3-1.2-0.5-2.1,0l-11.5,6.8V194
				c0-0.9-0.6-1.6-1.6-1.6c-0.9,0-1.6,0.7-1.6,1.6v8.2l-11.5-6.8c-0.9-0.4-1.6-0.3-2.1,0l-2.8,1.7c-0.6,0.5-0.5,0.5-0.6,1.4v1.3
				c0,0.5,0.3,0.8,1,0.4l2.7-1.6c0.5-0.3,1.2-0.3,1.6,0l11.8,6.8v10.3l-11.5-6.8c-0.9-0.4-1.6-0.3-2.1,0l-2.8,1.7
				c-0.6,0.5-0.5,0.5-0.6,1.4v1.3c0,0.5,0.3,0.8,1,0.4l2.7-1.6c0.5-0.3,1.2-0.3,1.6,0l11.8,6.8v4.6l-13.2,7.7
				c-0.1,0.1-0.3,0.3-0.3,0.4c0,0.1,0.1,0.3,0.4,0.5c0.6,0.5,1.8,1,1.8,1c0.1,0.1,0.4,0.1,0.6,0.1c0.4,0,0.8-0.1,1.3-0.4l9.6-5.6v18
				c0,0.9,0.6,1.6,1.6,1.6s1.6-0.7,1.6-1.6v-18l9.6,5.6c0.5,0.3,0.9,0.4,1.3,0.4c0.3,0,0.4,0,0.5-0.1c0,0,1.2-0.5,1.8-1
				c0.3-0.1,0.4-0.4,0.4-0.5C975,231.6,974.8,231.4,974.7,231.3z"/>
		</g>
		<path class="st11" d="M1409.5-99.3c9.3-5.4,20.7-5.4,30,0l115.1,66.4c9.3,5.4,15,15.3,15,26v132.9c0,10.7-5.7,20.6-15,26
			l-115.1,66.4c-9.3,5.4-20.7,5.4-30,0l-115.1-66.4c-9.3-5.4-15-15.3-15-26V-6.9c0-10.7,5.7-20.6,15-26L1409.5-99.3z"/>
		<path class="st12" d="M1859.8,674.1c9.1-5.3,20.4-5.3,29.5,0l115.1,66.4c9.1,5.3,14.8,15,14.8,25.5v132.9
			c0,10.5-5.6,20.3-14.8,25.5l-115.1,66.4c-9.1,5.3-20.4,5.3-29.5,0l-115.1-66.4c-9.1-5.3-14.8-15-14.8-25.5V766.1
			c0-10.5,5.6-20.3,14.8-25.5L1859.8,674.1z"/>
		<path class="st13" d="M722.8,222.1c9.1-5.3,20.4-5.3,29.5,0l59.6,34.4c9.1,5.3,14.8,15,14.8,25.5v68.9c0,10.5-5.6,20.3-14.8,25.5
			l-59.6,34.4c-9.1,5.3-20.4,5.3-29.5,0l-59.6-34.4c-9.1-5.3-14.8-15-14.8-25.5v-68.9c0-10.5,5.6-20.3,14.8-25.5L722.8,222.1z"/>
		<path class="st11" d="M63,427.3c18.6-10.7,41.4-10.7,60,0l144.4,83.4c18.6,10.7,30,30.5,30,52v166.7c0,21.4-11.4,41.2-30,52
			L123,864.7c-18.6,10.7-41.4,10.7-60,0l-144.4-83.4c-18.6-10.7-30-30.5-30-52V562.6c0-21.4,11.4-41.2,30-52L63,427.3z"/>
		<g class="st14">
			<path class="st15" d="M1437,699c-1,0-2,1-2,2s1,2,2,2s2-1,2-2S1438,699,1437,699z"/>
			<path class="st15" d="M1402,699c-1,0-2,1-2,2s1,2,2,2s2-1,2-2S1403,699,1402,699z"/>
			<path class="st15" d="M1472,699c-1,0-2,1-2,2s1,2,2,2s2-1,2-2S1473,699,1472,699z"/>
			<path class="st15" d="M1507,699c-1,0-2,1-2,2s1,2,2,2s2-1,2-2S1508,699,1507,699z"/>
			<path class="st15" d="M1542,699c-1,0-2,1-2,2s1,2,2,2s2-1,2-2S1543,699,1542,699z"/>
			<path class="st15" d="M1577,699c-1,0-2,1-2,2s1,2,2,2s2-1,2-2S1578,699,1577,699z"/>
			<path class="st15" d="M1612,699c-1,0-2,1-2,2s1,2,2,2s2-1,2-2S1613,699,1612,699z"/>
			<path class="st15" d="M1647,699c-1,0-2,1-2,2s1,2,2,2s2-1,2-2S1648,699,1647,699z"/>
			<path class="st15" d="M1682,699c-1,0-2,1-2,2s1,2,2,2s2-1,2-2S1683,699,1682,699z"/>
			<path class="st15" d="M1402,419c-1,0-2,1-2,2s1,2,2,2s2-1,2-2S1403,419,1402,419z"/>
			<path class="st15" d="M1402,454c-1,0-2,1-2,2s1,2,2,2s2-1,2-2S1403,454,1402,454z"/>
			<path class="st15" d="M1402,489c-1,0-2,1-2,2s1,2,2,2s2-1,2-2S1403,489,1402,489z"/>
			<path class="st15" d="M1402,524c-1,0-2,1-2,2s1,2,2,2s2-1,2-2S1403,524,1402,524z"/>
			<path class="st15" d="M1402,559c-1,0-2,1-2,2s1,2,2,2s2-1,2-2S1403,559,1402,559z"/>
			<path class="st15" d="M1402,594c-1,0-2,1-2,2s1,2,2,2s2-1,2-2S1403,594,1402,594z"/>
			<path class="st15" d="M1402,629c-1,0-2,1-2,2s1,2,2,2s2-1,2-2S1403,629,1402,629z"/>
			<path class="st15" d="M1402,664c-1,0-2,1-2,2s1,2,2,2s2-1,2-2S1403,664,1402,664z"/>
			<path class="st15" d="M1437,419c-1,0-2,1-2,2s1,2,2,2s2-1,2-2S1438,419,1437,419z"/>
			<path class="st15" d="M1437,454c-1,0-2,1-2,2s1,2,2,2s2-1,2-2S1438,454,1437,454z"/>
			<path class="st15" d="M1437,489c-1,0-2,1-2,2s1,2,2,2s2-1,2-2S1438,489,1437,489z"/>
			<path class="st15" d="M1437,524c-1,0-2,1-2,2s1,2,2,2s2-1,2-2S1438,524,1437,524z"/>
			<path class="st15" d="M1437,559c-1,0-2,1-2,2s1,2,2,2s2-1,2-2S1438,559,1437,559z"/>
			<path class="st15" d="M1437,594c-1,0-2,1-2,2s1,2,2,2s2-1,2-2S1438,594,1437,594z"/>
			<path class="st15" d="M1437,629c-1,0-2,1-2,2s1,2,2,2s2-1,2-2S1438,629,1437,629z"/>
			<path class="st15" d="M1437,664c-1,0-2,1-2,2s1,2,2,2s2-1,2-2S1438,664,1437,664z"/>
			<path class="st15" d="M1472,419c-1,0-2,1-2,2s1,2,2,2s2-1,2-2S1473,419,1472,419z"/>
			<path class="st15" d="M1472,454c-1,0-2,1-2,2s1,2,2,2s2-1,2-2S1473,454,1472,454z"/>
			<path class="st15" d="M1472,489c-1,0-2,1-2,2s1,2,2,2s2-1,2-2S1473,489,1472,489z"/>
			<path class="st15" d="M1472,524c-1,0-2,1-2,2s1,2,2,2s2-1,2-2S1473,524,1472,524z"/>
			<path class="st15" d="M1472,559c-1,0-2,1-2,2s1,2,2,2s2-1,2-2S1473,559,1472,559z"/>
			<path class="st15" d="M1472,594c-1,0-2,1-2,2s1,2,2,2s2-1,2-2S1473,594,1472,594z"/>
			<path class="st15" d="M1472,629c-1,0-2,1-2,2s1,2,2,2s2-1,2-2S1473,629,1472,629z"/>
			<path class="st15" d="M1472,664c-1,0-2,1-2,2s1,2,2,2s2-1,2-2S1473,664,1472,664z"/>
			<path class="st15" d="M1507,419c-1,0-2,1-2,2s1,2,2,2s2-1,2-2S1508,419,1507,419z"/>
			<path class="st15" d="M1507,454c-1,0-2,1-2,2s1,2,2,2s2-1,2-2S1508,454,1507,454z"/>
			<path class="st15" d="M1507,489c-1,0-2,1-2,2s1,2,2,2s2-1,2-2S1508,489,1507,489z"/>
			<path class="st15" d="M1507,524c-1,0-2,1-2,2s1,2,2,2s2-1,2-2S1508,524,1507,524z"/>
			<path class="st15" d="M1507,559c-1,0-2,1-2,2s1,2,2,2s2-1,2-2S1508,559,1507,559z"/>
			<path class="st15" d="M1507,594c-1,0-2,1-2,2s1,2,2,2s2-1,2-2S1508,594,1507,594z"/>
			<path class="st15" d="M1507,629c-1,0-2,1-2,2s1,2,2,2s2-1,2-2S1508,629,1507,629z"/>
			<path class="st15" d="M1507,664c-1,0-2,1-2,2s1,2,2,2s2-1,2-2S1508,664,1507,664z"/>
			<path class="st15" d="M1542,419c-1,0-2,1-2,2s1,2,2,2s2-1,2-2S1543,419,1542,419z"/>
			<path class="st15" d="M1542,454c-1,0-2,1-2,2s1,2,2,2s2-1,2-2S1543,454,1542,454z"/>
			<path class="st15" d="M1542,489c-1,0-2,1-2,2s1,2,2,2s2-1,2-2S1543,489,1542,489z"/>
			<path class="st15" d="M1542,524c-1,0-2,1-2,2s1,2,2,2s2-1,2-2S1543,524,1542,524z"/>
			<path class="st15" d="M1542,559c-1,0-2,1-2,2s1,2,2,2s2-1,2-2S1543,559,1542,559z"/>
			<path class="st15" d="M1542,594c-1,0-2,1-2,2s1,2,2,2s2-1,2-2S1543,594,1542,594z"/>
			<path class="st15" d="M1542,629c-1,0-2,1-2,2s1,2,2,2s2-1,2-2S1543,629,1542,629z"/>
			<path class="st15" d="M1542,664c-1,0-2,1-2,2s1,2,2,2s2-1,2-2S1543,664,1542,664z"/>
			<path class="st15" d="M1577,419c-1,0-2,1-2,2s1,2,2,2s2-1,2-2S1578,419,1577,419z"/>
			<path class="st15" d="M1577,454c-1,0-2,1-2,2s1,2,2,2s2-1,2-2S1578,454,1577,454z"/>
			<path class="st15" d="M1577,489c-1,0-2,1-2,2s1,2,2,2s2-1,2-2S1578,489,1577,489z"/>
			<path class="st15" d="M1577,524c-1,0-2,1-2,2s1,2,2,2s2-1,2-2S1578,524,1577,524z"/>
			<path class="st15" d="M1577,559c-1,0-2,1-2,2s1,2,2,2s2-1,2-2S1578,559,1577,559z"/>
			<path class="st15" d="M1577,594c-1,0-2,1-2,2s1,2,2,2s2-1,2-2S1578,594,1577,594z"/>
			<path class="st15" d="M1577,629c-1,0-2,1-2,2s1,2,2,2s2-1,2-2S1578,629,1577,629z"/>
			<path class="st15" d="M1577,664c-1,0-2,1-2,2s1,2,2,2s2-1,2-2S1578,664,1577,664z"/>
			<path class="st15" d="M1612,419c-1,0-2,1-2,2s1,2,2,2s2-1,2-2S1613,419,1612,419z"/>
			<path class="st15" d="M1612,454c-1,0-2,1-2,2s1,2,2,2s2-1,2-2S1613,454,1612,454z"/>
			<path class="st15" d="M1612,489c-1,0-2,1-2,2s1,2,2,2s2-1,2-2S1613,489,1612,489z"/>
			<path class="st15" d="M1612,524c-1,0-2,1-2,2s1,2,2,2s2-1,2-2S1613,524,1612,524z"/>
			<path class="st15" d="M1612,559c-1,0-2,1-2,2s1,2,2,2s2-1,2-2S1613,559,1612,559z"/>
			<path class="st15" d="M1612,594c-1,0-2,1-2,2s1,2,2,2s2-1,2-2S1613,594,1612,594z"/>
			<path class="st15" d="M1612,629c-1,0-2,1-2,2s1,2,2,2s2-1,2-2S1613,629,1612,629z"/>
			<path class="st15" d="M1612,664c-1,0-2,1-2,2s1,2,2,2s2-1,2-2S1613,664,1612,664z"/>
			<path class="st15" d="M1647,419c-1,0-2,1-2,2s1,2,2,2s2-1,2-2S1648,419,1647,419z"/>
			<path class="st15" d="M1647,454c-1,0-2,1-2,2s1,2,2,2s2-1,2-2S1648,454,1647,454z"/>
			<path class="st15" d="M1647,489c-1,0-2,1-2,2s1,2,2,2s2-1,2-2S1648,489,1647,489z"/>
			<path class="st15" d="M1647,524c-1,0-2,1-2,2s1,2,2,2s2-1,2-2S1648,524,1647,524z"/>
			<path class="st15" d="M1647,559c-1,0-2,1-2,2s1,2,2,2s2-1,2-2S1648,559,1647,559z"/>
			<path class="st15" d="M1647,594c-1,0-2,1-2,2s1,2,2,2s2-1,2-2S1648,594,1647,594z"/>
			<path class="st15" d="M1647,629c-1,0-2,1-2,2s1,2,2,2s2-1,2-2S1648,629,1647,629z"/>
			<path class="st15" d="M1647,664c-1,0-2,1-2,2s1,2,2,2s2-1,2-2S1648,664,1647,664z"/>
			<path class="st15" d="M1682,423c1,0,2-1,2-2s-1-2-2-2s-2,1-2,2S1681,423,1682,423z"/>
			<path class="st15" d="M1682,454c-1,0-2,1-2,2s1,2,2,2s2-1,2-2S1683,454,1682,454z"/>
			<path class="st15" d="M1682,489c-1,0-2,1-2,2s1,2,2,2s2-1,2-2S1683,489,1682,489z"/>
			<path class="st15" d="M1682,524c-1,0-2,1-2,2s1,2,2,2s2-1,2-2S1683,524,1682,524z"/>
			<path class="st15" d="M1682,559c-1,0-2,1-2,2s1,2,2,2s2-1,2-2S1683,559,1682,559z"/>
			<path class="st15" d="M1682,594c-1,0-2,1-2,2s1,2,2,2s2-1,2-2S1683,594,1682,594z"/>
			<path class="st15" d="M1682,629c-1,0-2,1-2,2s1,2,2,2s2-1,2-2S1683,629,1682,629z"/>
			<path class="st15" d="M1682,664c-1,0-2,1-2,2s1,2,2,2s2-1,2-2S1683,664,1682,664z"/>
		</g>
		<g class="st14">
			<path class="st15" d="M265,1016c-1,0-2,1-2,2s1,2,2,2s2-1,2-2S266,1016,265,1016z"/>
			<path class="st15" d="M230,1016c-1,0-2,1-2,2s1,2,2,2s2-1,2-2S231,1016,230,1016z"/>
			<path class="st15" d="M300,1016c-1,0-2,1-2,2s1,2,2,2s2-1,2-2S301,1016,300,1016z"/>
			<path class="st15" d="M335,1016c-1,0-2,1-2,2s1,2,2,2s2-1,2-2S336,1016,335,1016z"/>
			<path class="st15" d="M370,1016c-1,0-2,1-2,2s1,2,2,2s2-1,2-2S371,1016,370,1016z"/>
			<path class="st15" d="M405,1016c-1,0-2,1-2,2s1,2,2,2s2-1,2-2S406,1016,405,1016z"/>
			<path class="st15" d="M440,1016c-1,0-2,1-2,2s1,2,2,2s2-1,2-2S441,1016,440,1016z"/>
			<path class="st15" d="M475,1016c-1,0-2,1-2,2s1,2,2,2s2-1,2-2S476,1016,475,1016z"/>
			<path class="st15" d="M510,1016c-1,0-2,1-2,2s1,2,2,2s2-1,2-2S511,1016,510,1016z"/>
			<path class="st15" d="M230,736c-1,0-2,1-2,2s1,2,2,2s2-1,2-2S231,736,230,736z"/>
			<path class="st15" d="M230,771c-1,0-2,1-2,2s1,2,2,2s2-1,2-2S231,771,230,771z"/>
			<path class="st15" d="M230,806c-1,0-2,1-2,2s1,2,2,2s2-1,2-2S231,806,230,806z"/>
			<path class="st15" d="M230,841c-1,0-2,1-2,2s1,2,2,2s2-1,2-2S231,841,230,841z"/>
			<path class="st15" d="M230,876c-1,0-2,1-2,2s1,2,2,2s2-1,2-2S231,876,230,876z"/>
			<path class="st15" d="M230,911c-1,0-2,1-2,2s1,2,2,2s2-1,2-2S231,911,230,911z"/>
			<path class="st15" d="M230,946c-1,0-2,1-2,2s1,2,2,2s2-1,2-2S231,946,230,946z"/>
			<path class="st15" d="M230,981c-1,0-2,1-2,2s1,2,2,2s2-1,2-2S231,981,230,981z"/>
			<path class="st15" d="M265,736c-1,0-2,1-2,2s1,2,2,2s2-1,2-2S266,736,265,736z"/>
			<path class="st15" d="M265,771c-1,0-2,1-2,2s1,2,2,2s2-1,2-2S266,771,265,771z"/>
			<path class="st15" d="M265,806c-1,0-2,1-2,2s1,2,2,2s2-1,2-2S266,806,265,806z"/>
			<path class="st15" d="M265,841c-1,0-2,1-2,2s1,2,2,2s2-1,2-2S266,841,265,841z"/>
			<path class="st15" d="M265,876c-1,0-2,1-2,2s1,2,2,2s2-1,2-2S266,876,265,876z"/>
			<path class="st15" d="M265,911c-1,0-2,1-2,2s1,2,2,2s2-1,2-2S266,911,265,911z"/>
			<path class="st15" d="M265,946c-1,0-2,1-2,2s1,2,2,2s2-1,2-2S266,946,265,946z"/>
			<path class="st15" d="M265,981c-1,0-2,1-2,2s1,2,2,2s2-1,2-2S266,981,265,981z"/>
			<path class="st15" d="M300,736c-1,0-2,1-2,2s1,2,2,2s2-1,2-2S301,736,300,736z"/>
			<path class="st15" d="M300,771c-1,0-2,1-2,2s1,2,2,2s2-1,2-2S301,771,300,771z"/>
			<path class="st15" d="M300,806c-1,0-2,1-2,2s1,2,2,2s2-1,2-2S301,806,300,806z"/>
			<path class="st15" d="M300,841c-1,0-2,1-2,2s1,2,2,2s2-1,2-2S301,841,300,841z"/>
			<path class="st15" d="M300,876c-1,0-2,1-2,2s1,2,2,2s2-1,2-2S301,876,300,876z"/>
			<path class="st15" d="M300,911c-1,0-2,1-2,2s1,2,2,2s2-1,2-2S301,911,300,911z"/>
			<path class="st15" d="M300,946c-1,0-2,1-2,2s1,2,2,2s2-1,2-2S301,946,300,946z"/>
			<path class="st15" d="M300,981c-1,0-2,1-2,2s1,2,2,2s2-1,2-2S301,981,300,981z"/>
			<path class="st15" d="M335,736c-1,0-2,1-2,2s1,2,2,2s2-1,2-2S336,736,335,736z"/>
			<path class="st15" d="M335,771c-1,0-2,1-2,2s1,2,2,2s2-1,2-2S336,771,335,771z"/>
			<path class="st15" d="M335,806c-1,0-2,1-2,2s1,2,2,2s2-1,2-2S336,806,335,806z"/>
			<path class="st15" d="M335,841c-1,0-2,1-2,2s1,2,2,2s2-1,2-2S336,841,335,841z"/>
			<path class="st15" d="M335,876c-1,0-2,1-2,2s1,2,2,2s2-1,2-2S336,876,335,876z"/>
			<path class="st15" d="M335,911c-1,0-2,1-2,2s1,2,2,2s2-1,2-2S336,911,335,911z"/>
			<path class="st15" d="M335,946c-1,0-2,1-2,2s1,2,2,2s2-1,2-2S336,946,335,946z"/>
			<path class="st15" d="M335,981c-1,0-2,1-2,2s1,2,2,2s2-1,2-2S336,981,335,981z"/>
			<path class="st15" d="M370,736c-1,0-2,1-2,2s1,2,2,2s2-1,2-2S371,736,370,736z"/>
			<path class="st15" d="M370,771c-1,0-2,1-2,2s1,2,2,2s2-1,2-2S371,771,370,771z"/>
			<path class="st15" d="M370,806c-1,0-2,1-2,2s1,2,2,2s2-1,2-2S371,806,370,806z"/>
			<path class="st15" d="M370,841c-1,0-2,1-2,2s1,2,2,2s2-1,2-2S371,841,370,841z"/>
			<path class="st15" d="M370,876c-1,0-2,1-2,2s1,2,2,2s2-1,2-2S371,876,370,876z"/>
			<path class="st15" d="M370,911c-1,0-2,1-2,2s1,2,2,2s2-1,2-2S371,911,370,911z"/>
			<path class="st15" d="M370,946c-1,0-2,1-2,2s1,2,2,2s2-1,2-2S371,946,370,946z"/>
			<path class="st15" d="M370,981c-1,0-2,1-2,2s1,2,2,2s2-1,2-2S371,981,370,981z"/>
			<path class="st15" d="M405,736c-1,0-2,1-2,2s1,2,2,2s2-1,2-2S406,736,405,736z"/>
			<path class="st15" d="M405,771c-1,0-2,1-2,2s1,2,2,2s2-1,2-2S406,771,405,771z"/>
			<path class="st15" d="M405,806c-1,0-2,1-2,2s1,2,2,2s2-1,2-2S406,806,405,806z"/>
			<path class="st15" d="M405,841c-1,0-2,1-2,2s1,2,2,2s2-1,2-2S406,841,405,841z"/>
			<path class="st15" d="M405,876c-1,0-2,1-2,2s1,2,2,2s2-1,2-2S406,876,405,876z"/>
			<path class="st15" d="M405,911c-1,0-2,1-2,2s1,2,2,2s2-1,2-2S406,911,405,911z"/>
			<path class="st15" d="M405,946c-1,0-2,1-2,2s1,2,2,2s2-1,2-2S406,946,405,946z"/>
			<path class="st15" d="M405,981c-1,0-2,1-2,2s1,2,2,2s2-1,2-2S406,981,405,981z"/>
			<path class="st15" d="M440,736c-1,0-2,1-2,2s1,2,2,2s2-1,2-2S441,736,440,736z"/>
			<path class="st15" d="M440,771c-1,0-2,1-2,2s1,2,2,2s2-1,2-2S441,771,440,771z"/>
			<path class="st15" d="M440,806c-1,0-2,1-2,2s1,2,2,2s2-1,2-2S441,806,440,806z"/>
			<path class="st15" d="M440,841c-1,0-2,1-2,2s1,2,2,2s2-1,2-2S441,841,440,841z"/>
			<path class="st15" d="M440,876c-1,0-2,1-2,2s1,2,2,2s2-1,2-2S441,876,440,876z"/>
			<path class="st15" d="M440,911c-1,0-2,1-2,2s1,2,2,2s2-1,2-2S441,911,440,911z"/>
			<path class="st15" d="M440,946c-1,0-2,1-2,2s1,2,2,2s2-1,2-2S441,946,440,946z"/>
			<path class="st15" d="M440,981c-1,0-2,1-2,2s1,2,2,2s2-1,2-2S441,981,440,981z"/>
			<path class="st15" d="M475,736c-1,0-2,1-2,2s1,2,2,2s2-1,2-2S476,736,475,736z"/>
			<path class="st15" d="M475,771c-1,0-2,1-2,2s1,2,2,2s2-1,2-2S476,771,475,771z"/>
			<path class="st15" d="M475,806c-1,0-2,1-2,2s1,2,2,2s2-1,2-2S476,806,475,806z"/>
			<path class="st15" d="M475,841c-1,0-2,1-2,2s1,2,2,2s2-1,2-2S476,841,475,841z"/>
			<path class="st15" d="M475,876c-1,0-2,1-2,2s1,2,2,2s2-1,2-2S476,876,475,876z"/>
			<path class="st15" d="M475,911c-1,0-2,1-2,2s1,2,2,2s2-1,2-2S476,911,475,911z"/>
			<path class="st15" d="M475,946c-1,0-2,1-2,2s1,2,2,2s2-1,2-2S476,946,475,946z"/>
			<path class="st15" d="M475,981c-1,0-2,1-2,2s1,2,2,2s2-1,2-2S476,981,475,981z"/>
			<path class="st15" d="M510,740c1,0,2-1,2-2s-1-2-2-2s-2,1-2,2S509,740,510,740z"/>
			<path class="st15" d="M510,771c-1,0-2,1-2,2s1,2,2,2s2-1,2-2S511,771,510,771z"/>
			<path class="st15" d="M510,806c-1,0-2,1-2,2s1,2,2,2s2-1,2-2S511,806,510,806z"/>
			<path class="st15" d="M510,841c-1,0-2,1-2,2s1,2,2,2s2-1,2-2S511,841,510,841z"/>
			<path class="st15" d="M510,876c-1,0-2,1-2,2s1,2,2,2s2-1,2-2S511,876,510,876z"/>
			<path class="st15" d="M510,911c-1,0-2,1-2,2s1,2,2,2s2-1,2-2S511,911,510,911z"/>
			<path class="st15" d="M510,946c-1,0-2,1-2,2s1,2,2,2s2-1,2-2S511,946,510,946z"/>
			<path class="st15" d="M510,981c-1,0-2,1-2,2s1,2,2,2s2-1,2-2S511,981,510,981z"/>
		</g>
		<g class="st4">
			<g class="st16">
				<path class="st17" d="M764,321h392c13.3,0,24,10.7,24,24v350c0,13.3-10.7,24-24,24H764c-13.3,0-24-10.7-24-24V345
					C740,331.7,750.7,321,764,321z"/>
			</g>
			<g class="st16">
				<path class="st18" d="M782,623h356c6.6,0,12,5.4,12,12v32c0,6.6-5.4,12-12,12H782c-6.6,0-12-5.4-12-12v-32
					C770,628.4,775.4,623,782,623z"/>
				<path class="st19" d="M908.4,656.4c-1.4,0-2.6-0.5-3.4-1.5c-0.8-1-1.2-2.4-1.2-4.3s0.4-3.3,1.2-4.3c0.8-1,1.9-1.5,3.4-1.5
					c0.9,0,1.7,0.2,2.4,0.6c0.7,0.4,1.2,1,1.5,1.8l-1.3,0.7c-0.2-0.6-0.5-1-1-1.3c-0.4-0.3-1-0.5-1.6-0.5c-0.9,0-1.6,0.3-2.2,0.9
					c-0.5,0.6-0.8,1.5-0.8,2.6v1.7c0,1.1,0.3,2,0.8,2.6c0.5,0.6,1.2,0.9,2.2,0.9c0.7,0,1.3-0.2,1.7-0.5c0.5-0.4,0.8-0.8,1-1.4
					l1.2,0.8c-0.4,0.8-0.9,1.4-1.6,1.9C910.1,656.2,909.3,656.4,908.4,656.4z M917.7,656.4c-0.6,0-1.1-0.1-1.6-0.3
					c-0.5-0.2-0.9-0.5-1.2-0.9c-0.3-0.4-0.6-0.8-0.8-1.4c-0.2-0.5-0.3-1.1-0.3-1.8s0.1-1.3,0.3-1.8c0.2-0.5,0.4-1,0.8-1.4
					c0.3-0.4,0.7-0.7,1.2-0.9c0.5-0.2,1-0.3,1.6-0.3s1.1,0.1,1.5,0.3c0.5,0.2,0.9,0.5,1.2,0.9c0.3,0.4,0.6,0.8,0.8,1.4
					c0.2,0.5,0.3,1.1,0.3,1.8s-0.1,1.3-0.3,1.8c-0.2,0.5-0.4,1-0.8,1.4c-0.3,0.4-0.7,0.7-1.2,0.9
					C918.8,656.3,918.3,656.4,917.7,656.4z M917.7,655.2c0.7,0,1.2-0.2,1.6-0.6c0.4-0.4,0.6-1,0.6-1.8v-1.2c0-0.8-0.2-1.4-0.6-1.8
					c-0.4-0.4-0.9-0.6-1.6-0.6s-1.2,0.2-1.6,0.6c-0.4,0.4-0.6,1-0.6,1.8v1.2c0,0.8,0.2,1.4,0.6,1.8
					C916.5,655,917.1,655.2,917.7,655.2z M923.8,656.3V648h1.5v1.4h0.1c0.2-0.5,0.5-0.8,0.8-1.1c0.4-0.3,0.9-0.4,1.5-0.4
					c0.9,0,1.5,0.3,2,0.8c0.5,0.6,0.7,1.3,0.7,2.4v5.3H929v-5.1c0-1.4-0.6-2.1-1.7-2.1c-0.2,0-0.5,0-0.7,0.1
					c-0.2,0.1-0.4,0.2-0.6,0.3c-0.2,0.1-0.3,0.3-0.4,0.5c-0.1,0.2-0.2,0.4-0.2,0.7v5.7H923.8z M933.3,656.3V648h1.5v1.4h0.1
					c0.2-0.5,0.5-0.8,0.8-1.1c0.4-0.3,0.9-0.4,1.5-0.4c0.9,0,1.5,0.3,2,0.8c0.5,0.6,0.7,1.3,0.7,2.4v5.3h-1.5v-5.1
					c0-1.4-0.6-2.1-1.7-2.1c-0.2,0-0.5,0-0.7,0.1c-0.2,0.1-0.4,0.2-0.6,0.3c-0.2,0.1-0.3,0.3-0.4,0.5c-0.1,0.2-0.2,0.4-0.2,0.7v5.7
					H933.3z M946,656.4c-0.6,0-1.1-0.1-1.6-0.3c-0.5-0.2-0.9-0.5-1.2-0.9c-0.3-0.4-0.6-0.8-0.8-1.4c-0.2-0.5-0.3-1.1-0.3-1.8
					c0-0.7,0.1-1.2,0.3-1.8c0.2-0.5,0.4-1,0.8-1.4c0.3-0.4,0.7-0.7,1.2-0.9c0.5-0.2,1-0.3,1.6-0.3s1.1,0.1,1.5,0.3
					c0.5,0.2,0.8,0.5,1.2,0.8c0.3,0.4,0.5,0.8,0.7,1.3c0.2,0.5,0.2,1,0.2,1.6v0.6h-5.8v0.3c0,0.7,0.2,1.3,0.6,1.7
					c0.4,0.4,1,0.7,1.7,0.7c0.5,0,1-0.1,1.3-0.4c0.4-0.2,0.7-0.6,0.9-1l1,0.8c-0.3,0.5-0.7,1-1.3,1.3
					C947.5,656.3,946.8,656.4,946,656.4z M946,649c-0.3,0-0.6,0.1-0.9,0.2c-0.3,0.1-0.5,0.3-0.7,0.5c-0.2,0.2-0.3,0.4-0.4,0.7
					c-0.1,0.3-0.2,0.6-0.2,0.9v0.1h4.3v-0.2c0-0.7-0.2-1.2-0.6-1.7C947.1,649.2,946.6,649,946,649z M955.1,656.4
					c-0.6,0-1.1-0.1-1.6-0.3c-0.5-0.2-0.8-0.5-1.2-0.9s-0.6-0.8-0.7-1.4c-0.2-0.5-0.2-1.1-0.2-1.8s0.1-1.3,0.2-1.8
					c0.2-0.5,0.4-1,0.7-1.4c0.3-0.4,0.7-0.7,1.2-0.9c0.5-0.2,1-0.3,1.6-0.3c0.8,0,1.5,0.2,2,0.5c0.5,0.4,0.9,0.8,1.1,1.4l-1.2,0.6
					c-0.1-0.4-0.4-0.7-0.7-1c-0.3-0.2-0.7-0.4-1.2-0.4c-0.7,0-1.3,0.2-1.6,0.7c-0.4,0.4-0.5,1-0.5,1.7v1.4c0,0.7,0.2,1.2,0.5,1.7
					c0.4,0.4,0.9,0.7,1.6,0.7c0.5,0,0.9-0.1,1.3-0.4c0.3-0.2,0.6-0.6,0.8-1l1.1,0.7c-0.3,0.6-0.7,1.1-1.2,1.5
					C956.6,656.3,955.9,656.4,955.1,656.4z M962.4,656.3c-0.5,0-0.9-0.1-1.2-0.4c-0.3-0.3-0.4-0.7-0.4-1.2v-5.5h-1.3V648h0.7
					c0.3,0,0.5-0.1,0.6-0.2c0.1-0.1,0.2-0.3,0.2-0.6v-1.5h1.3v2.3h1.8v1.3h-1.8v5.8h1.6v1.3H962.4z M972.2,656.3l-2.7-11.2h1.6
					l1.2,5.4l0.9,4h0l1-4l1.4-5.4h1.7l1.3,5.4l1,4h0l0.9-4l1.2-5.4h1.6l-2.8,11.2h-1.7l-1.5-5.7l-0.9-3.8h0l-1,3.8l-1.5,5.7H972.2z
					 M991.2,656.3c-0.5,0-0.8-0.1-1-0.4c-0.2-0.3-0.4-0.6-0.4-1h-0.1c-0.2,0.5-0.5,0.9-0.9,1.2c-0.4,0.3-0.9,0.4-1.5,0.4
					c-0.9,0-1.5-0.2-2-0.7c-0.5-0.4-0.7-1.1-0.7-1.8c0-0.8,0.3-1.4,0.9-1.8c0.6-0.4,1.5-0.6,2.7-0.6h1.6v-0.8c0-0.6-0.1-1-0.4-1.3
					c-0.3-0.3-0.8-0.4-1.4-0.4c-0.5,0-0.9,0.1-1.2,0.3c-0.3,0.2-0.6,0.5-0.8,0.8l-0.9-0.8c0.2-0.4,0.6-0.8,1.1-1.1
					c0.5-0.3,1.1-0.5,1.9-0.5c1,0,1.8,0.3,2.4,0.8c0.6,0.5,0.8,1.2,0.8,2.1v4.4h0.9v1.3H991.2z M987.6,655.2c0.6,0,1.1-0.1,1.5-0.4
					c0.4-0.3,0.6-0.6,0.6-1v-1.3H988c-0.7,0-1.2,0.1-1.5,0.3c-0.3,0.2-0.5,0.5-0.5,0.9v0.3c0,0.4,0.1,0.7,0.4,0.9
					C986.7,655.1,987.1,655.2,987.6,655.2z M995.7,656.3c-0.5,0-0.9-0.1-1.2-0.4c-0.3-0.3-0.4-0.6-0.4-1.1v-10.3h1.5V655h1.2v1.3
					H995.7z M1000.3,656.3c-0.5,0-0.9-0.1-1.2-0.4c-0.3-0.3-0.4-0.6-0.4-1.1v-10.3h1.5V655h1.2v1.3H1000.3z M1006.7,656.4
					c-0.6,0-1.1-0.1-1.6-0.3c-0.4-0.2-0.8-0.5-1.2-0.9c-0.3-0.4-0.6-0.8-0.8-1.4c-0.2-0.5-0.3-1.1-0.3-1.8c0-0.7,0.1-1.2,0.3-1.8
					c0.2-0.5,0.4-1,0.8-1.4c0.3-0.4,0.7-0.7,1.2-0.9c0.5-0.2,1-0.3,1.6-0.3c0.6,0,1.1,0.1,1.5,0.3c0.5,0.2,0.8,0.5,1.1,0.8
					c0.3,0.4,0.5,0.8,0.7,1.3c0.2,0.5,0.2,1,0.2,1.6v0.6h-5.8v0.3c0,0.7,0.2,1.3,0.6,1.7c0.4,0.4,1,0.7,1.7,0.7c0.5,0,1-0.1,1.3-0.4
					c0.4-0.2,0.7-0.6,0.9-1l1,0.8c-0.3,0.5-0.7,1-1.3,1.3C1008.2,656.3,1007.5,656.4,1006.7,656.4z M1006.7,649
					c-0.3,0-0.6,0.1-0.9,0.2c-0.3,0.1-0.5,0.3-0.7,0.5c-0.2,0.2-0.3,0.4-0.5,0.7c-0.1,0.3-0.2,0.6-0.2,0.9v0.1h4.3v-0.2
					c0-0.7-0.2-1.2-0.6-1.7C1007.9,649.2,1007.4,649,1006.7,649z M1014.7,656.3c-0.5,0-0.9-0.1-1.2-0.4c-0.3-0.3-0.4-0.7-0.4-1.2
					v-5.5h-1.3V648h0.7c0.3,0,0.5-0.1,0.6-0.2c0.1-0.1,0.2-0.3,0.2-0.6v-1.5h1.3v2.3h1.8v1.3h-1.8v5.8h1.7v1.3H1014.7z"/>
			</g>
			<path class="st20" d="M778,415.5h364c4.1,0,7.5,3.4,7.5,7.5v56c0,4.1-3.4,7.5-7.5,7.5H778c-4.1,0-7.5-3.4-7.5-7.5v-56
				C770.5,418.9,773.9,415.5,778,415.5z"/>
			<path class="st21" d="M787.5,468v-1.5h3.4v-9.7h-0.1l-3,3l-1-1l3.3-3.3h2.7v11h3.2v1.5H787.5z M802.6,468.2c-0.8,0-1.4-0.1-2-0.4
				c-0.6-0.3-1-0.7-1.4-1.3s-0.6-1.2-0.8-2c-0.2-0.8-0.3-1.7-0.3-2.8c0-1,0.1-1.9,0.3-2.7c0.2-0.8,0.5-1.5,0.8-2.1s0.8-1,1.4-1.3
				c0.6-0.3,1.2-0.5,2-0.5c1.5,0,2.6,0.6,3.3,1.7c0.7,1.1,1.1,2.7,1.1,4.8s-0.4,3.6-1.1,4.8C805.2,467.6,804.1,468.2,802.6,468.2z
				 M802.6,466.7c0.5,0,0.9-0.1,1.2-0.3c0.3-0.2,0.6-0.5,0.8-0.8c0.2-0.3,0.4-0.8,0.4-1.2c0.1-0.5,0.1-1,0.1-1.6v-2.1
				c0-0.6,0-1.1-0.1-1.6c-0.1-0.5-0.2-0.9-0.4-1.2c-0.2-0.3-0.5-0.6-0.8-0.8c-0.3-0.2-0.7-0.3-1.2-0.3c-0.5,0-0.9,0.1-1.2,0.3
				c-0.3,0.2-0.6,0.5-0.8,0.8c-0.2,0.3-0.4,0.7-0.5,1.2c-0.1,0.5-0.1,1-0.1,1.6v2.1c0,0.6,0,1.1,0.1,1.6c0.1,0.5,0.2,0.9,0.5,1.2
				c0.2,0.3,0.5,0.6,0.8,0.8C801.7,466.6,802.1,466.7,802.6,466.7z M813.7,468.2c-0.8,0-1.4-0.1-2-0.4c-0.6-0.3-1-0.7-1.4-1.3
				c-0.4-0.6-0.6-1.2-0.8-2c-0.2-0.8-0.3-1.7-0.3-2.8c0-1,0.1-1.9,0.3-2.7c0.2-0.8,0.4-1.5,0.8-2.1c0.4-0.6,0.8-1,1.4-1.3
				c0.6-0.3,1.2-0.5,2-0.5c1.5,0,2.6,0.6,3.3,1.7c0.7,1.1,1.1,2.7,1.1,4.8s-0.4,3.6-1.1,4.8C816.3,467.6,815.2,468.2,813.7,468.2z
				 M813.7,466.7c0.5,0,0.9-0.1,1.2-0.3c0.3-0.2,0.6-0.5,0.8-0.8c0.2-0.3,0.4-0.8,0.5-1.2c0.1-0.5,0.1-1,0.1-1.6v-2.1
				c0-0.6,0-1.1-0.1-1.6c-0.1-0.5-0.2-0.9-0.5-1.2c-0.2-0.3-0.5-0.6-0.8-0.8c-0.3-0.2-0.7-0.3-1.2-0.3s-0.9,0.1-1.2,0.3
				c-0.3,0.2-0.6,0.5-0.8,0.8c-0.2,0.3-0.4,0.7-0.5,1.2c-0.1,0.5-0.1,1-0.1,1.6v2.1c0,0.6,0,1.1,0.1,1.6c0.1,0.5,0.2,0.9,0.5,1.2
				c0.2,0.3,0.5,0.6,0.8,0.8C812.8,466.6,813.2,466.7,813.7,466.7z M824.9,468.2c-0.8,0-1.4-0.1-2-0.4c-0.6-0.3-1-0.7-1.4-1.3
				c-0.4-0.6-0.6-1.2-0.8-2c-0.2-0.8-0.3-1.7-0.3-2.8c0-1,0.1-1.9,0.3-2.7c0.2-0.8,0.5-1.5,0.8-2.1c0.4-0.6,0.8-1,1.4-1.3
				c0.6-0.3,1.2-0.5,2-0.5c1.5,0,2.6,0.6,3.3,1.7c0.7,1.1,1.1,2.7,1.1,4.8s-0.4,3.6-1.1,4.8C827.5,467.6,826.4,468.2,824.9,468.2z
				 M824.9,466.7c0.5,0,0.9-0.1,1.2-0.3c0.3-0.2,0.6-0.5,0.8-0.8c0.2-0.3,0.4-0.8,0.5-1.2c0.1-0.5,0.1-1,0.1-1.6v-2.1
				c0-0.6,0-1.1-0.1-1.6c-0.1-0.5-0.2-0.9-0.5-1.2c-0.2-0.3-0.5-0.6-0.8-0.8c-0.3-0.2-0.7-0.3-1.2-0.3s-0.9,0.1-1.2,0.3
				c-0.3,0.2-0.6,0.5-0.8,0.8c-0.2,0.3-0.4,0.7-0.5,1.2c-0.1,0.5-0.1,1-0.1,1.6v2.1c0,0.6,0,1.1,0.1,1.6c0.1,0.5,0.2,0.9,0.5,1.2
				c0.2,0.3,0.5,0.6,0.8,0.8C824,466.6,824.4,466.7,824.9,466.7z M833.1,468.2c-0.4,0-0.7-0.1-0.9-0.3c-0.2-0.2-0.3-0.5-0.3-0.8
				v-0.3c0-0.3,0.1-0.6,0.3-0.8c0.2-0.2,0.5-0.3,0.9-0.3c0.4,0,0.7,0.1,0.9,0.3c0.2,0.2,0.3,0.5,0.3,0.8v0.3c0,0.3-0.1,0.6-0.3,0.8
				C833.8,468.1,833.5,468.2,833.1,468.2z M841.4,468.2c-0.8,0-1.4-0.1-2-0.4c-0.6-0.3-1-0.7-1.4-1.3s-0.6-1.2-0.8-2
				c-0.2-0.8-0.3-1.7-0.3-2.8c0-1,0.1-1.9,0.3-2.7c0.2-0.8,0.5-1.5,0.8-2.1s0.8-1,1.4-1.3c0.6-0.3,1.2-0.5,2-0.5
				c1.5,0,2.6,0.6,3.3,1.7c0.7,1.1,1.1,2.7,1.1,4.8s-0.4,3.6-1.1,4.8C844,467.6,842.9,468.2,841.4,468.2z M841.4,466.7
				c0.5,0,0.9-0.1,1.2-0.3c0.3-0.2,0.6-0.5,0.8-0.8c0.2-0.3,0.4-0.8,0.5-1.2c0.1-0.5,0.1-1,0.1-1.6v-2.1c0-0.6,0-1.1-0.1-1.6
				c-0.1-0.5-0.2-0.9-0.5-1.2c-0.2-0.3-0.5-0.6-0.8-0.8c-0.3-0.2-0.7-0.3-1.2-0.3c-0.5,0-0.9,0.1-1.2,0.3c-0.3,0.2-0.6,0.5-0.8,0.8
				c-0.2,0.3-0.4,0.7-0.4,1.2c-0.1,0.5-0.1,1-0.1,1.6v2.1c0,0.6,0,1.1,0.1,1.6c0.1,0.5,0.2,0.9,0.4,1.2c0.2,0.3,0.5,0.6,0.8,0.8
				C840.5,466.6,840.9,466.7,841.4,466.7z M852.5,468.2c-0.8,0-1.4-0.1-2-0.4c-0.6-0.3-1-0.7-1.4-1.3s-0.6-1.2-0.8-2
				c-0.2-0.8-0.3-1.7-0.3-2.8c0-1,0.1-1.9,0.3-2.7c0.2-0.8,0.5-1.5,0.8-2.1s0.8-1,1.4-1.3c0.6-0.3,1.2-0.5,2-0.5
				c1.5,0,2.6,0.6,3.3,1.7c0.7,1.1,1.1,2.7,1.1,4.8s-0.4,3.6-1.1,4.8C855.2,467.6,854.1,468.2,852.5,468.2z M852.5,466.7
				c0.5,0,0.9-0.1,1.2-0.3c0.3-0.2,0.6-0.5,0.8-0.8c0.2-0.3,0.4-0.8,0.4-1.2c0.1-0.5,0.1-1,0.1-1.6v-2.1c0-0.6,0-1.1-0.1-1.6
				c-0.1-0.5-0.2-0.9-0.4-1.2c-0.2-0.3-0.5-0.6-0.8-0.8c-0.3-0.2-0.7-0.3-1.2-0.3c-0.5,0-0.9,0.1-1.2,0.3c-0.3,0.2-0.6,0.5-0.8,0.8
				c-0.2,0.3-0.4,0.7-0.5,1.2c-0.1,0.5-0.1,1-0.1,1.6v2.1c0,0.6,0,1.1,0.1,1.6c0.1,0.5,0.2,0.9,0.5,1.2c0.2,0.3,0.5,0.6,0.8,0.8
				C851.7,466.6,852.1,466.7,852.5,466.7z"/>
			<path class="st22" d="M791.7,436.2h-3.6v3.8H787v-8.5h5.3v0.9h-4.2v2.9h3.6V436.2z M796.6,434.6c-0.2,0-0.3,0-0.5,0
				c-0.7,0-1.2,0.3-1.4,0.9v4.5h-1.1v-6.3h1.1l0,0.7c0.4-0.6,0.9-0.9,1.5-0.9c0.2,0,0.4,0,0.5,0.1V434.6z M797.4,436.8
				c0-0.6,0.1-1.2,0.4-1.7c0.2-0.5,0.6-0.9,1-1.1c0.4-0.3,0.9-0.4,1.5-0.4c0.9,0,1.6,0.3,2.1,0.9c0.5,0.6,0.8,1.4,0.8,2.4v0.1
				c0,0.6-0.1,1.2-0.4,1.7c-0.2,0.5-0.6,0.9-1,1.1c-0.4,0.3-0.9,0.4-1.5,0.4c-0.9,0-1.6-0.3-2.1-0.9
				C797.7,438.6,797.4,437.8,797.4,436.8L797.4,436.8z M798.5,436.9c0,0.7,0.2,1.3,0.5,1.7c0.3,0.4,0.8,0.6,1.3,0.6
				c0.6,0,1-0.2,1.3-0.6c0.3-0.4,0.5-1,0.5-1.8c0-0.7-0.2-1.3-0.5-1.7c-0.3-0.4-0.8-0.7-1.3-0.7c-0.5,0-1,0.2-1.3,0.6
				S798.5,436.1,798.5,436.9z M805.8,433.7l0,0.7c0.5-0.5,1.1-0.8,1.9-0.8c0.9,0,1.5,0.3,1.8,1c0.2-0.3,0.5-0.6,0.8-0.7
				c0.3-0.2,0.7-0.3,1.2-0.3c1.4,0,2.1,0.7,2.1,2.2v4.2h-1.1v-4.2c0-0.5-0.1-0.8-0.3-1c-0.2-0.2-0.6-0.3-1-0.3c-0.4,0-0.7,0.1-1,0.4
				c-0.3,0.2-0.4,0.6-0.5,1v4.2h-1.1v-4.2c0-0.9-0.5-1.4-1.4-1.4c-0.7,0-1.2,0.3-1.5,0.9v4.6h-1.1v-6.3H805.8z"/>
			<path class="st23" d="M1029,436h107c3.3,0,6,2.7,6,6v20c0,3.3-2.7,6-6,6h-107c-3.3,0-6-2.7-6-6v-20
				C1023,438.7,1025.7,436,1029,436z"/>
			<path class="st24" d="M1041,464c6.6,0,12-5.4,12-12s-5.4-12-12-12s-12,5.4-12,12S1034.4,464,1041,464z"/>
			<path class="st25" d="M1042.3,453.1c-0.1,0-0.5,0-1.5,0c-0.8,0-1.3,0-1.5,0c-2.9-0.1-5.1-0.6-5.1-1.2c0-0.6,2.2-1.1,5.1-1.3v2
				c0.2,0,0.7,0,1.5,0c0.9,0,1.4,0,1.4,0v-2c2.9,0.1,5.1,0.6,5.1,1.3C1047.4,452.5,1045.2,453,1042.3,453.1z M1042.3,450.4v-1.8h4.1
				v-2.7h-11.1v2.7h4.1v1.8c-3.3,0.2-5.8,0.8-5.8,1.6s2.5,1.4,5.8,1.6v5.7h3v-5.7c3.3-0.2,5.8-0.8,5.8-1.6
				C1048.1,451.2,1045.6,450.6,1042.3,450.4z"/>
			<path class="st26" d="M1064.3,446.4v7.8c0,0.6,0,1.1,0.1,1.5c0.1,0.4,0.3,0.8,0.5,1.1c0.2,0.3,0.5,0.5,0.9,0.6
				c0.4,0.1,0.8,0.2,1.3,0.2c1,0,1.8-0.3,2.2-0.9c0.4-0.6,0.7-1.5,0.7-2.6v-7.8h1.8v7.4c0,0.9-0.1,1.7-0.3,2.4
				c-0.2,0.7-0.4,1.2-0.8,1.7c-0.4,0.4-0.8,0.8-1.4,1c-0.6,0.2-1.3,0.3-2.2,0.3c-0.8,0-1.6-0.1-2.2-0.3c-0.6-0.2-1-0.5-1.4-1
				c-0.3-0.4-0.6-1-0.8-1.7c-0.2-0.7-0.2-1.5-0.2-2.4v-7.4H1064.3z M1078.9,459.2c-1,0-1.9-0.2-2.7-0.6c-0.7-0.4-1.3-0.9-1.8-1.6
				l1.2-1.1c0.4,0.6,0.9,1,1.5,1.3c0.5,0.3,1.2,0.4,1.9,0.4c0.9,0,1.5-0.2,2-0.6c0.4-0.4,0.7-0.9,0.7-1.6c0-0.6-0.2-1-0.5-1.3
				c-0.3-0.3-0.9-0.6-1.7-0.7l-1.1-0.2c-1.2-0.2-2.1-0.6-2.7-1.2c-0.6-0.6-0.9-1.3-0.9-2.3c0-0.6,0.1-1,0.3-1.5
				c0.2-0.4,0.5-0.8,0.9-1.1c0.4-0.3,0.8-0.5,1.3-0.7c0.5-0.2,1.1-0.2,1.8-0.2c0.9,0,1.8,0.2,2.4,0.5c0.7,0.3,1.3,0.8,1.8,1.5
				l-1.3,1c-0.3-0.5-0.8-0.8-1.2-1.1c-0.5-0.3-1.1-0.4-1.8-0.4c-0.8,0-1.4,0.2-1.8,0.5s-0.7,0.8-0.7,1.4c0,0.6,0.2,1,0.5,1.3
				c0.4,0.3,0.9,0.5,1.7,0.7l1.1,0.2c1.2,0.3,2.1,0.7,2.7,1.3c0.6,0.6,0.9,1.3,0.9,2.3c0,0.6-0.1,1.1-0.3,1.6
				c-0.2,0.5-0.5,0.9-0.9,1.2s-0.8,0.6-1.4,0.8C1080.2,459.1,1079.6,459.2,1078.9,459.2z M1086.2,446.4h4.3c0.8,0,1.5,0.1,2.2,0.4
				c0.7,0.3,1.2,0.7,1.7,1.2c0.5,0.5,0.8,1.2,1,2c0.3,0.8,0.4,1.7,0.4,2.7c0,1-0.1,2-0.4,2.8c-0.2,0.8-0.6,1.4-1,2
				c-0.5,0.5-1,0.9-1.7,1.2c-0.6,0.3-1.4,0.4-2.2,0.4h-4.3V446.4z M1090.5,457.5c0.5,0,1-0.1,1.4-0.2c0.4-0.2,0.8-0.4,1.1-0.7
				c0.3-0.3,0.5-0.7,0.7-1.2c0.2-0.5,0.3-1,0.3-1.6v-2c0-0.6-0.1-1.1-0.3-1.6c-0.2-0.5-0.4-0.9-0.7-1.2c-0.3-0.3-0.7-0.6-1.1-0.7
				c-0.4-0.2-0.9-0.3-1.4-0.3h-2.6v9.5H1090.5z M1102.7,448v11h-1.7v-11h-3.9v-1.5h9.5v1.5H1102.7z"/>
			<path class="st27" d="M1119.4,449l4.6,4.3l4.6-4.3l1.4,1.3l-6,5.7l-6-5.7L1119.4,449z"/>
			<path class="st20" d="M778,519.5h364c4.1,0,7.5,3.4,7.5,7.5v56c0,4.1-3.4,7.5-7.5,7.5H778c-4.1,0-7.5-3.4-7.5-7.5v-56
				C770.5,522.9,773.9,519.5,778,519.5z"/>
			<path class="st21" d="M787.5,572v-1.5h3.4v-9.7h-0.1l-3,3l-1-1l3.3-3.3h2.7v11h3.2v1.5H787.5z M802.6,572.2c-0.8,0-1.4-0.1-2-0.4
				c-0.6-0.3-1-0.7-1.4-1.3s-0.6-1.2-0.8-2c-0.2-0.8-0.3-1.7-0.3-2.8c0-1,0.1-1.9,0.3-2.7c0.2-0.8,0.5-1.5,0.8-2.1s0.8-1,1.4-1.3
				c0.6-0.3,1.2-0.5,2-0.5c1.5,0,2.6,0.6,3.3,1.7c0.7,1.1,1.1,2.7,1.1,4.8s-0.4,3.6-1.1,4.8C805.2,571.6,804.1,572.2,802.6,572.2z
				 M802.6,570.7c0.5,0,0.9-0.1,1.2-0.3c0.3-0.2,0.6-0.5,0.8-0.8c0.2-0.3,0.4-0.8,0.4-1.2c0.1-0.5,0.1-1,0.1-1.6v-2.1
				c0-0.6,0-1.1-0.1-1.6c-0.1-0.5-0.2-0.9-0.4-1.2c-0.2-0.3-0.5-0.6-0.8-0.8c-0.3-0.2-0.7-0.3-1.2-0.3c-0.5,0-0.9,0.1-1.2,0.3
				c-0.3,0.2-0.6,0.5-0.8,0.8c-0.2,0.3-0.4,0.7-0.5,1.2c-0.1,0.5-0.1,1-0.1,1.6v2.1c0,0.6,0,1.1,0.1,1.6c0.1,0.5,0.2,0.9,0.5,1.2
				c0.2,0.3,0.5,0.6,0.8,0.8C801.7,570.6,802.1,570.7,802.6,570.7z M813.7,572.2c-0.8,0-1.4-0.1-2-0.4c-0.6-0.3-1-0.7-1.4-1.3
				c-0.4-0.6-0.6-1.2-0.8-2c-0.2-0.8-0.3-1.7-0.3-2.8c0-1,0.1-1.9,0.3-2.7c0.2-0.8,0.4-1.5,0.8-2.1c0.4-0.6,0.8-1,1.4-1.3
				c0.6-0.3,1.2-0.5,2-0.5c1.5,0,2.6,0.6,3.3,1.7c0.7,1.1,1.1,2.7,1.1,4.8s-0.4,3.6-1.1,4.8C816.3,571.6,815.2,572.2,813.7,572.2z
				 M813.7,570.7c0.5,0,0.9-0.1,1.2-0.3c0.3-0.2,0.6-0.5,0.8-0.8c0.2-0.3,0.4-0.8,0.5-1.2c0.1-0.5,0.1-1,0.1-1.6v-2.1
				c0-0.6,0-1.1-0.1-1.6c-0.1-0.5-0.2-0.9-0.5-1.2c-0.2-0.3-0.5-0.6-0.8-0.8c-0.3-0.2-0.7-0.3-1.2-0.3s-0.9,0.1-1.2,0.3
				c-0.3,0.2-0.6,0.5-0.8,0.8c-0.2,0.3-0.4,0.7-0.5,1.2c-0.1,0.5-0.1,1-0.1,1.6v2.1c0,0.6,0,1.1,0.1,1.6c0.1,0.5,0.2,0.9,0.5,1.2
				c0.2,0.3,0.5,0.6,0.8,0.8C812.8,570.6,813.2,570.7,813.7,570.7z M824.9,572.2c-0.8,0-1.4-0.1-2-0.4c-0.6-0.3-1-0.7-1.4-1.3
				c-0.4-0.6-0.6-1.2-0.8-2c-0.2-0.8-0.3-1.7-0.3-2.8c0-1,0.1-1.9,0.3-2.7c0.2-0.8,0.5-1.5,0.8-2.1c0.4-0.6,0.8-1,1.4-1.3
				c0.6-0.3,1.2-0.5,2-0.5c1.5,0,2.6,0.6,3.3,1.7c0.7,1.1,1.1,2.7,1.1,4.8s-0.4,3.6-1.1,4.8C827.5,571.6,826.4,572.2,824.9,572.2z
				 M824.9,570.7c0.5,0,0.9-0.1,1.2-0.3c0.3-0.2,0.6-0.5,0.8-0.8c0.2-0.3,0.4-0.8,0.5-1.2c0.1-0.5,0.1-1,0.1-1.6v-2.1
				c0-0.6,0-1.1-0.1-1.6c-0.1-0.5-0.2-0.9-0.5-1.2c-0.2-0.3-0.5-0.6-0.8-0.8c-0.3-0.2-0.7-0.3-1.2-0.3s-0.9,0.1-1.2,0.3
				c-0.3,0.2-0.6,0.5-0.8,0.8c-0.2,0.3-0.4,0.7-0.5,1.2c-0.1,0.5-0.1,1-0.1,1.6v2.1c0,0.6,0,1.1,0.1,1.6c0.1,0.5,0.2,0.9,0.5,1.2
				c0.2,0.3,0.5,0.6,0.8,0.8C824,570.6,824.4,570.7,824.9,570.7z M833.1,572.2c-0.4,0-0.7-0.1-0.9-0.3c-0.2-0.2-0.3-0.5-0.3-0.8
				v-0.3c0-0.3,0.1-0.6,0.3-0.8c0.2-0.2,0.5-0.3,0.9-0.3c0.4,0,0.7,0.1,0.9,0.3c0.2,0.2,0.3,0.5,0.3,0.8v0.3c0,0.3-0.1,0.6-0.3,0.8
				C833.8,572.1,833.5,572.2,833.1,572.2z M841.4,572.2c-0.8,0-1.4-0.1-2-0.4c-0.6-0.3-1-0.7-1.4-1.3s-0.6-1.2-0.8-2
				c-0.2-0.8-0.3-1.7-0.3-2.8c0-1,0.1-1.9,0.3-2.7c0.2-0.8,0.5-1.5,0.8-2.1s0.8-1,1.4-1.3c0.6-0.3,1.2-0.5,2-0.5
				c1.5,0,2.6,0.6,3.3,1.7c0.7,1.1,1.1,2.7,1.1,4.8s-0.4,3.6-1.1,4.8C844,571.6,842.9,572.2,841.4,572.2z M841.4,570.7
				c0.5,0,0.9-0.1,1.2-0.3c0.3-0.2,0.6-0.5,0.8-0.8c0.2-0.3,0.4-0.8,0.5-1.2c0.1-0.5,0.1-1,0.1-1.6v-2.1c0-0.6,0-1.1-0.1-1.6
				c-0.1-0.5-0.2-0.9-0.5-1.2c-0.2-0.3-0.5-0.6-0.8-0.8c-0.3-0.2-0.7-0.3-1.2-0.3c-0.5,0-0.9,0.1-1.2,0.3c-0.3,0.2-0.6,0.5-0.8,0.8
				c-0.2,0.3-0.4,0.7-0.4,1.2c-0.1,0.5-0.1,1-0.1,1.6v2.1c0,0.6,0,1.1,0.1,1.6c0.1,0.5,0.2,0.9,0.4,1.2c0.2,0.3,0.5,0.6,0.8,0.8
				C840.5,570.6,840.9,570.7,841.4,570.7z M852.5,572.2c-0.8,0-1.4-0.1-2-0.4c-0.6-0.3-1-0.7-1.4-1.3s-0.6-1.2-0.8-2
				c-0.2-0.8-0.3-1.7-0.3-2.8c0-1,0.1-1.9,0.3-2.7c0.2-0.8,0.5-1.5,0.8-2.1s0.8-1,1.4-1.3c0.6-0.3,1.2-0.5,2-0.5
				c1.5,0,2.6,0.6,3.3,1.7c0.7,1.1,1.1,2.7,1.1,4.8s-0.4,3.6-1.1,4.8C855.2,571.6,854.1,572.2,852.5,572.2z M852.5,570.7
				c0.5,0,0.9-0.1,1.2-0.3c0.3-0.2,0.6-0.5,0.8-0.8c0.2-0.3,0.4-0.8,0.4-1.2c0.1-0.5,0.1-1,0.1-1.6v-2.1c0-0.6,0-1.1-0.1-1.6
				c-0.1-0.5-0.2-0.9-0.4-1.2c-0.2-0.3-0.5-0.6-0.8-0.8c-0.3-0.2-0.7-0.3-1.2-0.3c-0.5,0-0.9,0.1-1.2,0.3c-0.3,0.2-0.6,0.5-0.8,0.8
				c-0.2,0.3-0.4,0.7-0.5,1.2c-0.1,0.5-0.1,1-0.1,1.6v2.1c0,0.6,0,1.1,0.1,1.6c0.1,0.5,0.2,0.9,0.5,1.2c0.2,0.3,0.5,0.6,0.8,0.8
				C851.7,570.6,852.1,570.7,852.5,570.7z"/>
			<path class="st22" d="M792.9,536.4h-2.7v7.6H789v-7.6h-2.7v-0.9h6.6V536.4z M793.3,540.8c0-0.6,0.1-1.2,0.4-1.7
				c0.2-0.5,0.6-0.9,1-1.1c0.4-0.3,0.9-0.4,1.5-0.4c0.9,0,1.6,0.3,2.1,0.9c0.5,0.6,0.8,1.4,0.8,2.4v0.1c0,0.6-0.1,1.2-0.4,1.7
				c-0.2,0.5-0.6,0.9-1,1.1c-0.4,0.3-0.9,0.4-1.5,0.4c-0.9,0-1.6-0.3-2.1-0.9C793.6,542.6,793.3,541.8,793.3,540.8L793.3,540.8z
				 M794.4,540.9c0,0.7,0.2,1.3,0.5,1.7c0.3,0.4,0.8,0.6,1.3,0.6c0.6,0,1-0.2,1.3-0.6c0.3-0.4,0.5-1,0.5-1.8c0-0.7-0.2-1.3-0.5-1.7
				c-0.3-0.4-0.8-0.6-1.3-0.6c-0.5,0-1,0.2-1.3,0.6C794.6,539.5,794.4,540.1,794.4,540.9z M803.9,540.5c0-0.9,0.1-1.7,0.4-2.5
				c0.2-0.8,0.6-1.6,1.1-2.2c0.5-0.7,1-1.1,1.5-1.4l0.2,0.7c-0.6,0.4-1,1.1-1.4,2c-0.4,0.9-0.6,1.9-0.6,3l0,0.5
				c0,1.5,0.3,2.8,0.8,3.9c0.3,0.7,0.7,1.2,1.2,1.6l-0.2,0.7c-0.5-0.3-1-0.8-1.5-1.5C804.4,544,803.9,542.4,803.9,540.5z
				 M810.9,544.1c-0.9,0-1.6-0.3-2.1-0.8c-0.5-0.6-0.8-1.3-0.8-2.3v-0.2c0-0.6,0.1-1.2,0.4-1.7c0.2-0.5,0.6-0.9,1-1.2
				c0.4-0.3,0.9-0.4,1.4-0.4c0.8,0,1.5,0.3,1.9,0.8c0.5,0.5,0.7,1.3,0.7,2.3v0.5h-4.3c0,0.6,0.2,1.1,0.5,1.5
				c0.4,0.4,0.8,0.6,1.3,0.6c0.4,0,0.7-0.1,1-0.2c0.3-0.2,0.5-0.4,0.7-0.6l0.7,0.5C812.8,543.7,812,544.1,810.9,544.1z M810.8,538.4
				c-0.4,0-0.8,0.2-1.1,0.5c-0.3,0.3-0.5,0.8-0.6,1.3h3.2v-0.1c0-0.6-0.2-1-0.4-1.3C811.6,538.6,811.2,538.4,810.8,538.4z
				 M818.6,542.3c0-0.3-0.1-0.5-0.3-0.7c-0.2-0.2-0.6-0.3-1.2-0.4c-0.5-0.1-1-0.3-1.3-0.4c-0.3-0.2-0.6-0.4-0.7-0.6
				c-0.2-0.2-0.2-0.5-0.2-0.8c0-0.5,0.2-1,0.7-1.3c0.4-0.4,1-0.5,1.7-0.5c0.7,0,1.3,0.2,1.7,0.6c0.4,0.4,0.7,0.8,0.7,1.4h-1.1
				c0-0.3-0.1-0.6-0.4-0.8c-0.3-0.2-0.6-0.3-0.9-0.3c-0.4,0-0.7,0.1-0.9,0.3c-0.2,0.2-0.3,0.4-0.3,0.7c0,0.3,0.1,0.5,0.3,0.6
				c0.2,0.1,0.6,0.3,1.1,0.4c0.5,0.1,1,0.3,1.3,0.4c0.3,0.2,0.6,0.4,0.7,0.6c0.2,0.2,0.2,0.5,0.2,0.9c0,0.6-0.2,1-0.7,1.4
				c-0.5,0.3-1,0.5-1.8,0.5c-0.5,0-1-0.1-1.3-0.3c-0.4-0.2-0.7-0.4-0.9-0.8c-0.2-0.3-0.3-0.7-0.3-1h1.1c0,0.4,0.2,0.7,0.4,0.9
				c0.3,0.2,0.6,0.3,1.1,0.3c0.4,0,0.7-0.1,1-0.2C818.4,542.8,818.6,542.6,818.6,542.3z M822.8,536.1v1.5h1.2v0.8h-1.2v3.9
				c0,0.3,0.1,0.4,0.2,0.6c0.1,0.1,0.3,0.2,0.5,0.2c0.1,0,0.3,0,0.5-0.1v0.9c-0.3,0.1-0.6,0.1-0.8,0.1c-0.5,0-0.8-0.1-1.1-0.4
				c-0.2-0.3-0.4-0.7-0.4-1.2v-3.9h-1.2v-0.8h1.2v-1.5H822.8z M826.7,544h-1.1v-6.3h1.1V544z M825.5,536c0-0.2,0.1-0.3,0.2-0.4
				c0.1-0.1,0.3-0.2,0.5-0.2c0.2,0,0.4,0.1,0.5,0.2c0.1,0.1,0.2,0.3,0.2,0.4c0,0.2-0.1,0.3-0.2,0.4c-0.1,0.1-0.3,0.2-0.5,0.2
				c-0.2,0-0.4-0.1-0.5-0.2C825.5,536.3,825.5,536.2,825.5,536z M829.7,537.7l0,0.7c0.5-0.5,1.1-0.8,1.9-0.8c0.9,0,1.5,0.3,1.8,1
				c0.2-0.3,0.5-0.5,0.8-0.7c0.3-0.2,0.7-0.3,1.2-0.3c1.4,0,2.1,0.7,2.1,2.2v4.2h-1.1v-4.2c0-0.5-0.1-0.8-0.3-1
				c-0.2-0.2-0.6-0.3-1-0.3c-0.4,0-0.7,0.1-1,0.4c-0.3,0.2-0.4,0.6-0.5,1v4.2h-1.1v-4.2c0-0.9-0.5-1.4-1.4-1.4
				c-0.7,0-1.2,0.3-1.5,0.9v4.6h-1.1v-6.3H829.7z M843.3,544c-0.1-0.1-0.1-0.3-0.2-0.7c-0.5,0.5-1.1,0.8-1.8,0.8
				c-0.6,0-1.1-0.2-1.5-0.5c-0.4-0.4-0.6-0.8-0.6-1.3c0-0.7,0.3-1.2,0.8-1.5c0.5-0.4,1.2-0.6,2.1-0.6h1.1v-0.5
				c0-0.4-0.1-0.7-0.3-0.9c-0.2-0.2-0.6-0.3-1-0.3c-0.4,0-0.7,0.1-1,0.3c-0.3,0.2-0.4,0.4-0.4,0.7h-1.1c0-0.3,0.1-0.6,0.3-0.9
				c0.2-0.3,0.5-0.5,0.9-0.7c0.4-0.2,0.8-0.3,1.3-0.3c0.7,0,1.3,0.2,1.7,0.6c0.4,0.4,0.6,0.9,0.6,1.5v2.9c0,0.6,0.1,1,0.2,1.4v0.1
				H843.3z M841.5,543.2c0.3,0,0.7-0.1,1-0.3c0.3-0.2,0.5-0.4,0.7-0.7v-1.3h-0.8c-1.3,0-2,0.4-2,1.2c0,0.3,0.1,0.6,0.3,0.8
				C840.9,543.1,841.2,543.2,841.5,543.2z M847.6,536.1v1.5h1.2v0.8h-1.2v3.9c0,0.3,0.1,0.4,0.2,0.6c0.1,0.1,0.3,0.2,0.5,0.2
				c0.1,0,0.3,0,0.5-0.1v0.9c-0.3,0.1-0.6,0.1-0.8,0.1c-0.5,0-0.8-0.1-1.1-0.4c-0.2-0.3-0.4-0.7-0.4-1.2v-3.9h-1.2v-0.8h1.2v-1.5
				H847.6z M853,544.1c-0.9,0-1.6-0.3-2.1-0.8c-0.5-0.6-0.8-1.3-0.8-2.3v-0.2c0-0.6,0.1-1.2,0.4-1.7c0.2-0.5,0.6-0.9,1-1.2
				c0.4-0.3,0.9-0.4,1.4-0.4c0.8,0,1.5,0.3,1.9,0.8c0.5,0.5,0.7,1.3,0.7,2.3v0.5h-4.3c0,0.6,0.2,1.1,0.5,1.5
				c0.4,0.4,0.8,0.6,1.3,0.6c0.4,0,0.7-0.1,1-0.2c0.3-0.2,0.5-0.4,0.7-0.6l0.7,0.5C854.8,543.7,854,544.1,853,544.1z M852.8,538.4
				c-0.4,0-0.8,0.2-1.1,0.5c-0.3,0.3-0.5,0.8-0.6,1.3h3.2v-0.1c0-0.6-0.2-1-0.4-1.3C853.6,538.6,853.3,538.4,852.8,538.4z
				 M856.7,540.8c0-1,0.2-1.8,0.7-2.3c0.5-0.6,1.1-0.9,1.8-0.9c0.7,0,1.3,0.3,1.8,0.8V535h1.1v9h-1l-0.1-0.7c-0.4,0.5-1,0.8-1.8,0.8
				c-0.7,0-1.3-0.3-1.8-0.9C856.9,542.6,856.7,541.8,856.7,540.8L856.7,540.8z M857.8,540.9c0,0.7,0.1,1.3,0.4,1.7
				c0.3,0.4,0.7,0.6,1.2,0.6c0.7,0,1.2-0.3,1.5-0.9v-2.9c-0.3-0.6-0.8-0.9-1.5-0.9c-0.5,0-0.9,0.2-1.2,0.6
				C857.9,539.5,857.8,540.1,857.8,540.9z M866.4,540.6c0,0.9-0.1,1.7-0.3,2.5c-0.2,0.8-0.6,1.5-1,2.2c-0.5,0.7-1,1.2-1.5,1.4
				l-0.2-0.7c0.6-0.5,1.1-1.2,1.4-2.1c0.4-1,0.6-2.1,0.6-3.2v-0.2c0-0.8-0.1-1.6-0.3-2.3c-0.2-0.7-0.4-1.3-0.7-1.9
				c-0.3-0.6-0.6-1-1-1.3l0.2-0.7c0.5,0.3,1,0.8,1.5,1.4c0.5,0.7,0.8,1.4,1,2.2C866.3,538.8,866.4,539.7,866.4,540.6z"/>
			<path class="st21" d="M927.6,381v-2h2.3v-12.8h-2.3v-2h7v2h-2.3V379h2.3v2H927.6z M938,381v-12.4h2.2v2h0.1
				c0.3-0.7,0.7-1.2,1.2-1.7c0.6-0.4,1.3-0.6,2.3-0.6c1.3,0,2.3,0.4,3,1.2c0.7,0.8,1.1,2,1.1,3.5v7.9h-2.2v-7.6
				c0-2.1-0.9-3.2-2.6-3.2c-0.4,0-0.7,0-1.1,0.1c-0.3,0.1-0.6,0.2-0.9,0.4c-0.3,0.2-0.5,0.4-0.6,0.7c-0.2,0.3-0.2,0.6-0.2,1v8.5H938
				z M954.2,381l-4.3-12.4h2.2l2,6l1.3,4.3h0.1l1.3-4.3l2.1-6h2.1l-4.3,12.4H954.2z M968.1,381.3c-0.9,0-1.6-0.2-2.4-0.5
				c-0.7-0.3-1.3-0.8-1.8-1.3c-0.5-0.6-0.9-1.2-1.1-2c-0.3-0.8-0.4-1.7-0.4-2.7c0-1,0.1-1.9,0.4-2.7c0.3-0.8,0.6-1.5,1.1-2.1
				c0.5-0.6,1.1-1,1.8-1.3c0.7-0.3,1.5-0.5,2.4-0.5c0.9,0,1.6,0.2,2.3,0.5c0.7,0.3,1.3,0.7,1.7,1.3c0.5,0.5,0.8,1.2,1.1,1.9
				c0.2,0.8,0.4,1.6,0.4,2.4v0.9h-8.8v0.5c0,1,0.3,1.9,0.9,2.6c0.6,0.7,1.5,1,2.6,1c0.8,0,1.5-0.2,2-0.5c0.6-0.4,1-0.8,1.3-1.5
				l1.4,1.2c-0.4,0.8-1.1,1.5-1.9,2C970.3,381,969.3,381.3,968.1,381.3z M968.1,370.1c-0.5,0-0.9,0.1-1.3,0.3
				c-0.4,0.2-0.8,0.4-1.1,0.7c-0.3,0.3-0.5,0.7-0.7,1.1c-0.2,0.4-0.2,0.9-0.2,1.4v0.2h6.4v-0.2c0-1-0.3-1.9-0.8-2.5
				C969.8,370.4,969,370.1,968.1,370.1z M980.4,381.3c-1.2,0-2.1-0.2-2.9-0.6c-0.8-0.4-1.5-1-2-1.8l1.5-1.3c0.5,0.6,1,1,1.6,1.4
				c0.6,0.3,1.3,0.5,2,0.5c0.8,0,1.4-0.2,1.8-0.5c0.4-0.3,0.6-0.8,0.6-1.4c0-0.5-0.1-0.8-0.4-1.2c-0.3-0.3-0.8-0.5-1.6-0.6l-1.1-0.2
				c-0.6-0.1-1.1-0.2-1.6-0.4c-0.5-0.2-0.9-0.4-1.3-0.7s-0.6-0.6-0.8-1.1c-0.2-0.4-0.3-0.9-0.3-1.5c0-0.6,0.1-1.1,0.3-1.6
				c0.2-0.5,0.5-0.9,0.9-1.2c0.4-0.3,0.9-0.6,1.4-0.7c0.6-0.2,1.2-0.2,1.8-0.2c1.1,0,1.9,0.2,2.6,0.5c0.7,0.4,1.3,0.8,1.8,1.5
				l-1.4,1.3c-0.3-0.4-0.7-0.7-1.2-1c-0.5-0.3-1.1-0.5-1.9-0.5c-0.8,0-1.3,0.2-1.7,0.5c-0.4,0.3-0.6,0.7-0.6,1.3
				c0,0.6,0.2,1,0.5,1.2c0.4,0.3,0.9,0.4,1.6,0.6l1.1,0.2c1.4,0.2,2.4,0.6,3,1.2c0.6,0.6,0.9,1.4,0.9,2.3c0,1.2-0.4,2.2-1.3,2.9
				C983,380.9,981.9,381.3,980.4,381.3z M991.2,381c-0.8,0-1.4-0.2-1.8-0.6c-0.4-0.4-0.6-1-0.6-1.7v-8.2h-2v-1.9h1.1
				c0.4,0,0.7-0.1,0.9-0.3c0.2-0.2,0.2-0.5,0.2-0.9v-2.3h2v3.4h2.7v1.9h-2.7v8.6h2.5v1.9H991.2z"/>
			<path class="st23" d="M1029,540h107c3.3,0,6,2.7,6,6v20c0,3.3-2.7,6-6,6h-107c-3.3,0-6-2.7-6-6v-20
				C1023,542.7,1025.7,540,1029,540z"/>
			<path class="st28" d="M1052.6,558.9c-1.6,6.4-8.1,10.3-14.5,8.7c-6.4-1.6-10.3-8.1-8.7-14.5c1.6-6.4,8.1-10.3,14.6-8.7
				C1050.3,546,1054.3,552.5,1052.6,558.9z"/>
			<path class="st25" d="M1046.3,554.3c0.2-1.6-1-2.4-2.6-3l0.5-2.2l-1.3-0.3l-0.5,2.1c-0.3-0.1-0.7-0.1-1-0.3l0.5-2.1l-1.3-0.3
				l-0.5,2.2c-0.3-0.1-0.6-0.1-0.8-0.2l-1.8-0.5l-0.3,1.4l1,0.2c0.5,0.1,0.6,0.5,0.6,0.8l-0.6,2.5c0,0,0.1,0,0.2,0c0,0-0.1,0-0.2,0
				l-0.9,3.4c-0.1,0.1-0.2,0.4-0.6,0.3c0,0-1-0.2-1-0.2l-0.6,1.5l1.7,0.4c0.3,0.1,0.6,0.1,0.9,0.2l-0.6,2.2l1.3,0.3l0.5-2.2
				c0.4,0.1,0.7,0.2,1.1,0.3l-0.5,2.1l1.3,0.3l0.6-2.2c2.3,0.4,3.9,0.3,4.7-1.8c0.6-1.6,0-2.6-1.2-3.2
				C1045.5,556,1046.1,555.5,1046.3,554.3z M1043.3,558.5c-0.4,1.6-3.2,0.7-4.1,0.5l0.7-2.9C1040.8,556.4,1043.7,556.8,1043.3,558.5
				z M1043.7,554.3c-0.4,1.5-2.7,0.8-3.4,0.6l0.6-2.6C1041.7,552.4,1044.1,552.7,1043.7,554.3z"/>
			<path class="st26" d="M1064.3,550.4v7.8c0,0.6,0,1.1,0.1,1.5c0.1,0.4,0.3,0.8,0.5,1.1c0.2,0.3,0.5,0.5,0.9,0.6
				c0.4,0.1,0.8,0.2,1.3,0.2c1,0,1.8-0.3,2.2-0.9c0.4-0.6,0.7-1.5,0.7-2.6v-7.8h1.8v7.4c0,0.9-0.1,1.7-0.3,2.4
				c-0.2,0.7-0.4,1.2-0.8,1.7c-0.4,0.4-0.8,0.8-1.4,1c-0.6,0.2-1.3,0.3-2.2,0.3c-0.8,0-1.6-0.1-2.2-0.3c-0.6-0.2-1-0.5-1.4-1
				c-0.3-0.4-0.6-1-0.8-1.7c-0.2-0.7-0.2-1.5-0.2-2.4v-7.4H1064.3z M1078.9,563.2c-1,0-1.9-0.2-2.7-0.6c-0.7-0.4-1.3-0.9-1.8-1.6
				l1.2-1.1c0.4,0.6,0.9,1,1.5,1.3c0.5,0.3,1.2,0.4,1.9,0.4c0.9,0,1.5-0.2,2-0.6c0.4-0.4,0.7-0.9,0.7-1.6c0-0.6-0.2-1-0.5-1.3
				c-0.3-0.3-0.9-0.6-1.7-0.7l-1.1-0.2c-1.2-0.2-2.1-0.6-2.7-1.2c-0.6-0.6-0.9-1.3-0.9-2.3c0-0.6,0.1-1,0.3-1.5
				c0.2-0.4,0.5-0.8,0.9-1.1c0.4-0.3,0.8-0.5,1.3-0.7c0.5-0.2,1.1-0.2,1.8-0.2c0.9,0,1.8,0.2,2.4,0.5c0.7,0.3,1.3,0.8,1.8,1.5
				l-1.3,1c-0.3-0.5-0.8-0.8-1.2-1.1c-0.5-0.3-1.1-0.4-1.8-0.4c-0.8,0-1.4,0.2-1.8,0.5c-0.4,0.3-0.7,0.8-0.7,1.4
				c0,0.6,0.2,1,0.5,1.3c0.4,0.3,0.9,0.5,1.7,0.7l1.1,0.2c1.2,0.3,2.1,0.7,2.7,1.3c0.6,0.6,0.9,1.3,0.9,2.3c0,0.6-0.1,1.1-0.3,1.6
				c-0.2,0.5-0.5,0.9-0.9,1.2s-0.8,0.6-1.4,0.8S1079.6,563.2,1078.9,563.2z M1086.2,550.4h4.3c0.8,0,1.5,0.1,2.2,0.4
				c0.7,0.3,1.2,0.7,1.7,1.2c0.5,0.5,0.8,1.2,1,2c0.3,0.8,0.4,1.7,0.4,2.7s-0.1,2-0.4,2.8c-0.2,0.8-0.6,1.4-1,2
				c-0.5,0.5-1,0.9-1.7,1.2c-0.6,0.3-1.4,0.4-2.2,0.4h-4.3V550.4z M1090.5,561.5c0.5,0,1-0.1,1.4-0.2c0.4-0.2,0.8-0.4,1.1-0.7
				c0.3-0.3,0.5-0.7,0.7-1.2c0.2-0.5,0.3-1,0.3-1.6v-2c0-0.6-0.1-1.1-0.3-1.6c-0.2-0.5-0.4-0.9-0.7-1.2c-0.3-0.3-0.7-0.6-1.1-0.7
				c-0.4-0.2-0.9-0.3-1.4-0.3h-2.6v9.5H1090.5z M1102.7,552v11h-1.7v-11h-3.9v-1.5h9.5v1.5H1102.7z"/>
			<path class="st27" d="M1119.4,553l4.6,4.3l4.6-4.3l1.4,1.3l-6,5.7l-6-5.7L1119.4,553z"/>
			<path class="st29" d="M756.4,307v-4.1h4.8v-26.7h-4.8v-4.1h14.5v4.1h-4.8v26.7h4.8v4.1H756.4z M777.9,307v-25.9h4.6v4.3h0.3
				c0.6-1.4,1.5-2.6,2.6-3.5c1.2-0.9,2.7-1.4,4.7-1.4c2.7,0,4.8,0.9,6.3,2.6c1.5,1.7,2.3,4.2,2.3,7.4V307H794v-15.9
				c0-4.4-1.8-6.6-5.5-6.6c-0.8,0-1.5,0.1-2.3,0.3c-0.7,0.2-1.3,0.5-1.9,0.9c-0.6,0.4-1,0.9-1.4,1.5c-0.3,0.6-0.5,1.3-0.5,2V307
				H777.9z M811.8,307l-9-25.9h4.6l4.3,12.4l2.7,9h0.3l2.8-9l4.3-12.4h4.4l-9,25.9H811.8z M840.7,307.6c-1.8,0-3.4-0.3-4.9-1
				c-1.4-0.7-2.7-1.6-3.7-2.8c-1-1.2-1.8-2.6-2.3-4.3c-0.5-1.7-0.8-3.5-0.8-5.6c0-2,0.3-3.9,0.8-5.5c0.6-1.7,1.3-3.1,2.3-4.3
				c1-1.2,2.3-2.1,3.7-2.7c1.5-0.7,3.1-1,4.9-1c1.8,0,3.4,0.3,4.8,1c1.4,0.6,2.6,1.5,3.6,2.6c1,1.1,1.7,2.5,2.2,4.1
				c0.5,1.6,0.8,3.3,0.8,5v2h-18.3v1c0,2.2,0.6,4,1.9,5.4c1.3,1.4,3.1,2,5.4,2c1.6,0,3-0.4,4.2-1.1c1.2-0.7,2.1-1.8,2.8-3.1l3,2.5
				c-0.9,1.7-2.3,3.1-4,4.1C845.2,307.1,843.1,307.6,840.7,307.6z M840.7,284.3c-1,0-1.9,0.2-2.8,0.5c-0.8,0.4-1.6,0.9-2.2,1.6
				c-0.6,0.6-1.1,1.4-1.4,2.3c-0.3,0.9-0.5,1.9-0.5,3v0.4h13.3v-0.5c0-2.2-0.6-3.9-1.8-5.2C844.2,284.9,842.7,284.3,840.7,284.3z
				 M866.3,307.6c-2.4,0-4.4-0.5-6.1-1.4c-1.6-0.9-3-2.1-4.3-3.6l3.2-2.7c1,1.2,2,2.2,3.3,2.9c1.2,0.7,2.6,1,4.3,1
				c1.7,0,2.9-0.3,3.8-1c0.9-0.7,1.3-1.6,1.3-2.9c0-1-0.3-1.8-0.9-2.4c-0.6-0.6-1.6-1.1-3.3-1.3l-2.2-0.4c-1.2-0.2-2.4-0.4-3.4-0.8
				c-1-0.4-1.9-0.8-2.7-1.4c-0.7-0.6-1.3-1.3-1.8-2.2c-0.4-0.9-0.6-1.9-0.6-3.1c0-1.3,0.2-2.4,0.7-3.3c0.5-1,1.1-1.8,2-2.5
				c0.8-0.7,1.8-1.2,2.9-1.5c1.2-0.3,2.4-0.5,3.8-0.5c2.2,0,4,0.4,5.5,1.1c1.5,0.7,2.8,1.8,3.8,3l-3,2.8c-0.6-0.8-1.5-1.6-2.6-2.2
				c-1.1-0.6-2.4-0.9-4-0.9c-1.6,0-2.8,0.3-3.6,1c-0.8,0.7-1.2,1.5-1.2,2.6c0,1.2,0.4,2,1.1,2.5c0.8,0.5,1.9,0.9,3.4,1.2l2.2,0.3
				c2.9,0.4,4.9,1.3,6.1,2.5c1.3,1.2,1.9,2.9,1.9,4.9c0,2.5-0.9,4.5-2.7,6C871.8,306.9,869.4,307.6,866.3,307.6z M888.9,307
				c-1.6,0-2.8-0.4-3.6-1.3c-0.8-0.9-1.3-2.1-1.3-3.6V285h-4.2v-3.9h2.3c0.9,0,1.5-0.2,1.8-0.6c0.3-0.4,0.5-1,0.5-1.8V274h4.2v7.1
				h5.5v3.9h-5.5v18h5.2v4H888.9z M914.6,275.7c-1,0-1.7-0.2-2.1-0.7c-0.4-0.5-0.7-1.1-0.7-1.9v-0.7c0-0.8,0.2-1.4,0.7-1.9
				c0.5-0.5,1.2-0.7,2.1-0.7c1,0,1.7,0.2,2.1,0.7c0.5,0.5,0.7,1.1,0.7,1.9v0.7c0,0.8-0.2,1.4-0.7,1.9
				C916.3,275.5,915.6,275.7,914.6,275.7z M912.2,281.1h4.7V307h-4.7V281.1z M925.1,307v-25.9h4.7v4.3h0.3c0.6-1.4,1.5-2.6,2.6-3.5
				c1.2-0.9,2.7-1.4,4.7-1.4c2.7,0,4.8,0.9,6.3,2.6c1.5,1.7,2.3,4.2,2.3,7.4V307h-4.7v-15.9c0-4.4-1.8-6.6-5.4-6.6
				c-0.8,0-1.5,0.1-2.3,0.3c-0.7,0.2-1.3,0.5-1.9,0.9c-0.6,0.4-1,0.9-1.3,1.5c-0.3,0.6-0.5,1.3-0.5,2V307H925.1z M966,307v-34.9
				h21.8v4.3h-16.9v10.8h15.7v4.3h-15.7v11.2h16.9v4.3H966z M995,307v-25.9h4.7v4.3h0.3c0.6-1.3,1.4-2.5,2.6-3.4
				c1.2-1,2.6-1.5,4.4-1.5s3.3,0.4,4.7,1.3c1.4,0.8,2.5,2.2,3.1,4h0.1c0.5-1.4,1.3-2.6,2.6-3.6c1.3-1.1,3.1-1.6,5.3-1.6
				c2.6,0,4.6,0.9,6.1,2.6c1.5,1.7,2.2,4.2,2.2,7.4V307h-4.7v-15.9c0-2.2-0.4-3.9-1.3-4.9c-0.8-1.1-2.1-1.7-3.9-1.7
				c-0.8,0-1.5,0.1-2.2,0.3c-0.7,0.2-1.3,0.5-1.8,0.9c-0.5,0.4-1,0.9-1.3,1.5c-0.3,0.6-0.5,1.3-0.5,2V307h-4.7v-15.9
				c0-4.4-1.7-6.6-5.2-6.6c-0.7,0-1.4,0.1-2.1,0.3c-0.7,0.2-1.3,0.5-1.9,0.9c-0.5,0.4-1,0.9-1.3,1.5c-0.3,0.6-0.5,1.3-0.5,2V307H995
				z M1041.2,275.7c-1,0-1.7-0.2-2.2-0.7c-0.4-0.5-0.7-1.1-0.7-1.9v-0.7c0-0.8,0.2-1.4,0.7-1.9c0.5-0.5,1.2-0.7,2.2-0.7
				c1,0,1.7,0.2,2.1,0.7c0.5,0.5,0.7,1.1,0.7,1.9v0.7c0,0.8-0.2,1.4-0.7,1.9C1042.8,275.5,1042.1,275.7,1041.2,275.7z M1038.8,281.1
				h4.6V307h-4.6V281.1z M1059.6,307.6c-2.4,0-4.4-0.5-6.1-1.4c-1.6-0.9-3.1-2.1-4.3-3.6l3.2-2.7c1,1.2,2,2.2,3.3,2.9
				c1.2,0.7,2.7,1,4.3,1c1.7,0,2.9-0.3,3.8-1c0.9-0.7,1.3-1.6,1.3-2.9c0-1-0.3-1.8-0.9-2.4c-0.6-0.6-1.7-1.1-3.3-1.3l-2.2-0.4
				c-1.2-0.2-2.4-0.4-3.4-0.8c-1-0.4-1.9-0.8-2.7-1.4s-1.3-1.3-1.8-2.2c-0.4-0.9-0.6-1.9-0.6-3.1c0-1.3,0.2-2.4,0.7-3.3
				c0.5-1,1.1-1.8,2-2.5c0.8-0.7,1.8-1.2,2.9-1.5c1.2-0.3,2.4-0.5,3.8-0.5c2.2,0,4,0.4,5.5,1.1s2.8,1.8,3.8,3l-2.9,2.8
				c-0.6-0.8-1.5-1.6-2.6-2.2c-1.1-0.6-2.4-0.9-3.9-0.9c-1.6,0-2.8,0.3-3.6,1c-0.8,0.7-1.2,1.5-1.2,2.6c0,1.2,0.4,2,1.1,2.5
				c0.8,0.5,1.9,0.9,3.4,1.2l2.2,0.3c2.9,0.4,4.9,1.3,6.2,2.5c1.3,1.2,1.9,2.9,1.9,4.9c0,2.5-0.9,4.5-2.7,6
				C1065.1,306.9,1062.7,307.6,1059.6,307.6z M1073.1,281.1h4.5l2.7,11l2.6,10.6h0.1l3-10.6l3.2-11h4.2l3.3,11l3,10.6h0.2l2.5-10.6
				l2.8-11h4.3l-6.9,25.9h-5.5l-3.5-12.1l-2.2-7.6h-0.1l-2.1,7.6l-3.5,12.1h-5.4L1073.1,281.1z M1133.2,307c-1.4,0-2.5-0.4-3.3-1.2
				c-0.7-0.8-1.1-1.8-1.3-3.1h-0.3c-0.5,1.6-1.5,2.8-2.8,3.6c-1.3,0.8-2.9,1.3-4.8,1.3c-2.7,0-4.8-0.7-6.3-2.1
				c-1.5-1.4-2.3-3.3-2.3-5.7c0-2.5,0.9-4.4,2.7-5.7c1.8-1.3,4.6-2,8.3-2h4.9v-2.4c0-1.7-0.5-3.1-1.4-4c-0.9-0.9-2.4-1.4-4.3-1.4
				c-1.5,0-2.8,0.4-3.9,1.1c-1,0.7-1.8,1.5-2.5,2.6l-2.8-2.6c0.8-1.4,1.9-2.6,3.4-3.5c1.6-1,3.6-1.5,6-1.5c3.2,0,5.7,0.8,7.5,2.4
				c1.8,1.5,2.6,3.7,2.6,6.5V303h2.9v4H1133.2z M1121.9,303.9c1.8,0,3.4-0.4,4.6-1.3s1.8-1.9,1.8-3.2v-4h-5c-2.1,0-3.7,0.3-4.7,1
				c-1,0.6-1.5,1.5-1.5,2.8v1c0,1.2,0.4,2.1,1.3,2.8C1119.3,303.5,1120.5,303.9,1121.9,303.9z M1141.4,281.1h4.7v4.3h0.2
				c0.6-1.6,1.5-2.8,2.8-3.6c1.3-0.8,2.8-1.3,4.6-1.3c1.6,0,3.1,0.3,4.4,1c1.3,0.6,2.4,1.5,3.3,2.7c0.9,1.2,1.6,2.6,2.1,4.3
				c0.5,1.7,0.7,3.6,0.7,5.6c0,2.1-0.2,4-0.7,5.7c-0.5,1.7-1.2,3.1-2.1,4.3c-0.9,1.2-2,2.1-3.3,2.7c-1.3,0.6-2.7,0.9-4.4,0.9
				c-1.8,0-3.3-0.4-4.6-1.2c-1.3-0.8-2.2-2-2.8-3.6h-0.2V317h-4.7V281.1z M1152.3,303.5c2.1,0,3.8-0.7,5-2c1.2-1.3,1.8-3.1,1.8-5.3
				v-4.4c0-2.2-0.6-4-1.8-5.3c-1.2-1.3-2.9-2-5-2c-0.9,0-1.7,0.1-2.4,0.4c-0.8,0.2-1.4,0.6-2,1c-0.6,0.4-1,0.9-1.3,1.5
				c-0.3,0.6-0.5,1.2-0.5,1.9v9.5c0,0.7,0.2,1.3,0.5,1.9c0.3,0.6,0.8,1.1,1.3,1.5c0.6,0.4,1.2,0.8,2,1
				C1150.7,303.4,1151.5,303.5,1152.3,303.5z"/>
		</g>
	</g>
</g>
</svg>
