<svg width="1920" height="1390" viewBox="0 0 1920 1390" fill="none" xmlns="http://www.w3.org/2000/svg">
<mask id="mask0" mask-type="alpha" maskUnits="userSpaceOnUse" x="0" y="0" width="1920" height="1390">
<path d="M1920 0H0V1390H1920V0Z" fill="url(#paint0_radial)"/>
</mask>
<g mask="url(#mask0)">
<path d="M1917 0H-3V1390H1917V0Z" fill="url(#paint1_radial)"/>
<g filter="url(#filter0_f)">
<path fill-rule="evenodd" clip-rule="evenodd" d="M-132.317 714.539L199.428 634.361L-2.81377 880.061C-6.57752 884.627 -11.6693 887.866 -17.5256 889.067L-106.368 909.295C-113.389 910.934 -119.426 915.191 -123.226 921.431L-384.188 1343.7C-384.188 1343.7 -383.56 1341.54 -382.398 1337.52C-368.694 1290.17 -280.665 985.143 -271.055 930.431C-267.276 913.079 -267.498 897.891 -267.811 882.904C-268.456 852.439 -268.991 822.264 -235.665 773.075C-206.665 733.145 -156.979 720.474 -132.317 714.539ZM-269.361 930.764C-265.542 913.206 -265.773 897.845 -266.086 882.868C-266.408 867.629 -266.693 852.662 -262.794 835.391C-258.899 818.142 -250.806 798.505 -234.252 774.066C-205.666 734.727 -156.613 722.161 -131.914 716.217L-131.912 716.217L194.814 637.252L-4.14536 878.963M-269.361 930.764C-274.609 960.595 -302.916 1063.98 -329.87 1159.79C-343.361 1207.74 -356.526 1253.84 -366.318 1287.95C-371.215 1305 -375.268 1319.06 -378.097 1328.85C-378.421 1329.98 -378.73 1331.05 -379.022 1332.06L-124.699 920.533C-124.698 920.531 -124.697 920.53 -124.696 920.528C-120.649 913.885 -114.217 909.355 -106.761 907.615L-17.8906 887.381L-17.8724 887.377C-12.4309 886.26 -7.67771 883.248 -4.14612 878.964" fill="url(#paint2_linear)"/>
</g>
<g filter="url(#filter1_f)">
<path fill-rule="evenodd" clip-rule="evenodd" d="M2047.04 727.539L1715.29 647.361L1917.53 893.061C1921.3 897.627 1926.39 900.866 1932.24 902.067L2021.09 922.295C2028.11 923.934 2034.14 928.191 2037.94 934.431L2298.91 1356.7C2298.91 1356.7 2298.28 1354.54 2297.12 1350.52C2283.41 1303.17 2195.38 998.143 2185.77 943.431C2181.99 926.079 2182.22 910.891 2182.53 895.904C2183.17 865.439 2183.71 835.264 2150.38 786.075C2121.38 746.145 2071.7 733.474 2047.04 727.539ZM2184.08 943.764C2180.26 926.206 2180.49 910.845 2180.8 895.868C2181.13 880.629 2181.41 865.662 2177.51 848.391C2173.62 831.142 2165.52 811.505 2148.97 787.066C2120.38 747.727 2071.33 735.161 2046.63 729.217L2046.63 729.217L1719.9 650.252L1918.86 891.963M2184.08 943.764C2189.33 973.595 2217.63 1076.98 2244.59 1172.79C2258.08 1220.74 2271.24 1266.84 2281.04 1300.95C2285.93 1318 2289.99 1332.06 2292.82 1341.85C2293.14 1342.98 2293.45 1344.05 2293.74 1345.06L2039.42 933.533C2039.42 933.531 2039.42 933.53 2039.42 933.528C2035.37 926.885 2028.94 922.355 2021.48 920.615L1932.61 900.381L1932.59 900.377C1927.15 899.26 1922.4 896.248 1918.86 891.964" fill="url(#paint3_linear)"/>
</g>
<g filter="url(#filter2_f)">
<path fill-rule="evenodd" clip-rule="evenodd" d="M1261 105.565V-59H1259V105.565C1259 109.956 1260.16 114.27 1262.35 118.072L1474.89 485.927C1478.37 491.953 1484.21 496.255 1491 497.798L1988.78 610.975L1989.22 609.025L1491.44 495.848C1485.2 494.428 1479.83 490.471 1476.62 484.927L1264.09 117.071C1262.06 113.574 1261 109.605 1261 105.565Z" fill="url(#paint4_linear)"/>
<path fill-rule="evenodd" clip-rule="evenodd" d="M1163 -64.4349V-229H1161V-64.4349C1161 -60.0438 1162.16 -55.7301 1164.35 -51.928L1376.89 315.927C1380.37 321.953 1386.21 326.255 1393 327.798L1890.78 440.975L1891.22 439.025L1393.44 325.848C1387.2 324.428 1381.83 320.471 1378.62 314.927L1166.09 -52.9285C1164.06 -56.4265 1163 -60.3951 1163 -64.4349Z" fill="url(#paint5_linear)"/>
</g>
<g filter="url(#filter3_f)">
<path fill-rule="evenodd" clip-rule="evenodd" d="M1778.41 1222L1942.97 1222L1942.97 1220L1778.41 1220C1774.02 1220 1769.7 1221.16 1765.9 1223.35L1398.05 1435.89C1392.02 1439.37 1387.72 1445.21 1386.18 1452L1273 1949.78L1274.95 1950.22L1388.13 1452.44C1389.55 1446.2 1393.5 1440.83 1399.05 1437.62L1766.9 1225.09C1770.4 1223.06 1774.37 1222 1778.41 1222Z" fill="url(#paint6_linear)"/>
</g>
<g filter="url(#filter4_f)">
<path fill-rule="evenodd" clip-rule="evenodd" d="M141.565 1222L-23 1222L-23 1220L141.565 1220C145.956 1220 150.27 1221.16 154.072 1223.35L521.927 1435.89C527.953 1439.37 532.255 1445.21 533.798 1452L646.975 1949.78L645.025 1950.22L531.848 1452.44C530.428 1446.2 526.471 1440.83 520.927 1437.62L153.072 1225.09C149.574 1223.06 145.605 1222 141.565 1222Z" fill="url(#paint7_linear)"/>
</g>
<g filter="url(#filter5_f)">
<path fill-rule="evenodd" clip-rule="evenodd" d="M644 105.565V-59H646V105.565C646 109.956 644.843 114.27 642.647 118.072L430.108 485.927C426.626 491.953 420.79 496.255 414.004 497.798L-83.7783 610.975L-84.2217 609.025L413.561 495.848C419.804 494.428 425.173 490.471 428.376 484.927L640.915 117.071C642.936 113.574 644 109.605 644 105.565Z" fill="url(#paint8_linear)"/>
<path fill-rule="evenodd" clip-rule="evenodd" d="M742.222 -64.4349V-229H744.222V-64.4349C744.222 -60.0438 743.065 -55.7301 740.868 -51.928L528.33 315.927C524.848 321.953 519.012 326.255 512.226 327.798L14.4434 440.975L14 439.025L511.782 325.848C518.026 324.428 523.395 320.471 526.598 314.927L739.137 -52.9285C741.158 -56.4265 742.222 -60.3951 742.222 -64.4349Z" fill="url(#paint9_linear)"/>
</g>
<g filter="url(#filter6_f)">
<path fill-rule="evenodd" clip-rule="evenodd" d="M453.222 2.56509V-162H455.222V2.56509C455.222 6.95622 454.065 11.2699 451.868 15.072L239.33 382.927C235.848 388.953 230.012 393.255 223.226 394.798L-274.557 507.975L-275 506.025L222.782 392.848C229.026 391.428 234.395 387.471 237.598 381.927L450.137 14.0715C452.158 10.5735 453.222 6.60493 453.222 2.56509Z" fill="url(#paint10_linear)"/>
</g>
<g filter="url(#filter7_f)">
<path fill-rule="evenodd" clip-rule="evenodd" d="M1466 2.56509V-162H1464V2.56509C1464 6.95622 1465.16 11.2699 1467.35 15.072L1679.89 382.927C1683.37 388.953 1689.21 393.255 1696 394.798L2193.78 507.975L2194.22 506.025L1696.44 392.848C1690.2 391.428 1684.83 387.471 1681.62 381.927L1469.09 14.0715C1467.06 10.5735 1466 6.60493 1466 2.56509Z" fill="url(#paint11_linear)"/>
</g>
<g filter="url(#filter8_f)">
<path fill-rule="evenodd" clip-rule="evenodd" d="M1006.83 559.374L948.242 81.0001L723.749 470.282C719.58 477.523 717.824 485.862 719.141 494.201L736.477 621.694C737.793 631.788 735.16 641.882 728.796 650.001L300 1204.52C300 1204.52 302.548 1202.62 307.28 1199.09C363.088 1157.47 722.676 889.758 790.241 849.909C811.308 836.303 831.497 829.062 851.466 822.04C892.064 807.777 932.222 793.513 980.719 725.049C1019.12 666.898 1011.22 594.922 1006.83 559.374ZM788.96 847.835C810.279 834.075 830.702 826.759 850.658 819.741C870.966 812.606 890.894 805.557 911.793 791.833C932.665 778.126 954.612 757.683 978.708 723.673C1016.54 666.362 1008.81 595.276 1004.42 559.672L1004.41 559.67L946.71 88.5347L725.861 471.498M788.96 847.835C752.125 869.573 629.48 958.293 516.193 1041.46C459.489 1083.09 405.077 1123.36 364.84 1153.23C344.722 1168.17 328.148 1180.5 316.603 1189.1C315.278 1190.09 314.019 1191.03 312.828 1191.91L730.714 651.504C730.716 651.502 730.718 651.5 730.719 651.498C737.494 642.851 740.292 632.1 738.893 621.378L721.552 493.846L721.548 493.821C720.324 486.072 721.948 478.294 725.86 471.499" fill="url(#paint12_radial)"/>
<g filter="url(#filter9_f)">
<path fill-rule="evenodd" clip-rule="evenodd" d="M1006.83 559.374L948.242 81.0001L723.749 470.282C719.58 477.523 717.824 485.862 719.141 494.201L736.477 621.694C737.793 631.788 735.16 641.882 728.796 650.001L300 1204.52C300 1204.52 302.548 1202.62 307.28 1199.09C363.088 1157.47 722.676 889.758 790.241 849.909C811.308 836.303 831.497 829.062 851.466 822.04C892.064 807.777 932.222 793.513 980.719 725.049C1019.12 666.898 1011.22 594.922 1006.83 559.374ZM788.96 847.835C810.279 834.075 830.702 826.759 850.658 819.741C870.966 812.606 890.894 805.557 911.793 791.833C932.665 778.126 954.612 757.683 978.708 723.673C1016.54 666.362 1008.81 595.276 1004.42 559.672L1004.41 559.67L946.71 88.5347L725.861 471.498M788.96 847.835C752.125 869.573 629.48 958.293 516.193 1041.46C459.489 1083.09 405.077 1123.36 364.84 1153.23C344.722 1168.17 328.148 1180.5 316.603 1189.1C315.278 1190.09 314.019 1191.03 312.828 1191.91L730.714 651.504C730.716 651.502 730.718 651.5 730.719 651.498C737.494 642.851 740.292 632.1 738.893 621.378L721.552 493.846L721.548 493.821C720.324 486.072 721.948 478.294 725.86 471.499" fill="url(#paint13_radial)"/>
</g>
<path fill-rule="evenodd" clip-rule="evenodd" d="M1169.3 1006.71L1612.88 1195.15L1388 806.096C1383.81 798.864 1377.47 793.175 1369.59 790.146L1250.51 741.413C1241.11 737.506 1233.68 730.178 1229.83 720.607L964.004 72.0001C964.004 72.0001 964.378 75.1582 965.068 81.0213C973.202 150.159 1025.26 595.428 1025.99 673.866C1027.23 698.913 1023.41 720.018 1019.51 740.823C1011.56 783.113 1003.83 825.023 1038.88 901.256C1070.04 963.589 1136.32 992.735 1169.3 1006.71ZM1041.08 900.203C1071.8 961.617 1137.22 990.47 1170.25 1004.46L1170.25 1004.47L1607.12 1190.06L1385.89 807.317M1041.08 900.203C1023.67 862.329 1016.94 833.101 1015.5 808.171C1014.07 783.21 1017.93 762.428 1021.9 741.273C1025.8 720.482 1029.68 699.137 1028.42 673.795C1028.01 631.026 1012.5 480.452 997.12 340.758C989.421 270.837 981.747 203.576 975.998 153.796C973.123 128.906 970.73 108.386 969.055 94.0881C968.863 92.4469 968.68 90.8875 968.507 89.413L1227.57 721.517C1227.57 721.519 1227.57 721.522 1227.57 721.525C1231.68 731.715 1239.59 739.513 1249.57 743.663L1368.69 792.411L1368.71 792.42C1376.03 795.235 1381.96 800.531 1385.89 807.315" fill="url(#paint14_radial)"/>
<g filter="url(#filter10_f)">
<path fill-rule="evenodd" clip-rule="evenodd" d="M1169.3 1006.95L1612.88 1195.39L1388 806.336C1383.81 799.105 1377.47 793.415 1369.59 790.386L1250.51 741.653C1241.11 737.746 1233.68 730.419 1229.83 720.848L964.004 72.2404C964.004 72.2404 964.378 75.3985 965.068 81.2615C973.202 150.399 1025.26 595.669 1025.99 674.107C1027.23 699.153 1023.41 720.258 1019.51 741.063C1011.56 783.354 1003.83 825.264 1038.88 901.496C1070.04 963.829 1136.32 992.975 1169.3 1006.95ZM1041.08 900.443C1071.8 961.857 1137.22 990.71 1170.25 1004.71L1170.25 1004.71L1607.12 1190.3L1385.89 807.557M1041.08 900.443C1023.67 862.569 1016.94 833.341 1015.5 808.411C1014.07 783.45 1017.93 762.668 1021.9 741.513C1025.8 720.722 1029.68 699.377 1028.42 674.035C1028.01 631.267 1012.5 480.692 997.12 340.998C989.421 271.077 981.747 203.817 975.998 154.037C973.123 129.147 970.73 108.626 969.055 94.3283C968.863 92.6871 968.68 91.1277 968.507 89.6533L1227.57 721.757C1227.57 721.76 1227.57 721.762 1227.57 721.765C1231.68 731.955 1239.59 739.753 1249.57 743.903L1368.69 792.651L1368.71 792.66C1376.03 795.475 1381.96 800.771 1385.89 807.556" fill="url(#paint15_radial)"/>
</g>
<path fill-rule="evenodd" clip-rule="evenodd" d="M699.18 930.944L314.192 1220.87L763.566 1220.65C771.922 1220.64 780.021 1217.99 786.585 1212.68L888.329 1133.92C896.412 1127.73 906.471 1124.97 916.684 1126.42L1611.31 1220.51C1611.31 1220.51 1608.39 1219.25 1602.96 1216.92C1539.02 1189.39 1127.38 1011.84 1059.09 973.252C1036.77 961.81 1020.41 947.946 1004.34 934.163C971.688 906.137 939.256 878.49 855.716 870.722C786.154 866.54 727.771 909.369 699.18 930.944ZM855.529 873.152C786.983 869.048 729.283 911.281 700.647 932.89L700.645 932.891L321.483 1218.43L763.563 1218.21M855.529 873.152C897.031 877.015 925.709 885.8 948.016 897.022C970.351 908.259 986.419 921.993 1002.75 936.012C1018.81 949.786 1035.35 963.815 1057.93 975.397C1095.17 996.429 1233.33 1058.28 1362 1114.81C1426.4 1143.1 1488.49 1170.09 1534.47 1190C1557.47 1199.95 1576.43 1208.14 1589.65 1213.84C1591.17 1214.49 1592.61 1215.11 1593.98 1215.7L917.027 1124.01C917.024 1124.01 917.021 1124 917.018 1124C906.143 1122.46 895.434 1125.41 886.848 1131.99L785.093 1210.75L785.072 1210.77L785.052 1210.79C778.953 1215.72 771.405 1218.2 763.565 1218.21" fill="url(#paint16_radial)"/>
</g>
<rect width="1920" height="173" fill="url(#paint17_linear)"/>
<rect x="1920" y="1393" width="1920" height="173" transform="rotate(180 1920 1393)" fill="url(#paint18_linear)"/>
<rect width="208" height="1390" fill="url(#paint19_linear)"/>
<rect width="208" height="1390" transform="matrix(-1 0 0 1 1920 0)" fill="url(#paint20_linear)"/>
</g>
<defs>
<filter id="filter0_f" x="-563" y="591" width="925.719" height="754.699" filterUnits="userSpaceOnUse" color-interpolation-filters="sRGB">
<feFlood flood-opacity="0" result="BackgroundImageFix"/>
<feBlend mode="normal" in="SourceGraphic" in2="BackgroundImageFix" result="shape"/>
<feGaussianBlur stdDeviation="1" result="effect1_foregroundBlur"/>
</filter>
<filter id="filter1_f" x="1552" y="604" width="925.719" height="754.699" filterUnits="userSpaceOnUse" color-interpolation-filters="sRGB">
<feFlood flood-opacity="0" result="BackgroundImageFix"/>
<feBlend mode="normal" in="SourceGraphic" in2="BackgroundImageFix" result="shape"/>
<feGaussianBlur stdDeviation="1" result="effect1_foregroundBlur"/>
</filter>
<filter id="filter2_f" x="1157" y="-233" width="836.222" height="847.975" filterUnits="userSpaceOnUse" color-interpolation-filters="sRGB">
<feFlood flood-opacity="0" result="BackgroundImageFix"/>
<feBlend mode="normal" in="SourceGraphic" in2="BackgroundImageFix" result="shape"/>
<feGaussianBlur stdDeviation="2" result="effect1_foregroundBlur"/>
</filter>
<filter id="filter3_f" x="1271" y="1218" width="673.975" height="734.222" filterUnits="userSpaceOnUse" color-interpolation-filters="sRGB">
<feFlood flood-opacity="0" result="BackgroundImageFix"/>
<feBlend mode="normal" in="SourceGraphic" in2="BackgroundImageFix" result="shape"/>
<feGaussianBlur stdDeviation="1" result="effect1_foregroundBlur"/>
</filter>
<filter id="filter4_f" x="-25" y="1218" width="673.975" height="734.222" filterUnits="userSpaceOnUse" color-interpolation-filters="sRGB">
<feFlood flood-opacity="0" result="BackgroundImageFix"/>
<feBlend mode="normal" in="SourceGraphic" in2="BackgroundImageFix" result="shape"/>
<feGaussianBlur stdDeviation="1" result="effect1_foregroundBlur"/>
</filter>
<filter id="filter5_f" x="-88.2217" y="-233" width="836.443" height="847.975" filterUnits="userSpaceOnUse" color-interpolation-filters="sRGB">
<feFlood flood-opacity="0" result="BackgroundImageFix"/>
<feBlend mode="normal" in="SourceGraphic" in2="BackgroundImageFix" result="shape"/>
<feGaussianBlur stdDeviation="2" result="effect1_foregroundBlur"/>
</filter>
<filter id="filter6_f" x="-277" y="-164" width="734.222" height="673.975" filterUnits="userSpaceOnUse" color-interpolation-filters="sRGB">
<feFlood flood-opacity="0" result="BackgroundImageFix"/>
<feBlend mode="normal" in="SourceGraphic" in2="BackgroundImageFix" result="shape"/>
<feGaussianBlur stdDeviation="1" result="effect1_foregroundBlur"/>
</filter>
<filter id="filter7_f" x="1462" y="-164" width="734.222" height="673.975" filterUnits="userSpaceOnUse" color-interpolation-filters="sRGB">
<feFlood flood-opacity="0" result="BackgroundImageFix"/>
<feBlend mode="normal" in="SourceGraphic" in2="BackgroundImageFix" result="shape"/>
<feGaussianBlur stdDeviation="1" result="effect1_foregroundBlur"/>
</filter>
<filter id="filter8_f" x="259" y="48" width="1702" height="1758.27" filterUnits="userSpaceOnUse" color-interpolation-filters="sRGB">
<feFlood flood-opacity="0" result="BackgroundImageFix"/>
<feBlend mode="normal" in="SourceGraphic" in2="BackgroundImageFix" result="shape"/>
<feGaussianBlur stdDeviation="12" result="effect1_foregroundBlur"/>
</filter>
<filter id="filter9_f" x="292" y="73" width="726.626" height="1139.52" filterUnits="userSpaceOnUse" color-interpolation-filters="sRGB">
<feFlood flood-opacity="0" result="BackgroundImageFix"/>
<feBlend mode="normal" in="SourceGraphic" in2="BackgroundImageFix" result="shape"/>
<feGaussianBlur stdDeviation="4" result="effect1_foregroundBlur"/>
</filter>
<filter id="filter10_f" x="600.691" y="64.2402" width="1344.31" height="1193.18" filterUnits="userSpaceOnUse" color-interpolation-filters="sRGB">
<feFlood flood-opacity="0" result="BackgroundImageFix"/>
<feBlend mode="normal" in="SourceGraphic" in2="BackgroundImageFix" result="shape"/>
<feGaussianBlur stdDeviation="4" result="effect1_foregroundBlur"/>
</filter>
<radialGradient id="paint0_radial" cx="0" cy="0" r="1" gradientUnits="userSpaceOnUse" gradientTransform="translate(960 460.5) rotate(140.99) scale(2693.58 2651.47)">
<stop stop-color="#4200AB"/>
<stop offset="0.244439" stop-color="#25252C"/>
</radialGradient>
<radialGradient id="paint1_radial" cx="0" cy="0" r="1" gradientUnits="userSpaceOnUse" gradientTransform="translate(957 460.5) rotate(140.99) scale(2693.58 2651.47)">
<stop stop-color="#4200AB"/>
<stop offset="0.244439" stop-color="#25252C"/>
</radialGradient>
<linearGradient id="paint2_linear" x1="-575.026" y1="1343.34" x2="192.474" y2="642.342" gradientUnits="userSpaceOnUse">
<stop stop-color="#1C1159"/>
<stop offset="0.49152" stop-color="#5D09E1"/>
<stop offset="0.693773" stop-color="#37FFDB"/>
<stop offset="1" stop-color="#E478FF"/>
</linearGradient>
<linearGradient id="paint3_linear" x1="2489.74" y1="1356.34" x2="1722.24" y2="655.342" gradientUnits="userSpaceOnUse">
<stop stop-color="#1C1159"/>
<stop offset="0.49152" stop-color="#5D09E1"/>
<stop offset="0.693773" stop-color="#37FFDB"/>
<stop offset="1" stop-color="#E478FF"/>
</linearGradient>
<linearGradient id="paint4_linear" x1="1891.44" y1="761.322" x2="1683.41" y2="-133.249" gradientUnits="userSpaceOnUse">
<stop offset="0.121748" stop-color="#26252C"/>
<stop offset="0.349782" stop-color="#5D09E1"/>
<stop offset="0.693773" stop-color="#37FFDB"/>
<stop offset="1" stop-color="#E478FF"/>
</linearGradient>
<linearGradient id="paint5_linear" x1="1793.44" y1="591.322" x2="1585.41" y2="-303.249" gradientUnits="userSpaceOnUse">
<stop offset="0.121748" stop-color="#26252C"/>
<stop offset="0.235062" stop-color="#5D09E1"/>
<stop offset="0.487065" stop-color="#37FFDB"/>
<stop offset="0.649294" stop-color="#E478FF"/>
</linearGradient>
<linearGradient id="paint6_linear" x1="1122.65" y1="1852.44" x2="2017.22" y2="1644.41" gradientUnits="userSpaceOnUse">
<stop offset="0.121748" stop-color="#26252C"/>
<stop offset="0.235062" stop-color="#5D09E1"/>
<stop offset="0.487065" stop-color="#37FFDB"/>
<stop offset="0.649294" stop-color="#E478FF"/>
</linearGradient>
<linearGradient id="paint7_linear" x1="797.322" y1="1852.44" x2="-97.2485" y2="1644.41" gradientUnits="userSpaceOnUse">
<stop offset="0.121748" stop-color="#26252C"/>
<stop offset="0.235062" stop-color="#5D09E1"/>
<stop offset="0.487065" stop-color="#37FFDB"/>
<stop offset="0.649294" stop-color="#E478FF"/>
</linearGradient>
<linearGradient id="paint8_linear" x1="13.557" y1="761.322" x2="221.587" y2="-133.249" gradientUnits="userSpaceOnUse">
<stop offset="0.121748" stop-color="#26252C"/>
<stop offset="0.349782" stop-color="#5D09E1"/>
<stop offset="0.693773" stop-color="#37FFDB"/>
<stop offset="1" stop-color="#E478FF"/>
</linearGradient>
<linearGradient id="paint9_linear" x1="111.779" y1="591.322" x2="319.809" y2="-303.249" gradientUnits="userSpaceOnUse">
<stop offset="0.121748" stop-color="#26252C"/>
<stop offset="0.235062" stop-color="#5D09E1"/>
<stop offset="0.487065" stop-color="#37FFDB"/>
<stop offset="0.649294" stop-color="#E478FF"/>
</linearGradient>
<linearGradient id="paint10_linear" x1="-177.221" y1="658.322" x2="30.8091" y2="-236.249" gradientUnits="userSpaceOnUse">
<stop offset="0.121748" stop-color="#26252C"/>
<stop offset="0.235062" stop-color="#5D09E1"/>
<stop offset="0.389843" stop-color="#37FFDB"/>
<stop offset="0.536659" stop-color="#E478FF"/>
<stop offset="0.826519" stop-color="#26252C"/>
</linearGradient>
<linearGradient id="paint11_linear" x1="2096.44" y1="658.322" x2="1888.41" y2="-236.249" gradientUnits="userSpaceOnUse">
<stop offset="0.121748" stop-color="#26252C"/>
<stop offset="0.235062" stop-color="#5D09E1"/>
<stop offset="0.389843" stop-color="#37FFDB"/>
<stop offset="0.536659" stop-color="#E478FF"/>
<stop offset="0.826519" stop-color="#26252C"/>
</linearGradient>
<radialGradient id="paint12_radial" cx="0" cy="0" r="1" gradientUnits="userSpaceOnUse" gradientTransform="translate(268.74 482) rotate(46.0297) scale(849.074 8094.31)">
<stop stop-color="#1C1159"/>
<stop offset="0.186025" stop-color="#5D09E1"/>
<stop offset="0.4487" stop-color="#E478FF"/>
<stop offset="0.6228" stop-color="#8479FF"/>
<stop offset="0.816129" stop-color="#8CF1FF"/>
<stop offset="1" stop-color="#37FFDB"/>
</radialGradient>
<radialGradient id="paint13_radial" cx="0" cy="0" r="1" gradientUnits="userSpaceOnUse" gradientTransform="translate(268.74 482) rotate(46.0297) scale(849.074 8094.31)">
<stop stop-color="#1C1159"/>
<stop offset="0.186025" stop-color="#5D09E1"/>
<stop offset="0.4487" stop-color="#E478FF"/>
<stop offset="0.6228" stop-color="#8479FF"/>
<stop offset="0.816129" stop-color="#8CF1FF"/>
<stop offset="1" stop-color="#37FFDB"/>
</radialGradient>
<radialGradient id="paint14_radial" cx="0" cy="0" r="1" gradientUnits="userSpaceOnUse" gradientTransform="translate(1653.88 437.5) rotate(168.742) scale(889.605 8480.69)">
<stop stop-color="#1C1159"/>
<stop offset="0.186025" stop-color="#5D09E1"/>
<stop offset="0.374309" stop-color="#E478FF"/>
<stop offset="0.502698" stop-color="#8479FF"/>
<stop offset="0.688061" stop-color="#8CF1FF"/>
<stop offset="1" stop-color="#37FFDB"/>
</radialGradient>
<radialGradient id="paint15_radial" cx="0" cy="0" r="1" gradientUnits="userSpaceOnUse" gradientTransform="translate(1653.88 437.74) rotate(168.742) scale(889.605 8480.69)">
<stop stop-color="#1C1159"/>
<stop offset="0.186025" stop-color="#5D09E1"/>
<stop offset="0.374309" stop-color="#E478FF"/>
<stop offset="0.502698" stop-color="#8479FF"/>
<stop offset="0.688061" stop-color="#8CF1FF"/>
<stop offset="1" stop-color="#37FFDB"/>
</radialGradient>
<radialGradient id="paint16_radial" cx="0" cy="0" r="1" gradientUnits="userSpaceOnUse" gradientTransform="translate(947.154 1193.68) rotate(-54.2577) scale(493.929 4708.68)">
<stop stop-color="#1C1159"/>
<stop offset="0.186025" stop-color="#5D09E1"/>
<stop offset="0.4487" stop-color="#E478FF"/>
<stop offset="0.6228" stop-color="#8479FF"/>
<stop offset="0.816129" stop-color="#8CF1FF"/>
<stop offset="1" stop-color="#37FFDB"/>
</radialGradient>
<linearGradient id="paint17_linear" x1="960" y1="0" x2="960" y2="173" gradientUnits="userSpaceOnUse">
<stop stop-color="#26252C"/>
<stop offset="0.800687" stop-color="#26252C" stop-opacity="0"/>
</linearGradient>
<linearGradient id="paint18_linear" x1="2880" y1="1393" x2="2880" y2="1566" gradientUnits="userSpaceOnUse">
<stop stop-color="#26252C"/>
<stop offset="0.800687" stop-color="#26252C" stop-opacity="0"/>
</linearGradient>
<linearGradient id="paint19_linear" x1="0" y1="695" x2="180" y2="695" gradientUnits="userSpaceOnUse">
<stop offset="0.0938666" stop-color="#26252C"/>
<stop offset="0.800687" stop-color="#26252C" stop-opacity="0"/>
</linearGradient>
<linearGradient id="paint20_linear" x1="0" y1="695" x2="180" y2="695" gradientUnits="userSpaceOnUse">
<stop offset="0.0938666" stop-color="#26252C"/>
<stop offset="0.800687" stop-color="#26252C" stop-opacity="0"/>
</linearGradient>
</defs>
</svg>
