<svg width="148" height="128" viewBox="0 0 148 128" fill="none" xmlns="http://www.w3.org/2000/svg">
<g clip-path="url(#clip0)">
<g clip-path="url(#clip1)">
<path fill-rule="evenodd" clip-rule="evenodd" d="M47.2637 43.2541L72.4397 -0.402344L79.0105 53.2454C79.5027 57.2321 80.3887 65.3038 76.082 71.8252C70.6432 79.5033 66.1395 81.1029 61.5867 82.7024C59.3472 83.4899 57.0831 84.302 54.7205 85.8278C46.5008 90.6758 -0.258118 125.596 -0.258118 125.596L47.8297 63.4089C48.5434 62.4984 48.8387 61.3664 48.6911 60.2344L46.7469 45.9365C46.5992 45.0014 46.7961 44.0662 47.2637 43.2541Z" fill="url(#paint0_radial)"/>
<path fill-rule="evenodd" clip-rule="evenodd" d="M47.2637 43.2541L72.4397 -0.402344L79.0105 53.2454C79.5027 57.2321 80.3887 65.3038 76.082 71.8252C70.6432 79.5033 66.1395 81.1029 61.5867 82.7024C59.3472 83.4899 57.0831 84.302 54.7205 85.8278C46.5008 90.6758 -0.258118 125.596 -0.258118 125.596L47.8297 63.4089C48.5434 62.4984 48.8387 61.3664 48.6911 60.2344L46.7469 45.9365C46.5992 45.0014 46.7961 44.0662 47.2637 43.2541Z" fill="url(#paint1_linear)"/>
<path fill-rule="evenodd" clip-rule="evenodd" d="M47.2637 43.2541L72.4397 -0.402344L79.0105 53.2454C79.5027 57.2321 80.3887 65.3038 76.082 71.8252C70.6432 79.5033 66.1395 81.1029 61.5867 82.7024C59.3472 83.4899 57.0831 84.302 54.7205 85.8278C46.5008 90.6758 -0.258118 125.596 -0.258118 125.596L47.8297 63.4089C48.5434 62.4984 48.8387 61.3664 48.6911 60.2344L46.7469 45.9365C46.5992 45.0014 46.7961 44.0662 47.2637 43.2541Z" fill="url(#paint2_radial)"/>
<path fill-rule="evenodd" clip-rule="evenodd" d="M121.878 80.7253L147.098 124.357L97.3523 103.223C93.6537 101.656 86.2204 98.3875 82.726 91.3971C78.7961 82.8479 79.6626 78.1479 80.5537 73.4052C80.9915 71.072 81.4203 68.7052 81.2802 65.8963C81.1916 56.3538 74.3292 -1.60075 74.3292 -1.60075L104.141 71.1381C104.573 72.2114 105.405 73.0332 106.459 73.4713L119.814 78.9365C120.698 79.2762 121.409 79.9143 121.878 80.7253Z" fill="url(#paint3_radial)"/>
<path fill-rule="evenodd" clip-rule="evenodd" d="M121.878 80.7253L147.098 124.357L97.3523 103.223C93.6537 101.656 86.2204 98.3875 82.726 91.3971C78.7961 82.8479 79.6626 78.1479 80.5537 73.4052C80.9915 71.072 81.4203 68.7052 81.2802 65.8963C81.1916 56.3538 74.3292 -1.60075 74.3292 -1.60075L104.141 71.1381C104.573 72.2114 105.405 73.0332 106.459 73.4713L119.814 78.9365C120.698 79.2762 121.409 79.9143 121.878 80.7253Z" fill="url(#paint4_linear)"/>
<path fill-rule="evenodd" clip-rule="evenodd" d="M121.878 80.7253L147.098 124.357L97.3523 103.223C93.6537 101.656 86.2204 98.3875 82.726 91.3971C78.7961 82.8479 79.6626 78.1479 80.5537 73.4052C80.9915 71.072 81.4203 68.7052 81.2802 65.8963C81.1916 56.3538 74.3292 -1.60075 74.3292 -1.60075L104.141 71.1381C104.573 72.2114 105.405 73.0332 106.459 73.4713L119.814 78.9365C120.698 79.2762 121.409 79.9143 121.878 80.7253Z" fill="url(#paint5_radial)"/>
<path fill-rule="evenodd" clip-rule="evenodd" d="M51.8936 127.215L1.49804 127.24L44.6729 94.7257C47.8794 92.3061 54.4267 87.503 62.2278 87.972C71.5966 88.8432 75.2337 91.9436 78.8954 95.0867C80.6971 96.6324 82.5325 98.1872 85.0351 99.4703C93.3434 104.165 146.965 127.199 146.965 127.199L69.0652 116.647C67.9198 116.485 66.7918 116.795 65.8853 117.489L54.475 126.321C53.739 126.917 52.8307 127.214 51.8936 127.215Z" fill="url(#paint6_radial)"/>
<path fill-rule="evenodd" clip-rule="evenodd" d="M51.8936 127.215L1.49804 127.24L44.6729 94.7257C47.8794 92.3061 54.4267 87.503 62.2278 87.972C71.5966 88.8432 75.2337 91.9436 78.8954 95.0867C80.6971 96.6324 82.5325 98.1872 85.0351 99.4703C93.3434 104.165 146.965 127.199 146.965 127.199L69.0652 116.647C67.9198 116.485 66.7918 116.795 65.8853 117.489L54.475 126.321C53.739 126.917 52.8307 127.214 51.8936 127.215Z" fill="url(#paint7_linear)"/>
<path fill-rule="evenodd" clip-rule="evenodd" d="M51.8936 127.215L1.49804 127.24L44.6729 94.7257C47.8794 92.3061 54.4267 87.503 62.2278 87.972C71.5966 88.8432 75.2337 91.9436 78.8954 95.0867C80.6971 96.6324 82.5325 98.1872 85.0351 99.4703C93.3434 104.165 146.965 127.199 146.965 127.199L69.0652 116.647C67.9198 116.485 66.7918 116.795 65.8853 117.489L54.475 126.321C53.739 126.917 52.8307 127.214 51.8936 127.215Z" fill="url(#paint8_radial)"/>
</g>
</g>
<defs>
<radialGradient id="paint0_radial" cx="0" cy="0" r="1" gradientUnits="userSpaceOnUse" gradientTransform="translate(78.2244 68.1901) rotate(143.806) scale(97.2162 111.395)">
<stop stop-color="#A2EEFF"/>
<stop offset="0.183464" stop-color="#57D7FF"/>
<stop offset="0.526042" stop-color="#A973FF"/>
<stop offset="0.838542" stop-color="#E478FF"/>
<stop offset="1" stop-color="#1C1159"/>
</radialGradient>
<linearGradient id="paint1_linear" x1="79.3739" y1="63.9977" x2="41.9099" y2="60.9976" gradientUnits="userSpaceOnUse">
<stop stop-color="white" stop-opacity="0.8"/>
<stop offset="0.0803128" stop-color="white" stop-opacity="0.67"/>
<stop offset="0.321849" stop-color="#86F4FE" stop-opacity="0"/>
</linearGradient>
<radialGradient id="paint2_radial" cx="0" cy="0" r="1" gradientUnits="userSpaceOnUse" gradientTransform="translate(2.43893 36.2526) rotate(15.9454) scale(87.3334 91.7728)">
<stop offset="0.43672" stop-color="#27043F" stop-opacity="0"/>
<stop offset="0.524525" stop-color="#6A10DA" stop-opacity="0.37"/>
<stop offset="0.798456" stop-color="#38FFDC" stop-opacity="0"/>
</radialGradient>
<radialGradient id="paint3_radial" cx="0" cy="0" r="1" gradientUnits="userSpaceOnUse" gradientTransform="translate(84.803 95.07) rotate(-96.194) scale(97.2162 111.395)">
<stop stop-color="#A2EEFF"/>
<stop offset="0.183464" stop-color="#57D7FF"/>
<stop offset="0.526042" stop-color="#A973FF"/>
<stop offset="0.838542" stop-color="#E478FF"/>
<stop offset="1" stop-color="#1C1159"/>
</radialGradient>
<linearGradient id="paint4_linear" x1="87.8589" y1="98.1618" x2="109.189" y2="67.217" gradientUnits="userSpaceOnUse">
<stop stop-color="white" stop-opacity="0.8"/>
<stop offset="0.0803128" stop-color="white" stop-opacity="0.67"/>
<stop offset="0.321849" stop-color="#86F4FE" stop-opacity="0"/>
</linearGradient>
<radialGradient id="paint5_radial" cx="0" cy="0" r="1" gradientUnits="userSpaceOnUse" gradientTransform="translate(150.354 45.4067) rotate(135.945) scale(87.3333 91.7728)">
<stop offset="0.43672" stop-color="#27043F" stop-opacity="0"/>
<stop offset="0.524525" stop-color="#6A10DA" stop-opacity="0.37"/>
<stop offset="0.798456" stop-color="#38FFDC" stop-opacity="0"/>
</radialGradient>
<radialGradient id="paint6_radial" cx="0" cy="0" r="1" gradientUnits="userSpaceOnUse" gradientTransform="translate(58.0085 87.9342) rotate(23.806) scale(97.2162 111.395)">
<stop stop-color="#A2EEFF"/>
<stop offset="0.183464" stop-color="#57D7FF"/>
<stop offset="0.526042" stop-color="#A973FF"/>
<stop offset="0.838542" stop-color="#E478FF"/>
<stop offset="1" stop-color="#1C1159"/>
</radialGradient>
<linearGradient id="paint7_linear" x1="53.803" y1="89.0349" x2="69.9368" y2="122.98" gradientUnits="userSpaceOnUse">
<stop stop-color="white" stop-opacity="0.8"/>
<stop offset="0.0803128" stop-color="white" stop-opacity="0.67"/>
<stop offset="0.321849" stop-color="#86F4FE" stop-opacity="0"/>
</linearGradient>
<radialGradient id="paint8_radial" cx="0" cy="0" r="1" gradientUnits="userSpaceOnUse" gradientTransform="translate(68.2425 169.535) rotate(-104.055) scale(87.3333 91.7728)">
<stop offset="0.43672" stop-color="#27043F" stop-opacity="0"/>
<stop offset="0.524525" stop-color="#6A10DA" stop-opacity="0.37"/>
<stop offset="0.798456" stop-color="#38FFDC" stop-opacity="0"/>
</radialGradient>
<clipPath id="clip0">
<rect width="147.586" height="128" fill="white"/>
</clipPath>
<clipPath id="clip1">
<rect width="147.586" height="128" fill="white"/>
</clipPath>
</defs>
</svg>
