<svg width="1736" height="1736" viewBox="0 0 1736 1736" fill="none" xmlns="http://www.w3.org/2000/svg">
<path d="M1736 868C1736 1347.38 1347.38 1736 868 1736C388.617 1736 0 1347.38 0 868C0 388.617 388.617 0 868 0C1347.38 0 1736 388.617 1736 868Z" fill="#26252C"/>
<g clip-path="url(#clip0)">
<path fill-rule="evenodd" clip-rule="evenodd" d="M687.762 605.631L874.522 282L923.266 679.697C926.917 709.251 933.489 769.088 901.541 817.432C861.195 874.35 827.787 886.208 794.013 898.066C777.4 903.903 760.604 909.924 743.078 921.234C682.103 957.173 335.237 1216.04 335.237 1216.04L691.961 755.041C697.256 748.291 699.446 739.899 698.351 731.507L683.929 625.515C682.833 618.583 684.294 611.651 687.762 605.631Z" fill="url(#paint0_radial)"/>
<path fill-rule="evenodd" clip-rule="evenodd" d="M687.762 605.631L874.522 282L923.266 679.697C926.917 709.251 933.489 769.088 901.541 817.432C861.195 874.35 827.787 886.208 794.013 898.066C777.4 903.903 760.604 909.924 743.078 921.234C682.103 957.173 335.237 1216.04 335.237 1216.04L691.961 755.041C697.256 748.291 699.446 739.899 698.351 731.507L683.929 625.515C682.833 618.583 684.294 611.651 687.762 605.631Z" fill="url(#paint1_linear)"/>
<path fill-rule="evenodd" clip-rule="evenodd" d="M687.762 605.631L874.522 282L923.266 679.697C926.917 709.251 933.489 769.088 901.541 817.432C861.195 874.35 827.787 886.208 794.013 898.066C777.4 903.903 760.604 909.924 743.078 921.234C682.103 957.173 335.237 1216.04 335.237 1216.04L691.961 755.041C697.256 748.291 699.446 739.899 698.351 731.507L683.929 625.515C682.833 618.583 684.294 611.651 687.762 605.631Z" fill="url(#paint2_radial)"/>
<path fill-rule="evenodd" clip-rule="evenodd" d="M687.762 605.631L874.522 282L923.266 679.697C926.917 709.251 933.489 769.088 901.541 817.432C861.195 874.35 827.787 886.208 794.013 898.066C777.4 903.903 760.604 909.924 743.078 921.234C682.103 957.173 335.237 1216.04 335.237 1216.04L691.961 755.041C697.255 748.291 699.446 739.899 698.351 731.507L683.929 625.515C682.833 618.583 684.294 611.651 687.762 605.631Z" fill="url(#paint3_radial)"/>
<path fill-rule="evenodd" clip-rule="evenodd" d="M688.001 605.631L874.76 282L923.504 679.697C927.155 709.251 933.728 769.088 901.779 817.432C861.433 874.35 828.025 886.208 794.251 898.066C777.638 903.903 760.842 909.924 743.317 921.234C682.341 957.173 335.476 1216.04 335.476 1216.04L692.199 755.041C697.494 748.291 699.684 739.899 698.589 731.507L684.167 625.515C683.071 618.583 684.532 611.651 688.001 605.631Z" fill="url(#paint4_radial)"/>
<path fill-rule="evenodd" clip-rule="evenodd" d="M688.001 605.631L874.76 282L923.504 679.697C927.155 709.251 933.728 769.088 901.779 817.432C861.433 874.35 828.025 886.208 794.251 898.066C777.638 903.903 760.842 909.924 743.317 921.234C682.341 957.173 335.476 1216.04 335.476 1216.04L692.199 755.041C697.494 748.291 699.684 739.899 698.589 731.507L684.167 625.515C683.071 618.583 684.532 611.651 688.001 605.631Z" fill="url(#paint5_radial)"/>
<path fill-rule="evenodd" clip-rule="evenodd" d="M1240.49 884.89L1427.57 1208.33L1058.55 1051.67C1031.11 1040.05 975.969 1015.82 950.048 964.001C920.894 900.625 927.322 865.783 933.933 830.625C937.18 813.328 940.361 795.783 939.322 774.96C938.665 704.22 887.758 274.597 887.758 274.597L1108.91 813.818C1112.11 821.775 1118.29 827.867 1126.11 831.115L1225.17 871.629C1231.73 874.147 1237 878.878 1240.49 884.89Z" fill="url(#paint6_radial)"/>
<path fill-rule="evenodd" clip-rule="evenodd" d="M1240.49 884.89L1427.57 1208.33L1058.55 1051.67C1031.11 1040.05 975.969 1015.82 950.048 964.001C920.894 900.625 927.322 865.783 933.933 830.625C937.18 813.328 940.361 795.783 939.322 774.96C938.665 704.22 887.758 274.597 887.758 274.597L1108.91 813.818C1112.11 821.775 1118.29 827.867 1126.11 831.115L1225.17 871.629C1231.73 874.147 1237 878.878 1240.49 884.89Z" fill="url(#paint7_linear)"/>
<path fill-rule="evenodd" clip-rule="evenodd" d="M1240.49 884.89L1427.57 1208.33L1058.55 1051.67C1031.11 1040.05 975.969 1015.82 950.048 964.001C920.894 900.625 927.322 865.783 933.933 830.625C937.18 813.328 940.361 795.783 939.322 774.96C938.665 704.22 887.758 274.597 887.758 274.597L1108.91 813.818C1112.11 821.775 1118.29 827.867 1126.11 831.115L1225.17 871.629C1231.73 874.147 1237 878.878 1240.49 884.89Z" fill="url(#paint8_radial)"/>
<path fill-rule="evenodd" clip-rule="evenodd" d="M1240.49 884.89L1427.57 1208.33L1058.55 1051.67C1031.11 1040.05 975.969 1015.82 950.048 964.001C920.894 900.625 927.322 865.783 933.933 830.625C937.18 813.328 940.361 795.783 939.322 774.96C938.665 704.22 887.758 274.597 887.758 274.597L1108.91 813.818C1112.11 821.775 1118.29 827.867 1126.11 831.115L1225.17 871.629C1231.73 874.147 1237 878.878 1240.49 884.89Z" fill="url(#paint9_radial)"/>
<path fill-rule="evenodd" clip-rule="evenodd" d="M1240.37 885.091L1427.45 1208.53L1058.43 1051.87C1030.99 1040.25 975.85 1016.02 949.928 964.202C920.775 900.826 927.203 865.984 933.814 830.826C937.061 813.53 940.242 795.984 939.203 775.161C938.545 704.422 887.639 274.798 887.639 274.798L1108.79 814.02C1111.99 821.976 1118.17 828.068 1125.99 831.316L1225.05 871.83C1231.61 874.349 1236.89 879.079 1240.37 885.091Z" fill="url(#paint10_radial)"/>
<path fill-rule="evenodd" clip-rule="evenodd" d="M687.762 605.631L874.522 282L923.266 679.697C926.917 709.251 933.489 769.088 901.541 817.432C861.195 874.35 827.786 886.208 794.013 898.066C777.4 903.903 760.604 909.924 743.078 921.234C682.103 957.173 335.237 1216.04 335.237 1216.04L691.961 755.041C697.255 748.291 699.446 739.899 698.351 731.507L683.929 625.515C682.833 618.583 684.294 611.651 687.762 605.631Z" fill="url(#paint11_radial)"/>
<path fill-rule="evenodd" clip-rule="evenodd" d="M687.762 605.631L874.522 282L923.266 679.697C926.917 709.251 933.489 769.088 901.541 817.432C861.195 874.35 827.786 886.208 794.013 898.066C777.4 903.903 760.604 909.924 743.078 921.234C682.103 957.173 335.237 1216.04 335.237 1216.04L691.961 755.041C697.255 748.291 699.446 739.899 698.351 731.507L683.929 625.515C682.833 618.583 684.294 611.651 687.762 605.631Z" fill="url(#paint12_linear)"/>
<path fill-rule="evenodd" clip-rule="evenodd" d="M687.762 605.631L874.522 282L923.266 679.697C926.917 709.251 933.489 769.088 901.541 817.432C861.195 874.35 827.786 886.208 794.013 898.066C777.4 903.903 760.604 909.924 743.078 921.234C682.103 957.173 335.237 1216.04 335.237 1216.04L691.961 755.041C697.255 748.291 699.446 739.899 698.351 731.507L683.929 625.515C682.833 618.583 684.294 611.651 687.762 605.631Z" fill="url(#paint13_radial)"/>
<path fill-rule="evenodd" clip-rule="evenodd" d="M687.762 605.631L874.522 282L923.266 679.697C926.917 709.251 933.489 769.088 901.541 817.432C861.195 874.35 827.786 886.208 794.013 898.066C777.4 903.903 760.604 909.924 743.078 921.234C682.103 957.173 335.237 1216.04 335.237 1216.04L691.961 755.041C697.255 748.291 699.446 739.899 698.351 731.507L683.929 625.515C682.833 618.583 684.294 611.651 687.762 605.631Z" fill="url(#paint14_radial)"/>
<path fill-rule="evenodd" clip-rule="evenodd" d="M688.001 605.631L874.76 282L923.504 679.697C927.155 709.251 933.728 769.088 901.779 817.432C861.433 874.35 828.025 886.208 794.251 898.066C777.638 903.903 760.842 909.924 743.317 921.234C682.341 957.173 335.476 1216.04 335.476 1216.04L692.199 755.041C697.494 748.291 699.684 739.899 698.589 731.507L684.167 625.515C683.071 618.583 684.532 611.651 688.001 605.631Z" fill="url(#paint15_radial)"/>
<path fill-rule="evenodd" clip-rule="evenodd" d="M687.762 605.631L874.522 282L923.266 679.697C926.917 709.251 933.489 769.088 901.541 817.432C861.195 874.35 827.786 886.208 794.013 898.066C777.4 903.903 760.604 909.924 743.078 921.234C682.103 957.173 335.237 1216.04 335.237 1216.04L691.961 755.041C697.255 748.291 699.446 739.899 698.351 731.507L683.929 625.515C682.833 618.583 684.294 611.651 687.762 605.631Z" fill="url(#paint16_radial)"/>
<path fill-rule="evenodd" clip-rule="evenodd" d="M1240.25 884.89L1427.33 1208.33L1058.31 1051.67C1030.87 1040.05 975.731 1015.82 949.809 964.001C920.656 900.625 927.084 865.783 933.695 830.625C936.942 813.328 940.123 795.783 939.084 774.96C938.426 704.22 887.52 274.597 887.52 274.597L1108.67 813.818C1111.87 821.775 1118.05 827.867 1125.87 831.115L1224.93 871.629C1231.49 874.147 1236.77 878.878 1240.25 884.89Z" fill="url(#paint17_radial)"/>
<path fill-rule="evenodd" clip-rule="evenodd" d="M1240.25 884.89L1427.33 1208.33L1058.31 1051.67C1030.87 1040.05 975.731 1015.82 949.809 964.001C920.656 900.625 927.084 865.783 933.695 830.625C936.942 813.328 940.123 795.783 939.084 774.96C938.426 704.22 887.52 274.597 887.52 274.597L1108.67 813.818C1111.87 821.775 1118.05 827.867 1125.87 831.115L1224.93 871.629C1231.49 874.147 1236.77 878.878 1240.25 884.89Z" fill="url(#paint18_linear)"/>
<path fill-rule="evenodd" clip-rule="evenodd" d="M1240.25 884.89L1427.33 1208.33L1058.31 1051.67C1030.87 1040.05 975.731 1015.82 949.809 964.001C920.656 900.625 927.084 865.783 933.695 830.625C936.942 813.328 940.123 795.783 939.084 774.96C938.426 704.22 887.52 274.597 887.52 274.597L1108.67 813.818C1111.87 821.775 1118.05 827.867 1125.87 831.115L1224.93 871.629C1231.49 874.147 1236.77 878.878 1240.25 884.89Z" fill="url(#paint19_radial)"/>
<path fill-rule="evenodd" clip-rule="evenodd" d="M1240.25 884.89L1427.33 1208.33L1058.31 1051.67C1030.87 1040.05 975.731 1015.82 949.809 964.001C920.656 900.625 927.084 865.783 933.695 830.625C936.942 813.328 940.123 795.783 939.084 774.96C938.426 704.22 887.52 274.597 887.52 274.597L1108.67 813.818C1111.87 821.775 1118.05 827.867 1125.87 831.115L1224.93 871.629C1231.49 874.147 1236.77 878.878 1240.25 884.89Z" fill="url(#paint20_radial)"/>
<path fill-rule="evenodd" clip-rule="evenodd" d="M1240.13 885.091L1427.21 1208.53L1058.19 1051.87C1030.75 1040.25 975.612 1016.02 949.69 964.202C920.537 900.826 926.965 865.984 933.576 830.826C936.823 813.53 940.004 795.984 938.965 775.161C938.307 704.422 887.401 274.798 887.401 274.798L1108.55 814.02C1111.75 821.976 1117.93 828.068 1125.75 831.316L1224.81 871.83C1231.37 874.349 1236.65 879.079 1240.13 885.091Z" fill="url(#paint21_radial)"/>
<path fill-rule="evenodd" clip-rule="evenodd" d="M1240.25 884.89L1427.33 1208.33L1058.31 1051.67C1030.87 1040.05 975.731 1015.82 949.809 964.001C920.656 900.625 927.084 865.783 933.695 830.625C936.942 813.328 940.123 795.783 939.084 774.96C938.426 704.22 887.52 274.597 887.52 274.597L1108.67 813.818C1111.87 821.775 1118.05 827.867 1125.87 831.115L1224.93 871.629C1231.49 874.147 1236.77 878.878 1240.25 884.89Z" fill="url(#paint22_radial)"/>
<path fill-rule="evenodd" clip-rule="evenodd" d="M721.091 1229.52L347.248 1229.71L667.527 988.673C691.313 970.736 739.883 935.13 797.752 938.607C867.251 945.065 894.232 968.049 921.395 991.349C934.761 1002.81 948.376 1014.33 966.941 1023.84C1028.57 1058.65 1426.35 1229.4 1426.35 1229.4L848.473 1151.18C839.976 1149.97 831.609 1152.27 824.884 1157.42L740.241 1222.89C734.781 1227.31 728.043 1229.51 721.091 1229.52Z" fill="url(#paint23_radial)"/>
<path fill-rule="evenodd" clip-rule="evenodd" d="M721.091 1229.52L347.248 1229.71L667.527 988.673C691.313 970.736 739.883 935.13 797.752 938.607C867.251 945.065 894.232 968.049 921.395 991.349C934.761 1002.81 948.376 1014.33 966.941 1023.84C1028.57 1058.65 1426.35 1229.4 1426.35 1229.4L848.473 1151.18C839.976 1149.97 831.609 1152.27 824.884 1157.42L740.241 1222.89C734.781 1227.31 728.043 1229.51 721.091 1229.52Z" fill="url(#paint24_linear)"/>
<path fill-rule="evenodd" clip-rule="evenodd" d="M721.091 1229.52L347.248 1229.71L667.527 988.673C691.313 970.736 739.883 935.13 797.752 938.607C867.251 945.065 894.232 968.049 921.395 991.349C934.761 1002.81 948.376 1014.33 966.941 1023.84C1028.57 1058.65 1426.35 1229.4 1426.35 1229.4L848.473 1151.18C839.976 1149.97 831.609 1152.27 824.884 1157.42L740.241 1222.89C734.781 1227.31 728.043 1229.51 721.091 1229.52Z" fill="url(#paint25_radial)"/>
<path fill-rule="evenodd" clip-rule="evenodd" d="M721.091 1229.52L347.248 1229.71L667.527 988.673C691.313 970.736 739.883 935.13 797.752 938.607C867.251 945.065 894.232 968.049 921.395 991.349C934.761 1002.81 948.376 1014.33 966.941 1023.84C1028.57 1058.65 1426.35 1229.4 1426.35 1229.4L848.473 1151.18C839.976 1149.97 831.609 1152.27 824.884 1157.42L740.241 1222.89C734.781 1227.31 728.043 1229.51 721.091 1229.52Z" fill="url(#paint26_radial)"/>
<path fill-rule="evenodd" clip-rule="evenodd" d="M720.973 1229.32L347.13 1229.5L667.409 988.469C691.195 970.533 739.765 934.926 797.634 938.403C867.133 944.861 894.114 967.845 921.277 991.145C934.643 1002.6 948.258 1014.13 966.823 1023.64C1028.46 1058.44 1426.23 1229.2 1426.23 1229.2L848.355 1150.98C839.858 1149.77 831.491 1152.07 824.766 1157.21L740.123 1222.69C734.663 1227.11 727.925 1229.31 720.973 1229.32Z" fill="url(#paint27_radial)"/>
<path fill-rule="evenodd" clip-rule="evenodd" d="M721.091 1229.52L347.248 1229.71L667.527 988.673C691.313 970.736 739.883 935.13 797.752 938.607C867.251 945.065 894.232 968.049 921.395 991.349C934.761 1002.81 948.376 1014.33 966.941 1023.84C1028.57 1058.65 1426.35 1229.4 1426.35 1229.4L848.473 1151.18C839.976 1149.97 831.609 1152.27 824.884 1157.42L740.241 1222.89C734.781 1227.31 728.043 1229.51 721.091 1229.52Z" fill="url(#paint28_radial)"/>
</g>
<path fill-rule="evenodd" clip-rule="evenodd" d="M709.73 115.64V115.64C700.123 103.166 684.125 97.304 668.883 101.251C391.476 173.08 173.071 391.484 101.241 668.891C97.2945 684.133 103.161 700.13 115.64 709.73V709.73C177.91 412.21 412.21 177.92 709.73 115.64ZM115.47 1025.44V1025.44C102.983 1035.05 97.1042 1051.05 101.037 1066.31C172.652 1344.1 391.211 1562.85 668.881 1634.76C684.123 1638.71 700.12 1632.84 709.72 1620.36V1620.36C411.93 1558.03 177.48 1323.35 115.47 1025.44ZM1025.44 1620.53V1620.53C1035.05 1633.02 1051.05 1638.9 1066.31 1634.96C1344.38 1563.28 1563.27 1344.37 1634.97 1066.31C1638.91 1051.05 1633.03 1035.05 1620.54 1025.44V1025.44C1558.47 1323.63 1323.63 1558.47 1025.44 1620.53ZM1620.36 709.73V709.73C1632.84 700.13 1638.71 684.133 1634.76 668.891C1562.85 391.212 1344.1 172.652 1066.31 101.037C1051.05 97.1042 1035.05 102.983 1025.44 115.47V115.47C1323.35 177.48 1558.03 411.93 1620.36 709.73Z" fill="url(#paint29_radial)"/>
<defs>
<radialGradient id="paint0_radial" cx="0" cy="0" r="1" gradientUnits="userSpaceOnUse" gradientTransform="translate(917.434 790.484) rotate(143.825) scale(720.995 825.983)">
<stop stop-color="#1C1159"/>
<stop offset="0.4487" stop-color="#FF78D1"/>
<stop offset="0.6228" stop-color="#FFC979"/>
<stop offset="0.7685" stop-color="#FFF58C"/>
<stop offset="0.8983" stop-color="white"/>
</radialGradient>
<linearGradient id="paint1_linear" x1="925.961" y1="759.405" x2="614.405" y2="719.32" gradientUnits="userSpaceOnUse">
<stop offset="0.0456257" stop-color="#0F0F13" stop-opacity="0.67"/>
<stop offset="0.321849" stop-color="#582C7A" stop-opacity="0"/>
</linearGradient>
<radialGradient id="paint2_radial" cx="0" cy="0" r="1" gradientUnits="userSpaceOnUse" gradientTransform="translate(142.602 453.984) rotate(2.95193) scale(834.911 3337.7)">
<stop offset="0.735423" stop-color="#D7468C" stop-opacity="0.24"/>
<stop offset="0.908835" stop-color="#27043F" stop-opacity="0.32"/>
</radialGradient>
<radialGradient id="paint3_radial" cx="0" cy="0" r="1" gradientUnits="userSpaceOnUse" gradientTransform="translate(355.244 553.727) rotate(9.2692) scale(697.026 766.466)">
<stop offset="0.11701" stop-color="#27043F" stop-opacity="0"/>
<stop offset="0.56027" stop-color="#E33272" stop-opacity="0.4"/>
<stop offset="0.779103" stop-color="#9036EC" stop-opacity="0.17"/>
</radialGradient>
<radialGradient id="paint4_radial" cx="0" cy="0" r="1" gradientUnits="userSpaceOnUse" gradientTransform="translate(335.476 1216.05) rotate(-36.999) scale(805.03 845.793)">
<stop stop-color="white"/>
<stop offset="0.185217" stop-color="#FFD79A"/>
<stop offset="0.34495" stop-color="#FFBF51"/>
<stop offset="0.629193" stop-color="#FF778F" stop-opacity="0.03"/>
</radialGradient>
<radialGradient id="paint5_radial" cx="0" cy="0" r="1" gradientUnits="userSpaceOnUse" gradientTransform="translate(874.035 282) rotate(82.6938) scale(478.323 153.872)">
<stop stop-color="#FFBF51"/>
<stop offset="0.520833" stop-color="#E33272" stop-opacity="0.28"/>
<stop offset="1" stop-color="#46008E" stop-opacity="0"/>
</radialGradient>
<radialGradient id="paint6_radial" cx="0" cy="0" r="1" gradientUnits="userSpaceOnUse" gradientTransform="translate(965.455 991.229) rotate(-96.1982) scale(720.681 826.343)">
<stop stop-color="#1C1159"/>
<stop offset="0.4487" stop-color="#FF78D1"/>
<stop offset="0.6228" stop-color="#FFC979"/>
<stop offset="0.7685" stop-color="#FFF58C"/>
<stop offset="0.8983" stop-color="white"/>
</radialGradient>
<linearGradient id="paint7_linear" x1="988.124" y1="1014.15" x2="1178.43" y2="764.401" gradientUnits="userSpaceOnUse">
<stop offset="0.0456257" stop-color="#0F0F13" stop-opacity="0.67"/>
<stop offset="0.321849" stop-color="#582C7A" stop-opacity="0"/>
</linearGradient>
<radialGradient id="paint8_radial" cx="0" cy="0" r="1" gradientUnits="userSpaceOnUse" gradientTransform="translate(1016.38 1074.96) rotate(-30.5712) scale(503.552 955.146)">
<stop offset="0.1475" stop-color="#27043F" stop-opacity="0.12"/>
<stop offset="0.456553" stop-color="#DB3B80" stop-opacity="0.08"/>
</radialGradient>
<radialGradient id="paint9_radial" cx="0" cy="0" r="1" gradientUnits="userSpaceOnUse" gradientTransform="translate(1451.73 623.068) rotate(135.965) scale(647.641 680.547)">
<stop offset="0.11701" stop-color="#27043F" stop-opacity="0"/>
<stop offset="0.535374" stop-color="#E33272" stop-opacity="0.4"/>
<stop offset="0.700045" stop-color="#9036EC" stop-opacity="0.17"/>
</radialGradient>
<radialGradient id="paint10_radial" cx="0" cy="0" r="1" gradientUnits="userSpaceOnUse" gradientTransform="translate(887.629 274.792) rotate(82.9775) scale(804.689 846.152)">
<stop offset="0.0916302" stop-color="white"/>
<stop offset="0.225286" stop-color="#FFD79A"/>
<stop offset="0.486767" stop-color="#FF77F3" stop-opacity="0"/>
</radialGradient>
<radialGradient id="paint11_radial" cx="0" cy="0" r="1" gradientUnits="userSpaceOnUse" gradientTransform="translate(917.434 790.484) rotate(143.825) scale(720.995 825.983)">
<stop stop-color="#1C1159"/>
<stop offset="0.0281713" stop-color="#5D09E1"/>
<stop offset="0.4487" stop-color="#E478FF"/>
<stop offset="0.6228" stop-color="#8479FF"/>
<stop offset="0.7685" stop-color="#8CF1FF"/>
<stop offset="0.8983" stop-color="#37FFDB"/>
</radialGradient>
<linearGradient id="paint12_linear" x1="925.961" y1="759.405" x2="614.405" y2="719.32" gradientUnits="userSpaceOnUse">
<stop offset="0.0456257" stop-color="#0F0F13" stop-opacity="0.67"/>
<stop offset="0.321849" stop-color="#582C7A" stop-opacity="0"/>
</linearGradient>
<radialGradient id="paint13_radial" cx="0" cy="0" r="1" gradientUnits="userSpaceOnUse" gradientTransform="translate(964.536 704.548) rotate(-150.605) scale(503.558 955.134)">
<stop offset="0.1475" stop-color="#27043F" stop-opacity="0.12"/>
<stop offset="0.456553" stop-color="#DB3B80" stop-opacity="0.08"/>
</radialGradient>
<radialGradient id="paint14_radial" cx="0" cy="0" r="1" gradientUnits="userSpaceOnUse" gradientTransform="translate(355.244 553.727) rotate(15.9351) scale(647.821 680.357)">
<stop offset="0.11701" stop-color="#27043F" stop-opacity="0"/>
<stop offset="0.524525" stop-color="#E33272" stop-opacity="0.65"/>
<stop offset="0.700045" stop-color="#5C0FAB" stop-opacity="0.4"/>
</radialGradient>
<radialGradient id="paint15_radial" cx="0" cy="0" r="1" gradientUnits="userSpaceOnUse" gradientTransform="translate(335.476 1216.05) rotate(-36.999) scale(805.03 845.793)">
<stop offset="0.0916302" stop-color="#37FFDB"/>
<stop offset="0.225286" stop-color="#9AF9FF"/>
<stop offset="0.641005" stop-color="#C377FF" stop-opacity="0"/>
</radialGradient>
<radialGradient id="paint16_radial" cx="0" cy="0" r="1" gradientUnits="userSpaceOnUse" gradientTransform="translate(873.797 282) rotate(82.6938) scale(478.323 153.872)">
<stop stop-color="#51F5FF"/>
<stop offset="0.677663" stop-color="#8032E3" stop-opacity="0.28"/>
<stop offset="1" stop-color="#46008E" stop-opacity="0"/>
</radialGradient>
<radialGradient id="paint17_radial" cx="0" cy="0" r="1" gradientUnits="userSpaceOnUse" gradientTransform="translate(965.216 991.229) rotate(-96.1982) scale(720.681 826.343)">
<stop stop-color="#1C1159"/>
<stop offset="0.0281713" stop-color="#5D09E1"/>
<stop offset="0.4487" stop-color="#E478FF"/>
<stop offset="0.6228" stop-color="#8479FF"/>
<stop offset="0.7685" stop-color="#8CF1FF"/>
<stop offset="0.8983" stop-color="#37FFDB"/>
</radialGradient>
<linearGradient id="paint18_linear" x1="987.886" y1="1014.15" x2="1178.19" y2="764.401" gradientUnits="userSpaceOnUse">
<stop offset="0.0456257" stop-color="#0F0F13" stop-opacity="0.67"/>
<stop offset="0.321849" stop-color="#582C7A" stop-opacity="0"/>
</linearGradient>
<radialGradient id="paint19_radial" cx="0" cy="0" r="1" gradientUnits="userSpaceOnUse" gradientTransform="translate(1016.14 1074.96) rotate(-30.5712) scale(503.552 955.146)">
<stop offset="0.1475" stop-color="#27043F" stop-opacity="0.12"/>
<stop offset="0.456553" stop-color="#DB3B80" stop-opacity="0.08"/>
</radialGradient>
<radialGradient id="paint20_radial" cx="0" cy="0" r="1" gradientUnits="userSpaceOnUse" gradientTransform="translate(1451.49 623.068) rotate(135.965) scale(647.641 680.547)">
<stop offset="0.11701" stop-color="#27043F" stop-opacity="0"/>
<stop offset="0.524525" stop-color="#E33272" stop-opacity="0.65"/>
<stop offset="0.700045" stop-color="#5C0FAB" stop-opacity="0.4"/>
</radialGradient>
<radialGradient id="paint21_radial" cx="0" cy="0" r="1" gradientUnits="userSpaceOnUse" gradientTransform="translate(887.39 274.792) rotate(82.9775) scale(804.689 846.152)">
<stop offset="0.0916302" stop-color="#37FFDB"/>
<stop offset="0.225286" stop-color="#9AF9FF"/>
<stop offset="0.641005" stop-color="#C377FF" stop-opacity="0"/>
</radialGradient>
<radialGradient id="paint22_radial" cx="0" cy="0" r="1" gradientUnits="userSpaceOnUse" gradientTransform="translate(1427.69 1207.71) rotate(-157.315) scale(478.596 153.784)">
<stop stop-color="#51F5FF"/>
<stop offset="0.677663" stop-color="#8032E3" stop-opacity="0.28"/>
<stop offset="1" stop-color="#46008E" stop-opacity="0"/>
</radialGradient>
<radialGradient id="paint23_radial" cx="0" cy="0" r="1" gradientUnits="userSpaceOnUse" gradientTransform="translate(766.453 938.327) rotate(23.7916) scale(721.086 825.878)">
<stop stop-color="#1C1159"/>
<stop offset="0.0281713" stop-color="#5D09E1"/>
<stop offset="0.4487" stop-color="#E478FF"/>
<stop offset="0.6228" stop-color="#8479FF"/>
<stop offset="0.7685" stop-color="#8CF1FF"/>
<stop offset="0.8983" stop-color="#37FFDB"/>
</radialGradient>
<linearGradient id="paint24_linear" x1="735.255" y1="946.486" x2="856.205" y2="1236.2" gradientUnits="userSpaceOnUse">
<stop offset="0.0456257" stop-color="#0F0F13" stop-opacity="0.67"/>
<stop offset="0.321849" stop-color="#582C7A" stop-opacity="0"/>
</linearGradient>
<radialGradient id="paint25_radial" cx="0" cy="0" r="1" gradientUnits="userSpaceOnUse" gradientTransform="translate(668.428 940.531) rotate(89.4113) scale(503.297 955.628)">
<stop offset="0.1475" stop-color="#27043F" stop-opacity="0.12"/>
<stop offset="0.456553" stop-color="#DB3B80" stop-opacity="0.08"/>
</radialGradient>
<radialGradient id="paint26_radial" cx="0" cy="0" r="1" gradientUnits="userSpaceOnUse" gradientTransform="translate(842.37 1543.24) rotate(-104.064) scale(647.439 680.759)">
<stop offset="0.11701" stop-color="#27043F" stop-opacity="0"/>
<stop offset="0.524525" stop-color="#E33272" stop-opacity="0.65"/>
<stop offset="0.700045" stop-color="#5C0FAB" stop-opacity="0.4"/>
</radialGradient>
<radialGradient id="paint27_radial" cx="0" cy="0" r="1" gradientUnits="userSpaceOnUse" gradientTransform="translate(1426.24 1229.19) rotate(-157.032) scale(805.146 845.673)">
<stop offset="0.0916302" stop-color="#37FFDB"/>
<stop offset="0.225286" stop-color="#9AF9FF"/>
<stop offset="0.641005" stop-color="#C377FF" stop-opacity="0"/>
</radialGradient>
<radialGradient id="paint28_radial" cx="0" cy="0" r="1" gradientUnits="userSpaceOnUse" gradientTransform="translate(347.611 1230.33) rotate(-37.2824) scale(478.524 153.807)">
<stop stop-color="#51F5FF"/>
<stop offset="0.677663" stop-color="#8032E3" stop-opacity="0.28"/>
<stop offset="1" stop-color="#46008E" stop-opacity="0"/>
</radialGradient>
<radialGradient id="paint29_radial" cx="0" cy="0" r="1" gradientUnits="userSpaceOnUse" gradientTransform="translate(888.898 897.638) rotate(136.818) scale(1114.07 1021.03)">
<stop stop-color="#1C1159"/>
<stop offset="0.0281713" stop-color="#5D09E1"/>
<stop offset="0.4487" stop-color="#E478FF"/>
<stop offset="0.6228" stop-color="#8479FF"/>
<stop offset="0.7685" stop-color="#8CF1FF"/>
<stop offset="0.8983" stop-color="#37FFDB"/>
</radialGradient>
<clipPath id="clip0">
<rect width="1095" height="949" fill="white" transform="translate(335 282)"/>
</clipPath>
</defs>
</svg>
