<?xml version="1.0" standalone="no"?>
<!DOCTYPE svg PUBLIC "-//W3C//DTD SVG 20010904//EN"
 "http://www.w3.org/TR/2001/REC-SVG-20010904/DTD/svg10.dtd">
<svg version="1.0" xmlns="http://www.w3.org/2000/svg"
 width="225.000000pt" height="224.000000pt" viewBox="0 0 225.000000 224.000000"
 preserveAspectRatio="xMidYMid meet">

<g transform="translate(0.000000,224.000000) scale(0.100000,-0.100000)"
fill="#000000" stroke="none">
<path d="M1024 2229 c-256 -19 -501 -134 -690 -323 -211 -212 -324 -485 -324
-786 0 -477 294 -892 747 -1053 219 -79 505 -80 729 -3 281 95 521 306 649
571 76 159 107 298 107 485 0 299 -99 552 -301 763 -242 254 -559 373 -917
346z m350 -642 c127 -73 231 -137 230 -142 0 -6 -43 -32 -96 -59 l-95 -49
-151 86 c-83 48 -157 87 -164 87 -12 0 -261 -138 -310 -172 l-28 -19 0 -188
c0 -166 2 -190 18 -204 18 -16 310 -187 319 -187 10 0 306 172 326 188 12 11
17 30 17 69 l0 53 -50 -25 c-28 -14 -55 -23 -60 -20 -6 4 -10 53 -10 109 l0
103 179 92 c98 50 181 91 185 91 3 0 6 -49 6 -108 0 -105 -1 -109 -24 -120
-24 -11 -24 -13 -28 -166 -3 -138 -5 -158 -24 -183 -12 -17 -120 -85 -268
-171 l-247 -143 -232 133 c-128 73 -248 147 -267 164 l-35 32 -3 294 c-1 161
1 298 5 303 9 12 431 256 484 280 19 8 47 13 63 10 17 -3 134 -65 260 -138z"/>
</g>
</svg>
