<svg width="142" height="134" viewBox="0 0 142 134" fill="none" xmlns="http://www.w3.org/2000/svg">
<path d="M141.1 57.1999L137.1 50.4999L115.2 13.6999H115.1L114.4 12.3999H106.4L75.3 67.0999L106.9 121.5H114.9L115.1 121.2L141.2 76.4999H125.1L111.2 101.2L91.4 66.9999L110.8 32.7999L124.9 57.0999L141.1 57.1999Z" fill="#41E6AF"/>
<path d="M19.4 48.2998L34 23.3998L29.1 15.4998L25.7 9.8998L0.7 53.9998L0 55.1998L4 62.1998H66.9L98.6 7.8998L94.2 0.299805L50.2 0.399804H49.5L42.5 0.299805L46.2 7.2998L49.9 14.2998L78.7 14.1998L58.9 48.2998H19.4Z" fill="#41E6AF"/>
<path d="M50.5 19.5C49.4 19.5 48.2 19.7 47 20.1C45.7 20.5 44.4 21.1 43.2 21.8C39.8 23.9 37.4 26.9 37 29.7C36.8 31 37.1 32.1 37.8 32.9C37.9 33.1 38.1 33.2 38.2 33.4C38.3 33.5 38.4 33.5 38.5 33.6C38.6 33.7 38.6 33.7 38.7 33.8C38.9 33.9 39 34 39.2 34.1C41.3 35.1 44.6 34.9 47.8 33.4L47.9 33.3C48.2 33.2 48.5 33 48.8 32.9C49.1 32.8 49.3 32.6 49.6 32.4C49.9 32.2 50.2 32 50.5 31.8C50.8 31.6 51 31.4 51.3 31.2L51.5 31.1C51.7 30.9 51.9 30.8 52.1 30.6C52.2 30.5 52.2 30.5 52.3 30.4C52.5 30.3 52.6 30.1 52.7 30C52.8 29.9 52.9 29.8 53 29.6C53.1 29.4 53.3 29.3 53.4 29.1C53.5 29 53.5 29 53.6 28.9C53.7 28.7 53.9 28.6 54 28.4L54.2 28.2C54.3 28 54.4 27.9 54.5 27.7C54.5 27.7 54.5 27.7 54.5 27.6L54.6 27.4C54.8 27.2 54.9 26.9 55 26.7C55.1 26.5 55.2 26.2 55.3 26L55.4 25.9C55.4 25.8 55.5 25.7 55.5 25.7C55.5 25.6 55.5 25.6 55.6 25.5C55.6 25.3 55.7 25.2 55.7 25C55.7 24.8 55.8 24.8 55.8 24.7C55.8 24.6 55.8 24.5 55.8 24.5C55.8 24.3 55.8 24.2 55.8 24.1V23.9C55.8 23.7 55.8 23.6 55.8 23.4C55.8 23.3 55.8 23.3 55.8 23.2C55.8 23.1 55.8 23 55.8 23C55.8 22.9 55.8 22.9 55.8 22.8V22.7C55.8 22.5 55.7 22.4 55.6 22.2C55.5 22 55.4 21.9 55.3 21.7C54.6 20.2 52.7 19.5 50.5 19.5Z" fill="#41E6AF"/>
<path d="M57.8 26.7997C57.8 26.9997 57.7 27.0997 57.6 27.2997C57.6 27.3997 57.6 27.3997 57.5 27.4997C57.4 27.7997 57.3 27.9997 57.1 28.2997C56 30.3997 54.2 32.3997 52 33.9997C51.7 34.1997 51.4 34.3997 51.1 34.5997C50.8 34.7997 50.5 34.9997 50.2 35.0997H50.1C50 35.1997 49.9 35.1997 49.8 35.2997C49.6 35.3997 49.5 35.4997 49.3 35.5997H49.2C49.1 35.5997 49 35.6997 48.9 35.6997C48.7 35.7997 48.5 35.8997 48.3 35.8997L48.1 35.9997C48.1 35.9997 48.1 35.9997 48 35.9997C47.9 35.9997 47.8 36.0997 47.7 36.0997C47.5 36.1997 47.3 36.1997 47.1 36.2997L46.9 36.3997H46.8C46.6 36.4997 46.4 36.4997 46.2 36.5997C46.1 36.5997 46 36.6997 45.8 36.6997H45.7C45.5 36.6997 45.3 36.7997 45.2 36.7997C45.1 36.7997 44.9 36.7997 44.8 36.8997H44.7C44.6 36.8997 44.5 36.8997 44.4 36.9997C44.3 36.9997 44.2 36.9997 44.1 36.9997C43.8 36.9997 43.4 37.0997 43.1 37.0997H43C42.7 37.0997 42.4 37.0997 42.1 37.0997C42 37.0997 41.9 37.0997 41.9 37.0997H41.8C41.6 37.0997 41.4 37.0997 41.2 36.9997C41.1 36.9997 41 36.9997 40.9 36.8997C40.7 36.8997 40.5 36.7997 40.3 36.7997C40.2 36.7997 40.1 36.6997 40 36.6997L45.5 45.5997L57.3 45.4997L63.4 34.6997L57.9 25.6997C57.9 25.7997 57.9 25.8997 57.8 25.9997C57.8 26.0997 57.8 26.0997 57.8 26.1997C57.8 26.2997 57.7 26.3997 57.7 26.5997C57.8 26.6997 57.8 26.7997 57.8 26.7997Z" fill="#41E6AF"/>
<path d="M120.5 59.2997C121.1 60.1997 121.5 61.2997 121.8 62.5997C122.1 63.8997 122.3 65.2997 122.3 66.6997C122.3 70.6997 121 74.2997 118.8 76.0997C117.8 76.8997 116.7 77.2997 115.6 77.0997C115.4 77.0997 115.2 76.9997 115 76.9997C114.9 76.9997 114.8 76.8997 114.7 76.8997C114.6 76.8997 114.5 76.7997 114.4 76.7997C114.2 76.6997 114 76.5997 113.9 76.4997C111.9 75.1997 110.4 72.2997 110 68.7997V68.6997C110 68.3997 109.9 68.0997 109.9 67.6997C109.9 67.3997 109.9 67.0997 109.9 66.7997C109.9 66.3997 109.9 66.0997 109.9 65.6997C109.9 65.3997 109.9 65.0997 110 64.7997V64.5997C110 64.3997 110.1 64.0997 110.1 63.8997C110.1 63.7997 110.1 63.6997 110.1 63.5997C110.1 63.3997 110.2 63.1997 110.2 62.9997C110.2 62.7997 110.3 62.6997 110.3 62.4997C110.4 62.2997 110.4 62.0997 110.5 61.8997C110.5 61.7997 110.6 61.6997 110.6 61.5997C110.7 61.3997 110.7 61.1997 110.8 60.9997L110.9 60.6997C111 60.4997 111.1 60.3997 111.1 60.1997C111.1 60.1997 111.1 60.1997 111.1 60.0997L111.2 59.8997C111.3 59.5997 111.5 59.3997 111.6 59.1997C111.7 58.9997 111.9 58.7997 112 58.5997L112.1 58.4997C112.2 58.3997 112.2 58.3997 112.3 58.2997C112.4 58.1997 112.4 58.1997 112.4 58.0997C112.5 57.9997 112.6 57.8997 112.7 57.7997C112.8 57.6997 112.9 57.5997 112.9 57.5997C113 57.4997 113 57.4997 113.1 57.3997C113.2 57.2997 113.3 57.1997 113.4 57.0997L113.6 56.9997C113.7 56.8997 113.9 56.7997 114 56.6997C114.1 56.6997 114.1 56.6997 114.2 56.5997C114.3 56.5997 114.4 56.4997 114.4 56.4997C114.4 56.4997 114.5 56.4997 114.5 56.3997H114.6C114.8 56.3997 114.9 56.2997 115.1 56.2997C115.3 56.2997 115.5 56.2997 115.7 56.2997C117.8 56.1997 119.3 57.3997 120.5 59.2997Z" fill="#41E6AF"/>
<path d="M110.4 56.8997C110.3 56.9997 110.2 57.1997 110.1 57.2997C110.1 57.3997 110 57.3997 110 57.4997C109.8 57.6997 109.7 57.9997 109.5 58.1997C108.2 60.1997 107.5 62.7997 107.3 65.4997C107.3 65.8997 107.3 66.1997 107.3 66.5997C107.3 66.8997 107.3 67.2997 107.3 67.5997V67.6997C107.3 67.7997 107.3 67.9997 107.3 68.0997C107.3 68.2997 107.3 68.4997 107.4 68.6997V68.7997C107.4 68.8997 107.4 68.9997 107.4 69.0997C107.4 69.2997 107.5 69.4997 107.5 69.6997V69.8997C107.5 69.8997 107.5 69.8997 107.5 69.9997C107.5 70.0997 107.5 70.1997 107.6 70.2997C107.6 70.4997 107.7 70.6997 107.7 70.8997L107.8 71.0997V71.1997C107.8 71.3997 107.9 71.5997 108 71.7997C108 71.8997 108.1 71.9997 108.1 72.0997V72.1997C108.2 72.3997 108.2 72.4997 108.3 72.6997C108.3 72.7997 108.4 72.8997 108.5 73.0997V73.1997C108.5 73.2997 108.6 73.3997 108.6 73.4997C108.7 73.5997 108.7 73.6997 108.7 73.6997C108.8 73.9997 109 74.2997 109.2 74.5997L109.3 74.6997C109.5 74.9997 109.6 75.1997 109.8 75.3997C109.8 75.4997 109.9 75.4997 109.9 75.5997L110 75.6997C110.1 75.8997 110.3 75.9997 110.4 76.1997C110.5 76.2997 110.5 76.3997 110.6 76.3997C110.8 76.5997 110.9 76.6997 111 76.8997C111.1 76.9997 111.2 76.9997 111.2 77.0997H100.7L94.6001 66.9997L100.6 56.1997H111.1C111 56.2997 111 56.2997 110.9 56.3997L110.8 56.4997C110.7 56.5997 110.6 56.6997 110.4 56.8997C110.4 56.8997 110.5 56.8997 110.4 56.8997Z" fill="#41E6AF"/>
<path d="M50.5 114.4C49.4 114.4 48.2 114.2 47 113.8C45.7 113.4 44.4 112.8 43.2 112.1C39.8 110 37.4 107 37 104.2C36.8 102.9 37.1 101.8 37.8 101C37.9 100.8 38.1 100.7 38.2 100.5C38.3 100.4 38.4 100.4 38.5 100.3C38.6 100.2 38.6 100.2 38.7 100.1C38.9 99.9996 39 99.8996 39.2 99.7996C41.3 98.7996 44.6 98.9996 47.8 100.5L47.9 100.6C48.2 100.7 48.5 100.9 48.8 101C49.1 101.1 49.3 101.3 49.6 101.5C49.9 101.7 50.2 101.9 50.5 102.1C50.8 102.3 51 102.5 51.3 102.7L51.5 102.8C51.7 103 51.9 103.1 52.1 103.3C52.2 103.4 52.2 103.4 52.3 103.5C52.5 103.6 52.6 103.8 52.7 103.9C52.8 104 52.9 104.1 53 104.3C53.1 104.5 53.3 104.6 53.4 104.8C53.5 104.9 53.5 104.9 53.6 105C53.7 105.2 53.9 105.3 54 105.5L54.2 105.7C54.3 105.9 54.4 106 54.5 106.2V106.3L54.6 106.5C54.8 106.7 54.9 107 55 107.2C55.1 107.4 55.2 107.7 55.3 107.9L55.4 108C55.4 108.1 55.5 108.2 55.5 108.2C55.5 108.3 55.5 108.3 55.6 108.4C55.6 108.6 55.7 108.7 55.7 108.9C55.7 109.1 55.8 109.1 55.8 109.2C55.8 109.3 55.8 109.4 55.8 109.4C55.8 109.6 55.8 109.7 55.8 109.8V110C55.8 110.2 55.8 110.3 55.8 110.5C55.8 110.6 55.8 110.6 55.8 110.7C55.8 110.8 55.8 110.9 55.8 110.9C55.8 111 55.8 111 55.8 111.1V111.2C55.8 111.4 55.7 111.5 55.6 111.7C55.5 111.9 55.4 112 55.3 112.2C54.6 113.7 52.7 114.5 50.5 114.4Z" fill="#41E6AF"/>
<path d="M57.8 107.1C57.8 106.9 57.7 106.8 57.6 106.6C57.6 106.5 57.6 106.5 57.5 106.4C57.4 106.1 57.3 105.9 57.1 105.6C56 103.5 54.2 101.5 52 99.8998C51.7 99.6998 51.4 99.4998 51.1 99.2998C50.8 99.0998 50.5 98.8998 50.2 98.7998H50.1C50 98.6998 49.9 98.6998 49.8 98.5998C49.6 98.4998 49.5 98.3998 49.3 98.2998H49.2C49.1 98.2998 49 98.1998 48.9 98.1998C48.7 98.0998 48.5 97.9998 48.3 97.9998L48.1 97.8998C48.1 97.8998 48.1 97.8998 48 97.8998C47.9 97.8998 47.8 97.7998 47.7 97.7998C47.5 97.6998 47.3 97.6998 47.1 97.5998L46.9 97.4998H46.8C46.6 97.3998 46.4 97.3998 46.2 97.2998C46.1 97.2998 46 97.1998 45.8 97.1998H45.7C45.5 97.1998 45.3 97.0998 45.2 97.0998C45.1 97.0998 44.9 97.0998 44.8 96.9998H44.7C44.6 96.9998 44.5 96.9998 44.4 96.8998C44.3 96.8998 44.2 96.8998 44.1 96.8998C43.8 96.8998 43.4 96.7998 43.1 96.7998H43C42.7 96.7998 42.4 96.7998 42.1 96.7998C42 96.7998 41.9 96.7998 41.9 96.7998H41.8C41.6 96.7998 41.4 96.7998 41.2 96.8998C41.1 96.8998 41 96.8998 40.9 96.9998C40.7 96.9998 40.5 97.0998 40.3 97.0998C40.2 97.0998 40.1 97.1998 40 97.1998L45.5 88.2998L57.3 88.3998L63.4 99.1998L57.9 108.2C57.9 108.1 57.9 108 57.8 107.9C57.8 107.8 57.8 107.8 57.8 107.7C57.8 107.6 57.7 107.5 57.7 107.3C57.8 107.2 57.8 107.1 57.8 107.1Z" fill="#41E6AF"/>
<path d="M78.7 119.7L49.9 119.6L45.5 127.9L42.5 133.6L50.2 133.5V133.6L94.2 133.7L98.6 126.1L66.9 71.7997L4 71.6997L0 78.6997L0.8 79.9997H0.7L25.7 124L34 110.5L19.4 85.6997H58.9L78.7 119.7Z" fill="#41E6AF"/>
</svg>
