<svg width="23" height="25" viewBox="0 0 23 25" fill="none" xmlns="http://www.w3.org/2000/svg">
<path fill-rule="evenodd" clip-rule="evenodd" d="M7.32592 12.2026L14.4342 19.312L18.921 14.8252C19.7233 14.1028 20.9507 14.135 21.7141 14.8984C22.4775 15.6618 22.5096 16.8892 21.7872 17.6915L15.8662 23.6136C15.0709 24.3957 13.7953 24.3957 13 23.6136L4.45747 15.0689V20.1476C4.45747 21.2685 3.54883 22.1771 2.42796 22.1771C1.30708 22.1771 0.398438 21.2685 0.398438 20.1476V4.25101C0.398438 3.13014 1.30708 2.22149 2.42796 2.22149C3.54883 2.22149 4.45747 3.13014 4.45747 4.25101V9.32977L12.9989 0.78727C13.794 0.00450383 15.07 0.00450383 15.8651 0.78727L21.7905 6.70826C22.5129 7.51055 22.4808 8.73798 21.7174 9.50137C20.954 10.2648 19.7266 10.2969 18.9243 9.5745L14.4375 5.08773L7.32592 12.2026ZM14.4375 10.1709C13.6156 10.1705 12.8745 10.6652 12.5596 11.4244C12.2448 12.1835 12.4184 13.0576 12.9994 13.6389C13.5803 14.2202 14.4543 14.3942 15.2137 14.0798C15.973 13.7654 16.4681 13.0245 16.4681 12.2026C16.4684 11.6638 16.2546 11.1469 15.8738 10.7657C15.493 10.3844 14.9763 10.1701 14.4375 10.1698V10.1709Z" fill="#23AF91"/>
</svg>
