<svg width="1360" height="308" viewBox="0 0 1360 308" fill="none" xmlns="http://www.w3.org/2000/svg">
<g clip-path="url(#clip0)">
<path fill-rule="evenodd" clip-rule="evenodd" d="M115.057 105.035L175.667 0L191.486 129.073C192.671 138.665 194.804 158.085 184.436 173.775C171.342 192.248 160.5 196.097 149.539 199.945C144.148 201.84 138.697 203.794 133.009 207.465C113.22 219.129 0.65033 303.145 0.65033 303.145L116.42 153.526C118.138 151.336 118.849 148.612 118.493 145.889L113.813 111.489C113.457 109.239 113.931 106.989 115.057 105.035Z" fill="url(#paint0_radial)"/>
<path fill-rule="evenodd" clip-rule="evenodd" d="M115.057 105.035L175.667 0L191.486 129.073C192.671 138.665 194.804 158.085 184.436 173.775C171.342 192.248 160.5 196.097 149.539 199.945C144.148 201.84 138.697 203.794 133.009 207.465C113.22 219.129 0.65033 303.145 0.65033 303.145L116.42 153.526C118.138 151.336 118.849 148.612 118.493 145.889L113.813 111.489C113.457 109.239 113.931 106.989 115.057 105.035Z" fill="url(#paint1_linear)"/>
<path fill-rule="evenodd" clip-rule="evenodd" d="M115.057 105.035L175.667 0L191.486 129.073C192.671 138.665 194.804 158.085 184.436 173.775C171.342 192.248 160.5 196.097 149.539 199.945C144.148 201.84 138.697 203.794 133.009 207.465C113.22 219.129 0.65033 303.145 0.65033 303.145L116.42 153.526C118.138 151.336 118.849 148.612 118.493 145.889L113.813 111.489C113.457 109.239 113.931 106.989 115.057 105.035Z" fill="url(#paint2_radial)"/>
<path fill-rule="evenodd" clip-rule="evenodd" d="M115.057 105.035L175.667 0L191.486 129.073C192.671 138.665 194.804 158.085 184.436 173.775C171.342 192.248 160.5 196.097 149.539 199.945C144.148 201.84 138.697 203.794 133.009 207.465C113.22 219.129 0.65033 303.145 0.65033 303.145L116.42 153.526C118.138 151.336 118.849 148.612 118.493 145.889L113.813 111.489C113.457 109.239 113.931 106.989 115.057 105.035Z" fill="url(#paint3_radial)"/>
<path fill-rule="evenodd" clip-rule="evenodd" d="M115.134 105.035L175.744 0L191.563 129.073C192.748 138.665 194.881 158.085 184.513 173.775C171.419 192.248 160.577 196.097 149.616 199.945C144.225 201.84 138.774 203.794 133.086 207.465C113.297 219.129 0.727417 303.145 0.727417 303.145L116.497 153.526C118.215 151.336 118.926 148.612 118.57 145.889L113.89 111.489C113.534 109.239 114.008 106.989 115.134 105.035Z" fill="url(#paint4_radial)"/>
<path fill-rule="evenodd" clip-rule="evenodd" d="M115.134 105.035L175.744 0L191.563 129.073C192.748 138.665 194.881 158.085 184.513 173.775C171.419 192.248 160.577 196.097 149.616 199.945C144.225 201.84 138.774 203.794 133.086 207.465C113.297 219.129 0.727417 303.145 0.727417 303.145L116.497 153.526C118.215 151.336 118.926 148.612 118.57 145.889L113.89 111.489C113.534 109.239 114.008 106.989 115.134 105.035Z" fill="url(#paint5_radial)"/>
<path fill-rule="evenodd" clip-rule="evenodd" d="M294.436 195.667L355.151 300.642L235.391 249.796C226.486 246.026 208.591 238.162 200.178 221.343C190.717 200.774 192.803 189.466 194.949 178.056C196.003 172.442 197.035 166.748 196.698 159.99C196.484 137.031 179.963 -2.40431 179.963 -2.40431L251.734 172.601C252.773 175.184 254.778 177.161 257.316 178.215L289.466 191.364C291.593 192.181 293.306 193.716 294.436 195.667Z" fill="url(#paint6_radial)"/>
<path fill-rule="evenodd" clip-rule="evenodd" d="M294.436 195.667L355.151 300.642L235.391 249.796C226.486 246.026 208.591 238.162 200.178 221.343C190.717 200.774 192.803 189.466 194.949 178.056C196.003 172.442 197.035 166.748 196.698 159.99C196.484 137.031 179.963 -2.40431 179.963 -2.40431L251.734 172.601C252.773 175.184 254.778 177.161 257.316 178.215L289.466 191.364C291.593 192.181 293.306 193.716 294.436 195.667Z" fill="url(#paint7_linear)"/>
<path fill-rule="evenodd" clip-rule="evenodd" d="M294.436 195.667L355.151 300.642L235.391 249.796C226.486 246.026 208.591 238.162 200.178 221.343C190.717 200.774 192.803 189.466 194.949 178.056C196.003 172.442 197.035 166.748 196.698 159.99C196.484 137.031 179.963 -2.40431 179.963 -2.40431L251.734 172.601C252.773 175.184 254.778 177.161 257.316 178.215L289.466 191.364C291.593 192.181 293.306 193.716 294.436 195.667Z" fill="url(#paint8_radial)"/>
<path fill-rule="evenodd" clip-rule="evenodd" d="M294.436 195.667L355.151 300.642L235.391 249.796C226.486 246.026 208.591 238.162 200.178 221.343C190.717 200.774 192.803 189.466 194.949 178.056C196.003 172.442 197.035 166.748 196.698 159.99C196.484 137.031 179.963 -2.40431 179.963 -2.40431L251.734 172.601C252.773 175.184 254.778 177.161 257.316 178.215L289.466 191.364C291.593 192.181 293.306 193.716 294.436 195.667Z" fill="url(#paint9_radial)"/>
<path fill-rule="evenodd" clip-rule="evenodd" d="M294.397 195.734L355.112 300.708L235.352 249.863C226.447 246.092 208.552 238.228 200.139 221.41C190.678 200.841 192.764 189.533 194.91 178.122C195.963 172.509 196.996 166.814 196.658 160.056C196.445 137.097 179.924 -2.33789 179.924 -2.33789L251.695 172.668C252.734 175.25 254.739 177.227 257.276 178.281L289.427 191.43C291.554 192.248 293.267 193.783 294.397 195.734Z" fill="url(#paint10_radial)"/>
<path fill-rule="evenodd" clip-rule="evenodd" d="M115.057 105.036L175.667 0.00128174L191.486 129.075C192.671 138.666 194.804 158.087 184.436 173.777C171.342 192.25 160.5 196.098 149.539 199.947C144.148 201.841 138.697 203.795 133.009 207.466C113.22 219.13 0.650269 303.146 0.650269 303.146L116.42 153.528C118.138 151.337 118.849 148.613 118.493 145.89L113.813 111.49C113.457 109.24 113.931 106.99 115.057 105.036Z" fill="url(#paint11_radial)"/>
<path fill-rule="evenodd" clip-rule="evenodd" d="M115.057 105.036L175.667 0.00128174L191.486 129.075C192.671 138.666 194.804 158.087 184.436 173.777C171.342 192.25 160.5 196.098 149.539 199.947C144.148 201.841 138.697 203.795 133.009 207.466C113.22 219.13 0.650269 303.146 0.650269 303.146L116.42 153.528C118.138 151.337 118.849 148.613 118.493 145.89L113.813 111.49C113.457 109.24 113.931 106.99 115.057 105.036Z" fill="url(#paint12_linear)"/>
<path fill-rule="evenodd" clip-rule="evenodd" d="M115.057 105.036L175.667 0.00128174L191.486 129.075C192.671 138.666 194.804 158.087 184.436 173.777C171.342 192.25 160.5 196.098 149.539 199.947C144.148 201.841 138.697 203.795 133.009 207.466C113.22 219.13 0.650269 303.146 0.650269 303.146L116.42 153.528C118.138 151.337 118.849 148.613 118.493 145.89L113.813 111.49C113.457 109.24 113.931 106.99 115.057 105.036Z" fill="url(#paint13_radial)"/>
<path fill-rule="evenodd" clip-rule="evenodd" d="M115.057 105.036L175.667 0.00128174L191.486 129.075C192.671 138.666 194.804 158.087 184.436 173.777C171.342 192.25 160.5 196.098 149.539 199.947C144.148 201.841 138.697 203.795 133.009 207.466C113.22 219.13 0.650269 303.146 0.650269 303.146L116.42 153.528C118.138 151.337 118.849 148.613 118.493 145.89L113.813 111.49C113.457 109.24 113.931 106.99 115.057 105.036Z" fill="url(#paint14_radial)"/>
<path fill-rule="evenodd" clip-rule="evenodd" d="M115.134 105.036L175.744 0.00128174L191.563 129.075C192.748 138.666 194.881 158.087 184.513 173.777C171.419 192.25 160.577 196.098 149.616 199.947C144.225 201.841 138.774 203.795 133.086 207.466C113.297 219.13 0.727356 303.146 0.727356 303.146L116.497 153.528C118.215 151.337 118.926 148.613 118.57 145.89L113.89 111.49C113.534 109.24 114.008 106.99 115.134 105.036Z" fill="url(#paint15_radial)"/>
<path fill-rule="evenodd" clip-rule="evenodd" d="M115.057 105.036L175.667 0.00128174L191.486 129.075C192.671 138.666 194.804 158.087 184.436 173.777C171.342 192.25 160.5 196.098 149.539 199.947C144.148 201.841 138.697 203.795 133.009 207.466C113.22 219.13 0.650269 303.146 0.650269 303.146L116.42 153.528C118.138 151.337 118.849 148.613 118.493 145.89L113.813 111.49C113.457 109.24 113.931 106.99 115.057 105.036Z" fill="url(#paint16_radial)"/>
<path fill-rule="evenodd" clip-rule="evenodd" d="M294.359 195.668L355.074 300.642L235.314 249.797C226.409 246.026 208.514 238.162 200.101 221.344C190.64 200.775 192.726 189.467 194.872 178.056C195.926 172.443 196.958 166.748 196.621 159.99C196.407 137.031 179.886 -2.4037 179.886 -2.4037L251.657 172.602C252.696 175.184 254.701 177.161 257.239 178.215L289.389 191.364C291.516 192.182 293.229 193.717 294.359 195.668Z" fill="url(#paint17_radial)"/>
<path fill-rule="evenodd" clip-rule="evenodd" d="M294.359 195.668L355.074 300.642L235.314 249.797C226.409 246.026 208.514 238.162 200.101 221.344C190.64 200.775 192.726 189.467 194.872 178.056C195.926 172.443 196.958 166.748 196.621 159.99C196.407 137.031 179.886 -2.4037 179.886 -2.4037L251.657 172.602C252.696 175.184 254.701 177.161 257.239 178.215L289.389 191.364C291.516 192.182 293.229 193.717 294.359 195.668Z" fill="url(#paint18_linear)"/>
<path fill-rule="evenodd" clip-rule="evenodd" d="M294.359 195.668L355.074 300.642L235.314 249.797C226.409 246.026 208.514 238.162 200.101 221.344C190.64 200.775 192.726 189.467 194.872 178.056C195.926 172.443 196.958 166.748 196.621 159.99C196.407 137.031 179.886 -2.4037 179.886 -2.4037L251.657 172.602C252.696 175.184 254.701 177.161 257.239 178.215L289.389 191.364C291.516 192.182 293.229 193.717 294.359 195.668Z" fill="url(#paint19_radial)"/>
<path fill-rule="evenodd" clip-rule="evenodd" d="M294.359 195.668L355.074 300.642L235.314 249.797C226.409 246.026 208.514 238.162 200.101 221.344C190.64 200.775 192.726 189.467 194.872 178.056C195.926 172.443 196.958 166.748 196.621 159.99C196.407 137.031 179.886 -2.40371 179.886 -2.40371L251.657 172.602C252.696 175.184 254.701 177.161 257.239 178.215L289.389 191.364C291.516 192.182 293.229 193.717 294.359 195.668Z" fill="url(#paint20_radial)"/>
<path fill-rule="evenodd" clip-rule="evenodd" d="M294.32 195.735L355.035 300.709L235.274 249.863C226.37 246.093 208.475 238.229 200.062 221.41C190.601 200.841 192.687 189.533 194.832 178.123C195.886 172.509 196.919 166.815 196.581 160.057C196.368 137.098 179.847 -2.33727 179.847 -2.33727L251.617 172.668C252.657 175.251 254.661 177.228 257.199 178.282L289.35 191.431C291.477 192.248 293.19 193.783 294.32 195.735Z" fill="url(#paint21_radial)"/>
<path fill-rule="evenodd" clip-rule="evenodd" d="M294.359 195.668L355.074 300.642L235.314 249.797C226.409 246.026 208.514 238.162 200.101 221.344C190.64 200.775 192.726 189.467 194.872 178.056C195.926 172.443 196.958 166.748 196.621 159.99C196.407 137.031 179.886 -2.4037 179.886 -2.4037L251.657 172.602C252.696 175.184 254.701 177.161 257.239 178.215L289.389 191.364C291.516 192.182 293.229 193.717 294.359 195.668Z" fill="url(#paint22_radial)"/>
<path fill-rule="evenodd" clip-rule="evenodd" d="M125.874 307.521L4.54852 307.581L108.49 229.353C116.21 223.532 131.972 211.976 150.753 213.104C173.308 215.2 182.064 222.66 190.879 230.222C195.217 233.941 199.636 237.681 205.66 240.769C225.662 252.063 354.753 307.482 354.753 307.482L167.214 282.095C164.456 281.704 161.74 282.45 159.558 284.12L132.088 305.371C130.317 306.803 128.13 307.518 125.874 307.521Z" fill="url(#paint23_radial)"/>
<path fill-rule="evenodd" clip-rule="evenodd" d="M125.874 307.521L4.54852 307.581L108.49 229.353C116.21 223.532 131.972 211.976 150.753 213.104C173.308 215.2 182.064 222.66 190.879 230.222C195.217 233.941 199.636 237.681 205.66 240.769C225.662 252.063 354.753 307.482 354.753 307.482L167.214 282.095C164.456 281.704 161.74 282.45 159.558 284.12L132.088 305.371C130.317 306.803 128.13 307.518 125.874 307.521Z" fill="url(#paint24_linear)"/>
<path fill-rule="evenodd" clip-rule="evenodd" d="M125.874 307.521L4.54852 307.581L108.49 229.353C116.21 223.532 131.972 211.976 150.753 213.104C173.308 215.2 182.064 222.66 190.879 230.222C195.217 233.941 199.636 237.681 205.66 240.769C225.662 252.063 354.753 307.482 354.753 307.482L167.214 282.095C164.456 281.704 161.74 282.45 159.558 284.12L132.088 305.371C130.317 306.803 128.13 307.518 125.874 307.521Z" fill="url(#paint25_radial)"/>
<path fill-rule="evenodd" clip-rule="evenodd" d="M125.874 307.521L4.54852 307.581L108.49 229.353C116.21 223.532 131.972 211.976 150.753 213.104C173.308 215.2 182.064 222.66 190.879 230.222C195.217 233.941 199.636 237.681 205.66 240.769C225.662 252.063 354.753 307.482 354.753 307.482L167.214 282.095C164.456 281.704 161.74 282.45 159.558 284.12L132.088 305.371C130.317 306.803 128.13 307.518 125.874 307.521Z" fill="url(#paint26_radial)"/>
<path fill-rule="evenodd" clip-rule="evenodd" d="M125.836 307.454L4.51038 307.515L108.452 229.287C116.171 223.465 131.934 211.909 150.715 213.038C173.27 215.134 182.026 222.593 190.841 230.155C195.179 233.874 199.597 237.615 205.622 240.702C225.624 251.997 354.715 307.416 354.715 307.416L167.175 282.029C164.418 281.637 161.702 282.384 159.52 284.053L132.05 305.304C130.278 306.737 128.092 307.451 125.836 307.454Z" fill="url(#paint27_radial)"/>
<path fill-rule="evenodd" clip-rule="evenodd" d="M125.874 307.521L4.54852 307.581L108.49 229.353C116.21 223.532 131.972 211.976 150.753 213.104C173.308 215.2 182.064 222.66 190.879 230.222C195.217 233.941 199.636 237.681 205.66 240.769C225.662 252.063 354.753 307.482 354.753 307.482L167.214 282.095C164.456 281.704 161.74 282.45 159.558 284.12L132.088 305.371C130.317 306.803 128.13 307.518 125.874 307.521Z" fill="url(#paint28_radial)"/>
</g>
<path d="M555.329 107.8H489.037C478.675 107.8 469.448 111.632 461.356 119.155C453.265 126.678 449.29 136.045 449.29 147.258V160.316C449.29 171.813 453.123 181.323 460.93 188.845C468.738 196.368 477.823 200.058 488.185 200.058H555.187V188.987H492.444C484.069 188.987 476.971 186.148 471.151 180.613C465.331 175.078 462.492 167.981 462.492 159.323V157.336H554.335V146.123H462.492C462.776 138.742 465.757 132.355 471.577 127.103C477.397 121.852 483.785 119.155 490.741 119.155H555.187L555.329 107.8Z" fill="#35303D"/>
<path d="M641.914 200.058L690.036 130.226V200.058H703.237V107.8H691.171L638.933 183.168L587.262 107.8H575.196V200.058H588.255V130.51L635.526 200.058H641.914Z" fill="#35303D"/>
<path d="M822.268 200.058V188.987H778.831V119.155H822.268V107.942H723.327V119.155H765.629V188.987H723.327V200.058H822.268Z" fill="#35303D"/>
<path d="M946.092 119.155V107.942H879.8C869.437 107.942 860.211 111.774 852.119 119.439C844.028 127.103 839.911 136.613 839.911 148.11V157.336H932.465V162.303C932.465 169.684 929.909 176.071 924.657 181.323C919.405 186.574 912.591 189.271 904.216 189.271H839.911V200.2H907.623C917.701 200.2 926.644 196.368 934.31 188.845C941.975 181.323 945.808 171.671 945.808 160.032V146.265H853.539V144.845C853.539 138.174 856.094 132.213 861.204 126.961C866.314 121.71 872.277 119.155 879.232 119.155H946.092Z" fill="#35303D"/>
<path d="M1073.27 200.058H1088.46L1127.35 107.8H1112.16L1080.65 186.432L1048.85 107.942H1037.92L1006.12 185.723L973.476 107.8H958.287L998.175 200.058H1013.08L1043.03 125.684L1073.27 200.058Z" fill="#35303D"/>
<path d="M1242.16 200.058L1193.61 107.8H1169.34L1120.08 200.058H1134.84L1144.92 180.471H1217.46L1227.54 200.058H1242.16ZM1211.92 169.684H1150.46L1176.72 118.871H1185.95L1211.92 169.684Z" fill="#35303D"/>
<path d="M1329.08 164.148C1339.15 164.148 1346.82 161.31 1352.07 155.632C1357.32 149.955 1359.88 143.426 1359.88 136.045C1359.88 128.665 1357.32 122.136 1352.21 116.458C1347.1 110.781 1339.44 107.942 1329.36 107.942H1256.96V200.058H1270.17V164.148H1329.08ZM1328.08 119.013C1334.33 119.013 1339.01 120.716 1342.14 124.265C1345.26 127.813 1346.82 131.787 1346.82 136.187C1346.82 140.587 1345.26 144.561 1342.14 148.11C1339.01 151.658 1334.33 153.361 1328.08 153.361H1270.17V119.297L1328.08 119.013Z" fill="#35303D"/>
<defs>
<radialGradient id="paint0_radial" cx="0" cy="0" r="1" gradientUnits="userSpaceOnUse" gradientTransform="translate(189.594 165.03) rotate(143.823) scale(233.993 268.07)">
<stop stop-color="#1C1159"/>
<stop offset="0.4487" stop-color="#FF78D1"/>
<stop offset="0.6228" stop-color="#FFC979"/>
<stop offset="0.7685" stop-color="#FFF58C"/>
<stop offset="0.8983" stop-color="white"/>
</radialGradient>
<linearGradient id="paint1_linear" x1="192.361" y1="154.943" x2="91.2499" y2="141.935" gradientUnits="userSpaceOnUse">
<stop offset="0.0456257" stop-color="#0F0F13" stop-opacity="0.67"/>
<stop offset="0.321849" stop-color="#582C7A" stop-opacity="0"/>
</linearGradient>
<radialGradient id="paint2_radial" cx="0" cy="0" r="1" gradientUnits="userSpaceOnUse" gradientTransform="translate(-61.8666 55.8179) rotate(2.95208) scale(270.958 1083.26)">
<stop offset="0.735423" stop-color="#D7468C" stop-opacity="0.24"/>
<stop offset="0.908835" stop-color="#27043F" stop-opacity="0.32"/>
</radialGradient>
<radialGradient id="paint3_radial" cx="0" cy="0" r="1" gradientUnits="userSpaceOnUse" gradientTransform="translate(7.14336 88.1897) rotate(9.26968) scale(226.21 248.758)">
<stop offset="0.11701" stop-color="#27043F" stop-opacity="0"/>
<stop offset="0.56027" stop-color="#E33272" stop-opacity="0.4"/>
<stop offset="0.779103" stop-color="#9036EC" stop-opacity="0.17"/>
</radialGradient>
<radialGradient id="paint4_radial" cx="0" cy="0" r="1" gradientUnits="userSpaceOnUse" gradientTransform="translate(0.727414 303.149) rotate(-37.0004) scale(261.265 274.499)">
<stop stop-color="white"/>
<stop offset="0.185217" stop-color="#FFD79A"/>
<stop offset="0.34495" stop-color="#FFBF51"/>
<stop offset="0.629193" stop-color="#FF778F" stop-opacity="0.03"/>
</radialGradient>
<radialGradient id="paint5_radial" cx="0" cy="0" r="1" gradientUnits="userSpaceOnUse" gradientTransform="translate(175.509) rotate(82.6942) scale(155.241 49.9369)">
<stop stop-color="#FFBF51"/>
<stop offset="0.520833" stop-color="#E33272" stop-opacity="0.28"/>
<stop offset="1" stop-color="#46008E" stop-opacity="0"/>
</radialGradient>
<radialGradient id="paint6_radial" cx="0" cy="0" r="1" gradientUnits="userSpaceOnUse" gradientTransform="translate(205.179 230.18) rotate(-96.1979) scale(233.898 268.178)">
<stop stop-color="#1C1159"/>
<stop offset="0.4487" stop-color="#FF78D1"/>
<stop offset="0.6228" stop-color="#FFC979"/>
<stop offset="0.7685" stop-color="#FFF58C"/>
<stop offset="0.8983" stop-color="white"/>
</radialGradient>
<linearGradient id="paint7_linear" x1="212.536" y1="237.619" x2="274.302" y2="156.566" gradientUnits="userSpaceOnUse">
<stop offset="0.0456257" stop-color="#0F0F13" stop-opacity="0.67"/>
<stop offset="0.321849" stop-color="#582C7A" stop-opacity="0"/>
</linearGradient>
<radialGradient id="paint8_radial" cx="0" cy="0" r="1" gradientUnits="userSpaceOnUse" gradientTransform="translate(221.705 257.355) rotate(-30.5725) scale(163.422 309.99)">
<stop offset="0.1475" stop-color="#27043F" stop-opacity="0.12"/>
<stop offset="0.456553" stop-color="#DB3B80" stop-opacity="0.08"/>
</radialGradient>
<radialGradient id="paint9_radial" cx="0" cy="0" r="1" gradientUnits="userSpaceOnUse" gradientTransform="translate(362.991 110.693) rotate(135.963) scale(210.187 220.867)">
<stop offset="0.11701" stop-color="#27043F" stop-opacity="0"/>
<stop offset="0.535374" stop-color="#E33272" stop-opacity="0.4"/>
<stop offset="0.700045" stop-color="#9036EC" stop-opacity="0.17"/>
</radialGradient>
<radialGradient id="paint10_radial" cx="0" cy="0" r="1" gradientUnits="userSpaceOnUse" gradientTransform="translate(179.921 -2.33988) rotate(82.9779) scale(261.163 274.606)">
<stop offset="0.0916302" stop-color="white"/>
<stop offset="0.225286" stop-color="#FFD79A"/>
<stop offset="0.486767" stop-color="#FF77F3" stop-opacity="0"/>
</radialGradient>
<radialGradient id="paint11_radial" cx="0" cy="0" r="1" gradientUnits="userSpaceOnUse" gradientTransform="translate(189.594 165.031) rotate(143.823) scale(233.993 268.07)">
<stop stop-color="#1C1159"/>
<stop offset="0.0281713" stop-color="#5D09E1"/>
<stop offset="0.4487" stop-color="#E478FF"/>
<stop offset="0.6228" stop-color="#8479FF"/>
<stop offset="0.7685" stop-color="#8CF1FF"/>
<stop offset="0.8983" stop-color="#37FFDB"/>
</radialGradient>
<linearGradient id="paint12_linear" x1="192.361" y1="154.944" x2="91.2498" y2="141.936" gradientUnits="userSpaceOnUse">
<stop offset="0.0456257" stop-color="#0F0F13" stop-opacity="0.67"/>
<stop offset="0.321849" stop-color="#582C7A" stop-opacity="0"/>
</linearGradient>
<radialGradient id="paint13_radial" cx="0" cy="0" r="1" gradientUnits="userSpaceOnUse" gradientTransform="translate(204.88 137.14) rotate(-150.604) scale(163.424 309.987)">
<stop offset="0.1475" stop-color="#27043F" stop-opacity="0.12"/>
<stop offset="0.456553" stop-color="#DB3B80" stop-opacity="0.08"/>
</radialGradient>
<radialGradient id="paint14_radial" cx="0" cy="0" r="1" gradientUnits="userSpaceOnUse" gradientTransform="translate(7.1433 88.191) rotate(15.9359) scale(210.241 220.811)">
<stop offset="0.11701" stop-opacity="0"/>
<stop offset="0.524525" stop-color="#E33272" stop-opacity="0.65"/>
<stop offset="0.775574" stop-color="#220145" stop-opacity="0.53"/>
</radialGradient>
<radialGradient id="paint15_radial" cx="0" cy="0" r="1" gradientUnits="userSpaceOnUse" gradientTransform="translate(0.727352 303.15) rotate(-37.0004) scale(261.266 274.499)">
<stop offset="0.0916302" stop-color="#37FFDB"/>
<stop offset="0.225286" stop-color="#9AF9FF"/>
<stop offset="0.641005" stop-color="#C377FF" stop-opacity="0"/>
</radialGradient>
<radialGradient id="paint16_radial" cx="0" cy="0" r="1" gradientUnits="userSpaceOnUse" gradientTransform="translate(175.432 0.00128271) rotate(82.6942) scale(155.241 49.9369)">
<stop stop-color="#51F5FF"/>
<stop offset="0.677663" stop-color="#8032E3" stop-opacity="0.28"/>
<stop offset="1" stop-color="#46008E" stop-opacity="0"/>
</radialGradient>
<radialGradient id="paint17_radial" cx="0" cy="0" r="1" gradientUnits="userSpaceOnUse" gradientTransform="translate(205.102 230.181) rotate(-96.1979) scale(233.898 268.177)">
<stop stop-color="#1C1159"/>
<stop offset="0.0281713" stop-color="#5D09E1"/>
<stop offset="0.4487" stop-color="#E478FF"/>
<stop offset="0.6228" stop-color="#8479FF"/>
<stop offset="0.7685" stop-color="#8CF1FF"/>
<stop offset="0.8983" stop-color="#37FFDB"/>
</radialGradient>
<linearGradient id="paint18_linear" x1="212.459" y1="237.619" x2="274.225" y2="156.566" gradientUnits="userSpaceOnUse">
<stop offset="0.0456257" stop-color="#0F0F13" stop-opacity="0.67"/>
<stop offset="0.321849" stop-color="#582C7A" stop-opacity="0"/>
</linearGradient>
<radialGradient id="paint19_radial" cx="0" cy="0" r="1" gradientUnits="userSpaceOnUse" gradientTransform="translate(221.628 257.356) rotate(-30.5725) scale(163.422 309.99)">
<stop offset="0.1475" stop-color="#27043F" stop-opacity="0.12"/>
<stop offset="0.456553" stop-color="#DB3B80" stop-opacity="0.08"/>
</radialGradient>
<radialGradient id="paint20_radial" cx="0" cy="0" r="1" gradientUnits="userSpaceOnUse" gradientTransform="translate(362.914 110.693) rotate(135.963) scale(210.187 220.867)">
<stop offset="0.11701" stop-color="#27043F" stop-opacity="0"/>
<stop offset="0.524525" stop-color="#E33272" stop-opacity="0.65"/>
<stop offset="0.700045" stop-color="#220145" stop-opacity="0.47"/>
</radialGradient>
<radialGradient id="paint21_radial" cx="0" cy="0" r="1" gradientUnits="userSpaceOnUse" gradientTransform="translate(179.844 -2.33926) rotate(82.9779) scale(261.163 274.606)">
<stop offset="0.0916302" stop-color="#37FFDB"/>
<stop offset="0.225286" stop-color="#9AF9FF"/>
<stop offset="0.641005" stop-color="#C377FF" stop-opacity="0"/>
</radialGradient>
<radialGradient id="paint22_radial" cx="0" cy="0" r="1" gradientUnits="userSpaceOnUse" gradientTransform="translate(355.192 300.439) rotate(-157.314) scale(155.322 49.9106)">
<stop stop-color="#51F5FF"/>
<stop offset="0.677663" stop-color="#8032E3" stop-opacity="0.28"/>
<stop offset="1" stop-color="#46008E" stop-opacity="0"/>
</radialGradient>
<radialGradient id="paint23_radial" cx="0" cy="0" r="1" gradientUnits="userSpaceOnUse" gradientTransform="translate(140.595 213.013) rotate(23.7927) scale(234.02 268.038)">
<stop stop-color="#1C1159"/>
<stop offset="0.0281713" stop-color="#5D09E1"/>
<stop offset="0.4487" stop-color="#E478FF"/>
<stop offset="0.6228" stop-color="#8479FF"/>
<stop offset="0.7685" stop-color="#8CF1FF"/>
<stop offset="0.8983" stop-color="#37FFDB"/>
</radialGradient>
<linearGradient id="paint24_linear" x1="130.47" y1="215.662" x2="169.726" y2="309.687" gradientUnits="userSpaceOnUse">
<stop offset="0.0456257" stop-color="#0F0F13" stop-opacity="0.67"/>
<stop offset="0.321849" stop-color="#582C7A" stop-opacity="0"/>
</linearGradient>
<radialGradient id="paint25_radial" cx="0" cy="0" r="1" gradientUnits="userSpaceOnUse" gradientTransform="translate(108.783 213.729) rotate(89.4113) scale(163.346 310.135)">
<stop offset="0.1475" stop-color="#27043F" stop-opacity="0.12"/>
<stop offset="0.456553" stop-color="#DB3B80" stop-opacity="0.08"/>
</radialGradient>
<radialGradient id="paint26_radial" cx="0" cy="0" r="1" gradientUnits="userSpaceOnUse" gradientTransform="translate(165.233 409.34) rotate(-104.063) scale(210.127 220.931)">
<stop offset="0.11701" stop-color="#27043F" stop-opacity="0"/>
<stop offset="0.524525" stop-color="#E33272" stop-opacity="0.65"/>
<stop offset="0.700045" stop-color="#220145" stop-opacity="0.48"/>
</radialGradient>
<radialGradient id="paint27_radial" cx="0" cy="0" r="1" gradientUnits="userSpaceOnUse" gradientTransform="translate(354.719 307.414) rotate(-157.031) scale(261.3 274.463)">
<stop offset="0.0916302" stop-color="#37FFDB"/>
<stop offset="0.225286" stop-color="#9AF9FF"/>
<stop offset="0.641005" stop-color="#C377FF" stop-opacity="0"/>
</radialGradient>
<radialGradient id="paint28_radial" cx="0" cy="0" r="1" gradientUnits="userSpaceOnUse" gradientTransform="translate(4.66621 307.785) rotate(-37.2839) scale(155.301 49.9175)">
<stop stop-color="#51F5FF"/>
<stop offset="0.677663" stop-color="#8032E3" stop-opacity="0.28"/>
<stop offset="1" stop-color="#46008E" stop-opacity="0"/>
</radialGradient>
<clipPath id="clip0">
<rect width="355.366" height="308" fill="white" transform="translate(0.573242)"/>
</clipPath>
</defs>
</svg>
