<?xml version="1.0" encoding="utf-8"?>
<!-- Generator: Adobe Illustrator 22.1.0, SVG Export Plug-In . SVG Version: 6.00 Build 0)  -->
<svg version="1.1" id="Слой_1" xmlns="http://www.w3.org/2000/svg" xmlns:xlink="http://www.w3.org/1999/xlink" x="0px" y="0px"
	 viewBox="0 0 42.6 48" style="enable-background:new 0 0 42.6 48;" xml:space="preserve">
<style type="text/css">
	.st0{fill:#C39465;}
	.st1{fill:#004222;}
</style>
<path class="st0" d="M10.4,7.2C10.2,7.2,10,7,9.9,6.9c-0.1-0.3-0.1-0.6,0.2-0.8l2.3-1.3c0.3-0.1,0.6-0.1,0.8,0.2
	c0.1,0.3,0.1,0.6-0.2,0.8l-2.3,1.3C10.6,7.2,10.5,7.2,10.4,7.2z"/>
<path class="st0" d="M0.6,23.7C0.3,23.7,0,23.4,0,23v-7c0-2.6,1.3-4.9,3.5-6.2l2.1-1.3c0.3-0.1,0.6-0.1,0.8,0.2
	c0.1,0.3,0.1,0.6-0.2,0.8l-2.1,1.3c-1.8,1-3,3.1-2.9,5.1v7C1.2,23.4,1,23.7,0.6,23.7z"/>
<path class="st0" d="M21.4,47.9c-1.2,0-2.5-0.3-3.5-1L3.6,38.8c-2.2-1.3-3.5-3.6-3.6-6.2v-4C0,28.3,0.3,28,0.6,28
	c0.3,0,0.6,0.3,0.6,0.6v4c0,2.1,1.2,4.1,3,5.1l14.2,8.2c0.9,0.5,1.9,0.8,2.9,0.8c1,0,2.1-0.3,3-0.8l5.7-3.3c0.3-0.1,0.6-0.1,0.8,0.2
	c0.1,0.3,0.1,0.6-0.2,0.8l-5.7,3.3C23.8,47.6,22.6,47.9,21.4,47.9z"/>
<path class="st0" d="M39.4,24.8c-0.3,0-0.6-0.3-0.6-0.6V16c0-1.3-0.7-2.4-1.7-3l-3-1.7c-0.3-0.1-0.3-0.6-0.2-0.8
	c0.1-0.3,0.6-0.3,0.8-0.2l3,1.7c1.4,0.8,2.3,2.4,2.3,4v8.3C40,24.6,39.8,24.8,39.4,24.8z"/>
<path class="st0" d="M34.6,41.2c-0.2,0-0.3-0.1-0.5-0.3l-1.4-2c-0.1-0.1-0.1-0.3-0.1-0.5c0.1-0.1,0.1-0.3,0.3-0.4l4.3-2.6
	c1-0.6,1.7-1.7,1.7-3v-1.9c0-0.3,0.3-0.6,0.6-0.6c0.3,0,0.6,0.3,0.6,0.6v1.9c0,1.7-0.9,3.2-2.3,4l-3.8,2.2l0.8,1l3.7-2.2
	c1.8-1,3-3.1,2.9-5.1V16c0-2.1-1.2-4.1-3-5.1c-0.3-0.1-0.3-0.6-0.2-0.8c0.1-0.3,0.6-0.3,0.8-0.2c2.2,1.3,3.5,3.6,3.6,6.2l0.1,16.5
	c0,2.5-1.3,4.9-3.5,6.2l-4.2,2.4C34.8,41.2,34.6,41.2,34.6,41.2z"/>
<path class="st0" d="M21.3,45.4c-0.8,0-1.6-0.2-2.3-0.6l-3.8-2.2c-0.3-0.1-0.3-0.6-0.2-0.8c0.1-0.3,0.6-0.3,0.8-0.2l3.8,2.2
	c0.6,0.3,1.1,0.5,1.7,0.5c0.6,0,1.2-0.1,1.7-0.5l7.9-4.6c0.3-0.1,0.6-0.1,0.8,0.2c0.1,0.3,0.1,0.6-0.2,0.8l-7.9,4.6
	C23,45.2,22.1,45.4,21.3,45.4z"/>
<path class="st0" d="M10.2,39.7c-0.1,0-0.2,0-0.3-0.1l-5.1-2.9c-1.4-0.8-2.3-2.4-2.3-4V21.1c0-0.3,0.3-0.6,0.6-0.6
	c0.3,0,0.6,0.3,0.6,0.6l0.1,11.5c0,1.3,0.7,2.4,1.7,3l5.1,2.9c0.3,0.1,0.3,0.6,0.2,0.8C10.6,39.5,10.4,39.7,10.2,39.7z"/>
<path class="st0" d="M3,16.7c-0.3,0-0.6-0.3-0.6-0.6c0-1.7,0.9-3.2,2.3-4l6.5-3.8c0.3-0.1,0.6-0.1,0.8,0.2c0.1,0.3,0.1,0.6-0.2,0.8
	l-6.5,3.8c-1,0.6-1.7,1.7-1.7,3C3.7,16.4,3.4,16.7,3,16.7z"/>
<path class="st0" d="M30.3,9c-0.1,0-0.2,0-0.3-0.1l-7.2-4.1c-1-0.6-2.4-0.6-3.4,0l-4.3,2.6c-0.3,0.1-0.6,0.1-0.8-0.2
	c-0.1-0.3-0.1-0.6,0.2-0.8l4.3-2.6c1.4-0.8,3.2-0.8,4.6,0l6.7,3.8l0.8-1l-6.8-3.9c-1.8-1-4.1-1-5.9,0l-2.8,1.6
	c-0.3,0.1-0.6,0.1-0.8-0.2c-0.1-0.3-0.1-0.6,0.2-0.8l2.8-1.6c2.1-1.3,5-1.3,7.1,0l7.4,4.2c0.1,0.1,0.3,0.2,0.3,0.4
	c0.1,0.1,0,0.3-0.1,0.5l-1.4,2C30.7,8.9,30.6,9,30.3,9z"/>
<path class="st1" d="M32.3,17l0.7,0.4c0.3,0.2,0.6,0.1,0.6-0.2v-0.7c0-0.4,0.1-0.5-0.3-0.8l-0.7-0.4c-0.4-0.2-0.6-0.1-0.6,0.2v0.7
	C32,16.8,31.9,16.8,32.3,17z"/>
<path class="st1" d="M36.6,17.9l-1.9-1.2c-0.3-0.2-0.6-0.1-0.6,0.2v0.7c0,0.4-0.1,0.4,0.3,0.6l0.8,0.4c0.3,0.2,0.6,0.6,0.6,1v1.3
	c0,0.6,0,0.8,0.3,1c0,0,0.4,0.3,0.6,0.3c0.2,0.1,0.6,0,0.6-0.3v-3.1C37.2,18.4,37.1,18.1,36.6,17.9z"/>
<path class="st1" d="M33.3,25c0,0,0.3,0.2,0.6,0.3c0.1,0.1,0.2,0.1,0.3,0.1c0.1,0,0.3-0.1,0.3-0.3v-4.2c0-0.5-0.1-0.7-0.6-1
	l-4.7-2.7c-0.1-0.1-0.3-0.1-0.5-0.1c-0.1,0-0.3,0.1-0.6,0.1l-4.1,2.6c-0.4,0.2-0.5,0.3-0.5,0.6c0,0,0,0.4,0,0.7c0,0.1,0,0.1,0.1,0.2
	c0.1,0.1,0.2,0.1,0.3,0.1l4.3-2.5c0.1-0.1,0.3-0.1,0.5-0.1c0.1,0,0.3,0.1,0.5,0.1l3.2,1.9c0.3,0.2,0.5,0.5,0.5,0.8v2.5
	C33,24.8,33,24.9,33.3,25z"/>
<path class="st1" d="M31.9,30.5l-6.2-3.7c-0.1-0.1-0.3-0.1-0.5-0.1c-0.1,0-0.2,0-0.3,0.1c-0.3,0.1-0.8,0.5-0.8,0.5
	c-0.1,0.1-0.2,0.2-0.3,0.3c0,0.1,0.1,0.2,0.1,0.3l5.9,3.5c0.3,0.1,0.5,0.2,0.7,0.2c0.1,0,0.2,0,0.3-0.1c0,0,0.6-0.3,1-0.6
	c0.1-0.1,0.2-0.2,0.2-0.3C32.1,30.7,32,30.6,31.9,30.5z"/>
<path class="st1" d="M34.5,28L29,24.8c-0.1-0.1-0.3-0.1-0.5-0.1c-0.1,0-0.2,0-0.3,0.1c-0.3,0.1-0.8,0.4-0.8,0.5
	c-0.1,0.1-0.3,0.2-0.3,0.3c0,0.1,0.1,0.2,0.1,0.3l5.2,3.1c0.3,0.1,0.5,0.2,0.7,0.2c0.1,0,0.2,0,0.3-0.1c0,0,0.6-0.3,1-0.6
	c0.1-0.1,0.2-0.2,0.2-0.3C34.6,28.2,34.6,28.1,34.5,28z"/>
<path class="st1" d="M9.6,17.5l0.6-0.3c0.3-0.2,0.3-0.3,0.3-0.7v-0.7c0-0.3-0.1-0.4-0.6-0.2l-0.6,0.3C9,16.1,9.1,16.1,9,16.6v0.7
	C9,17.5,9.2,17.6,9.6,17.5z"/>
<path class="st1" d="M8.3,17.7V17c0-0.3-0.1-0.4-0.6-0.2l-1.9,1.1c-0.4,0.3-0.6,0.5-0.6,1v3.1c0,0.3,0.3,0.3,0.6,0.3
	c0.1-0.1,0.6-0.3,0.6-0.3c0.3-0.2,0.3-0.3,0.3-1V21v-1.3c0-0.4,0.2-0.8,0.6-1l0.8-0.4C8.3,18.1,8.3,18.1,8.3,17.7z"/>
<path class="st1" d="M8,21v4.2c0,0.1,0.1,0.3,0.3,0.3c0.1,0,0.1,0,0.3-0.1c0.3-0.1,0.6-0.3,0.6-0.3c0.3-0.2,0.3-0.3,0.3-0.9v-2.5
	c0-0.3,0.2-0.7,0.5-0.8l3.2-1.9c0.1-0.1,0.3-0.1,0.5-0.1c0.1,0,0.3,0.1,0.5,0.1l4.3,2.5c0.1,0.1,0.3,0,0.3-0.1
	c0-0.1,0.1-0.1,0.1-0.2c0-0.3,0-0.7,0-0.7c0-0.3-0.1-0.3-0.5-0.6l-4.2-2.6c-0.2-0.1-0.3-0.1-0.6-0.1c-0.1,0-0.3,0.1-0.5,0.1
	l-4.7,2.7C8.1,20.2,8,20.5,8,21z"/>
<path class="st1" d="M15.3,25.5c0-0.1-0.1-0.3-0.3-0.3c0,0-0.6-0.3-0.8-0.5c-0.1-0.1-0.3-0.1-0.3-0.1c-0.1,0-0.3,0.1-0.5,0.1L8,28
	c-0.1,0.1-0.1,0.1-0.1,0.2c0,0.1,0.1,0.1,0.2,0.3C8.4,28.7,9,29,9,29c0.1,0.1,0.2,0.1,0.3,0.1c0.2,0,0.4-0.1,0.7-0.2l5.2-3.1
	C15.2,25.7,15.3,25.7,15.3,25.5z"/>
<path class="st1" d="M18.6,27.6c0-0.1-0.1-0.3-0.3-0.3c0,0-0.6-0.3-0.8-0.5c-0.1-0.1-0.3-0.1-0.3-0.1c-0.1,0-0.3,0.1-0.5,0.1
	l-6.2,3.7c-0.1,0.1-0.1,0.1-0.1,0.2c0,0.1,0.1,0.1,0.2,0.3c0.3,0.3,1,0.6,1,0.6c0.1,0.1,0.2,0.1,0.3,0.1c0.2,0,0.4-0.1,0.7-0.2
	l5.9-3.5C18.6,27.8,18.7,27.7,18.6,27.6z"/>
<path class="st1" d="M29.2,32.7l-7.1-4.1v-2.4l6.3-3.6c0.3-0.1,0.6-0.1,0.8,0l1.4,0.8c0.4,0.2,0.6,0.1,0.6-0.2v-0.7
	c0-0.4,0.1-0.5-0.3-0.8c0,0-1.4-0.8-1.5-0.9c-0.3-0.1-0.6-0.3-1.1,0l-6.1,3.6v-5.5l6.3-3.6c0.3-0.1,0.6-0.1,0.8,0l1.4,0.8
	c0.4,0.2,0.6,0.1,0.6-0.2v-0.7c0-0.4,0.1-0.5-0.3-0.8c0,0-1.4-0.8-1.5-0.9c-0.3-0.1-0.6-0.3-1.1,0l-6.1,3.6v-4.4
	c0-0.5-0.3-0.8-0.8-0.8c-0.5,0-0.8,0.3-0.8,0.8v4.4l-6.1-3.6c-0.5-0.2-0.8-0.1-1.1,0l-1.5,0.9c-0.3,0.3-0.3,0.3-0.3,0.8v0.7
	c0,0.3,0.1,0.4,0.6,0.2l1.4-0.8c0.3-0.1,0.6-0.1,0.8,0l6.3,3.6v5.5l-6.1-3.6c-0.5-0.2-0.8-0.1-1.1,0l-1.5,0.9
	c-0.3,0.3-0.3,0.3-0.3,0.8v0.7c0,0.3,0.1,0.4,0.6,0.2l1.4-0.8c0.3-0.1,0.6-0.1,0.8,0l6.3,3.6v2.4l-7,4.1c-0.1,0.1-0.1,0.1-0.1,0.2
	c0,0.1,0.1,0.1,0.2,0.3c0.3,0.3,1,0.6,1,0.6c0.1,0.1,0.2,0.1,0.3,0.1c0.2,0,0.4-0.1,0.7-0.2l5.1-3v9.6c0,0.5,0.3,0.8,0.8,0.8
	c0.5,0,0.8-0.3,0.8-0.8v-9.6l5.1,3c0.3,0.1,0.5,0.2,0.7,0.2c0.1,0,0.2,0,0.3-0.1c0,0,0.6-0.3,1-0.6c0.1-0.1,0.2-0.2,0.2-0.3
	C29.3,32.8,29.2,32.8,29.2,32.7z"/>
</svg>
