<svg width="174" height="48" viewBox="0 0 174 48" fill="none" xmlns="http://www.w3.org/2000/svg">
<g clip-path="url(#clip0)">
<path d="M45.0487 9.32143L44.8361 9.13393L44.65 8.91964L44.4374 8.73214L44.2514 8.54464L44.0653 8.33036L43.8527 8.14286L43.6667 7.92857L43.4541 7.74107L43.268 7.55357L43.082 7.33929L42.8694 7.15179L42.6833 6.9375L42.4707 6.75L42.2847 6.53571L42.0986 6.34821L41.886 6.16071L41.7 5.94643L41.4874 5.75893L41.3013 5.54464L41.1153 5.35714L40.9027 5.16964L40.7166 4.95536L40.504 4.76786L40.3977 4.66071L40.318 4.55357L40.1319 4.36607L39.9193 4.17857L39.7333 3.96429L39.5207 3.77679L39.3346 3.5625L39.122 3.375L38.936 3.1875L38.7499 2.97321L38.5373 2.78571L38.3513 2.57143L38.1386 2.38393L37.9526 2.19643L37.7666 1.98214L37.554 1.79464L37.3679 1.58036L37.1553 1.39286L35.7999 0H30.1921H27.747H23.6542H15.9468L14.5914 1.39286L14.3788 1.58036L14.1927 1.79464L13.9801 1.98214L13.7941 2.19643L13.608 2.38393L13.3954 2.57143L13.2094 2.78571L12.9968 2.97321L12.8107 3.1875L12.6247 3.375L12.4121 3.5625L12.226 3.77679L12.0134 3.96429L11.8274 4.17857L11.6413 4.36607L11.4287 4.55357L11.2427 4.76786L11.0301 4.95536L10.844 5.16964L10.658 5.35714L10.4454 5.54464L10.2593 5.75893L10.0467 5.94643L9.86067 6.16071L9.67463 6.34821L9.46201 6.53571L9.27597 6.75L9.06335 6.9375L8.87732 7.15179L8.69128 7.33929L8.47866 7.55357L8.29262 7.74107L8.08 7.92857L7.89397 8.14286L7.70793 8.33036L7.49531 8.54464L7.30927 8.73214L7.09665 8.91964L6.91061 9.13393L6.698 9.32143L6.88404 9.53571L7.09665 9.72321L7.28269 9.91072L7.49531 10.125L7.68135 10.3125L7.86739 10.5268L8.08 10.7143L8.26604 10.9018L8.47866 11.1161L8.6647 11.3036L8.85074 11.5179L9.06335 11.7054L9.24939 11.8929L9.46201 12.1071L9.64805 12.2946L9.83409 12.5089L10.0467 12.6964L10.2327 12.8839L10.4454 13.0982L10.6314 13.2857L10.8174 13.5L11.0301 13.6875L11.2161 13.9018L11.4287 14.0893L11.6148 14.2768L11.8008 14.4911L12.0134 14.6786L12.1994 14.8929L12.4121 15.0804L12.5981 15.2679L12.7841 15.4821L12.9968 15.6696L13.1828 15.8839L13.3954 16.0714L13.5815 16.2589L13.7675 16.4732L13.9801 16.6607L14.1661 16.875L14.3788 17.0625L14.5648 17.25L14.7508 17.4643L14.9635 17.6518L15.1495 17.8661L15.3621 18.0536L15.5482 18.2411L15.7608 18.4554L15.9468 18.6429L16.1328 18.8571L16.3455 19.0446L16.5315 19.2589L16.7441 19.4464L16.9302 19.6339L17.1162 19.8482L17.3288 20.0357L17.5149 20.25L17.7275 20.4375L17.9135 20.625L18.0996 20.8393L18.3122 21.0268L18.4982 21.2411L18.7108 21.4286L18.8969 21.6161L19.0829 21.8304L19.2955 22.0179L19.4284 22.1786L19.5879 22.0179L19.7739 21.8304L19.9865 21.6161L20.1726 21.4286L20.3852 21.2411L20.5712 21.0268L20.7573 20.8393L20.9699 20.625L21.1559 20.4375L21.3685 20.25L21.5546 20.0357L21.7406 19.8482L21.9532 19.6339L22.1393 19.4464L22.3519 19.2589L22.5379 19.0446L22.724 18.8571L22.9366 18.6429L23.1226 18.4554L23.3352 18.2411L23.5213 18.0536L23.7073 17.8661L23.9199 17.6518L24.0794 17.4911L24.0262 17.4643L23.8402 17.25L23.6542 17.0625L23.4415 16.875L23.2555 16.6607L23.0429 16.4732L22.8568 16.2589L22.6708 16.0714L22.4582 15.8839L22.2721 15.6696L22.0595 15.4821L21.8735 15.2679L21.6875 15.0804L21.4748 14.8929L21.2888 14.6786L21.0762 14.4911L20.8901 14.2768L20.7041 14.0893L20.4915 13.9018L20.3054 13.6875L20.0928 13.5L19.9068 13.2857L19.7207 13.0982L19.5081 12.8839L19.3221 12.6964L19.1095 12.5089L18.9234 12.2946L18.7108 12.1071L18.5248 11.8929L18.3387 11.7054L18.1261 11.5179L17.9401 11.3304V11.3036L17.7275 11.1161L17.5414 10.9018L17.3554 10.7143L17.1428 10.5268L16.9567 10.3125L16.7441 10.125L16.5581 9.91072L16.372 9.72321L16.1594 9.53571L15.9734 9.32143L16.186 9.13393L16.372 8.91964L16.5847 8.73214L16.7707 8.54464L16.9567 8.33036L17.1694 8.14286L17.3554 7.92857L17.568 7.74107L17.7541 7.55357L17.9401 7.33929L18.1527 7.15179L18.3387 6.9375L18.5514 6.75L18.6842 6.61607H26.6042H33.0624L33.1953 6.75L33.4079 6.9375L33.594 7.15179L33.8066 7.33929L33.9926 7.55357L34.1787 7.74107L34.3913 7.92857L34.5773 8.14286L34.7899 8.33036L34.976 8.54464L35.162 8.73214L35.3746 8.91964L35.5607 9.13393L35.7733 9.32143L35.5607 9.53571L35.4809 9.61607H22.405L22.5379 9.72321L22.724 9.91072L22.91 10.125L23.1226 10.3125L23.3087 10.5268L23.5213 10.7143L23.7073 10.9018L23.8933 11.1161L24.106 11.3036L24.292 11.5179L24.5046 11.7054L24.6907 11.8929L24.8767 12.1071L25.0893 12.2946L25.2754 12.5089L25.488 12.6964L25.674 12.8839L25.8601 13.0982L26.0727 13.2857L26.2587 13.5L26.4713 13.6875L26.6574 13.9018L26.87 14.0893L27.056 14.2768L27.2421 14.4911L27.4547 14.6786L27.6407 14.8929L27.8533 15.0804L28.0394 15.2679L28.2254 15.4821L28.438 15.6696L28.6241 15.8839L28.8367 16.0714L28.9696 16.2054H38.2184L38.3513 16.0714L38.5373 15.8839L38.7499 15.6696L38.936 15.4821L39.1486 15.2679L39.3346 15.0804L39.5207 14.8929L39.7333 14.6786L39.9193 14.4911L40.1319 14.2768L40.318 14.0893L40.3977 14.0089L40.5306 13.9018L40.7166 13.6875L40.9027 13.5L41.1153 13.2857L41.3013 13.0982L41.5139 12.8839L41.7 12.6964L41.886 12.5089L42.0986 12.2946L42.2847 12.1071L42.4973 11.8929L42.6833 11.7054L42.8694 11.5179L43.082 11.3036L43.268 11.1161L43.4806 10.9018L43.6667 10.7143L43.8527 10.5268L44.0653 10.3125L44.2514 10.125L44.464 9.91072L44.65 9.72321L44.8361 9.53571L45.0487 9.32143Z" fill="#146F59"/>
<path d="M6.698 38.6511L9.0102 41.0083L6.698 38.6511Z" fill="#146F59"/>
<path d="M35.7733 38.6519L33.0624 41.384H25.1425H18.6577L15.9734 38.6519L16.2657 38.384H29.3416L26.7902 35.8126L26.7371 35.759L26.6839 35.7055L26.6308 35.6519L26.5776 35.5983L26.5245 35.5448L26.4713 35.4912L26.4182 35.4376L26.365 35.384L26.3119 35.3305L26.2587 35.2769L26.2055 35.2233L26.1524 35.1965L26.0992 35.143L26.0461 35.0894L25.9929 35.0358L25.9398 34.9823L25.8866 34.9287L25.8601 34.8751L25.8069 34.8215L25.7537 34.768L25.7006 34.7144L25.6474 34.6608L25.5943 34.6073L25.5411 34.5537L25.488 34.5001L25.4348 34.4465L25.3817 34.393L25.3285 34.3394L25.2754 34.2858L25.2222 34.2323L25.169 34.1787L25.1159 34.1251L25.0627 34.0715L25.0096 34.0448L24.9564 33.9912L24.9033 33.9376L24.8501 33.884L24.797 33.8305L24.7438 33.7769L24.7172 33.7233L24.6641 33.6698L24.6109 33.6162L24.5578 33.5626L24.5046 33.509L24.4515 33.4555L24.3983 33.4019L24.3452 33.3483L24.292 33.2948L24.2388 33.2412L24.1857 33.1876L24.1325 33.134L24.0794 33.0805L24.0262 33.0269L23.9731 32.9733L23.9199 32.9198L23.8668 32.893L23.8136 32.8394L23.7605 32.7858L23.7073 32.7323L23.6542 32.6787L23.601 32.6251L23.5744 32.5715L23.5213 32.518L23.4681 32.4644L23.415 32.4108L23.3618 32.3573L23.3087 32.3037L23.2555 32.2501L23.2023 32.1965L23.1492 32.143L23.096 32.0894L23.0429 32.0358L22.9897 31.9823L22.9366 31.9287L22.8834 31.8751L22.8303 31.8215L22.7771 31.768H13.5283L13.4751 31.8215L13.422 31.8751L13.3688 31.9287L13.3157 31.9823L13.2625 32.0358L13.2094 32.0894L13.1562 32.143L13.1031 32.1965L13.0499 32.2501L12.9968 32.3037L12.9702 32.3573L12.917 32.4108L12.8639 32.4644L12.8107 32.518L12.7576 32.5715L12.7044 32.6251L12.6513 32.6787L12.5981 32.7323L12.5449 32.7858L12.4918 32.8394L12.4386 32.893L12.3855 32.9198L12.3323 32.9733L12.2792 33.0269L12.226 33.0805L12.1729 33.134L12.1197 33.1876L12.0666 33.2412L12.0134 33.2948L11.9603 33.3483L11.9071 33.4019L11.8539 33.4555L11.8274 33.509L11.7742 33.5626L11.7211 33.6162L11.6679 33.6698L11.6148 33.7233L11.5616 33.7769L11.5084 33.8305L11.4553 33.884L11.4021 33.9376L11.349 33.9912L11.2958 34.0448L11.2427 34.0715L11.1895 34.1251L11.1364 34.1787L11.0832 34.2323L11.0301 34.2858L10.9769 34.3394L10.9237 34.393L10.8706 34.4465L10.8174 34.5001L10.7643 34.5537L10.7111 34.6073L10.6846 34.6608L10.6314 34.7144L10.5782 34.768L10.5251 34.8215L10.4719 34.8751L10.4188 34.9287L10.3656 34.9823L10.3125 35.0358L10.2593 35.0894L10.2062 35.143L10.153 35.1965L10.1264 35.2233H10.0999L10.0467 35.2769L9.99355 35.3305L9.9404 35.384L9.88724 35.4376L9.83409 35.4912L9.78094 35.5448L9.72778 35.5983L9.67463 35.6519L9.62147 35.7055L9.56832 35.759L9.54174 35.8126L6.698 38.6519L9.0102 41.009L15.9468 47.9733L21.5546 48.0001H23.9997H28.0925L35.7733 47.9733L45.0487 38.6519L42.2315 35.8126L42.1784 35.759L42.1252 35.7055L42.072 35.6519L42.0189 35.5983L41.9657 35.5448L41.9126 35.4912L41.8594 35.4376L41.8063 35.384L41.7531 35.3305L41.7 35.2769L41.6468 35.2233L41.5937 35.1965L41.5405 35.143L41.4874 35.0894L41.4342 35.0358L41.381 34.9823L41.3279 34.9287L41.2747 34.8751L41.2216 34.8215L41.195 34.768L41.1419 34.7144L41.0887 34.6608L41.0355 34.6073L40.9824 34.5537L40.9292 34.5001L40.8761 34.4465L40.8229 34.393L40.7698 34.3394L40.7166 34.2858L40.6635 34.2323L40.6103 34.1787L40.5572 34.1251L40.504 34.0715L40.4508 34.0448L40.3977 33.9912L40.3445 33.9376L40.2914 33.884L40.2382 33.8305L40.1851 33.7769L40.1319 33.7233L40.0788 33.6698L40.0522 33.6162L39.999 33.5626L39.9459 33.509L39.8927 33.4555L39.8396 33.4019L39.7864 33.3483L39.7333 33.2948L39.6801 33.2412L39.627 33.1876L39.5738 33.134L39.5207 33.0805L39.4675 33.0269L39.4143 32.9733L39.3612 32.9198L39.308 32.893L39.2549 32.8394L39.2017 32.7858L39.1486 32.7323L39.0954 32.6787L39.0423 32.6251L38.9891 32.5715L38.936 32.518L38.9094 32.4644L38.8562 32.4108L38.8031 32.3573L38.7499 32.3037L38.6968 32.2501L38.6436 32.1965L38.5905 32.143L38.5373 32.0894L38.4841 32.0358L38.431 31.9823L38.3778 31.9287L38.3247 31.8751L38.2715 31.8215L38.2184 31.768L38.1918 31.7412H28.943V31.768L35.7733 38.6519Z" fill="#146F59"/>
<path d="M36.3043 29.8389L36.0119 29.5442L35.7196 29.2496L35.4272 28.9549L35.1349 28.6603L34.8425 28.3656L34.5502 28.071L34.2578 27.7764L33.9655 27.4817L33.6731 27.1871L33.5137 27.0264L33.4074 26.9192L33.115 26.6246L32.8227 26.3299L32.5303 26.0353L32.238 25.7406L31.9456 25.446L31.6533 25.1514L31.4407 24.9371L31.3609 24.8567L31.0686 24.5621L30.7762 24.2674L30.4839 23.9728L30.1915 23.6781L29.8992 23.3835L29.6068 23.0889L29.3145 22.7942L29.0221 22.4996L28.7298 22.2049L28.4374 21.9103L28.3046 21.7764L28.1717 21.6424L27.8793 21.3478L27.587 21.0531L27.2946 20.7585L27.0023 20.4639L26.7099 20.1692L26.4176 19.8746L26.1252 19.5799L25.8329 19.2853H25.8595L25.6469 19.4996L25.3545 19.7942L25.0622 20.0889L24.7698 20.3835L24.4775 20.6781L24.1851 20.9728L23.9193 21.2406L23.627 21.5353L23.3347 21.8299L23.0423 22.1246L22.75 22.4192L22.4576 22.7139L22.1653 23.0085L21.8729 23.3031L21.5806 23.5978L21.2882 23.8924L21.049 24.1335L21.0756 24.1067L20.7833 24.3746L20.4909 24.6692L20.1986 24.9639L19.9328 25.2585L19.6404 25.5531L19.3481 25.8478L19.0557 26.1424L18.7634 26.4371L18.4711 26.7317L18.1787 27.0264L18.0724 27.1335L17.9661 27.0264L17.6737 26.7317L17.3814 26.4371L17.089 26.1424L16.7967 25.8478L16.5044 25.5531L16.212 25.2585L15.9197 24.9639L15.6273 24.6692L15.4413 24.3746L15.1489 24.1067L14.8566 23.8121L14.5642 23.5174L14.2719 23.2228L13.9795 22.9281L13.6872 22.6335L13.3948 22.3389L13.3417 22.2853C13.262 22.2049 13.1822 22.1246 13.1025 22.071C12.9962 21.9639 12.8899 21.8835 12.8101 21.7764C12.7038 21.6692 12.5975 21.5889 12.4912 21.4817C12.3849 21.3746 12.252 21.2942 12.1457 21.1871C12.0128 21.0799 11.9065 20.9996 11.7736 20.8924C11.6407 20.7853 11.5079 20.7049 11.375 20.5978C11.2421 20.4906 11.0826 20.4103 10.9497 20.3031C10.7903 20.196 10.6308 20.1156 10.4714 20.0085C10.3119 19.9014 10.1259 19.821 9.9664 19.7139C9.78036 19.6067 9.59432 19.5264 9.40828 19.4192C9.19566 19.3121 8.98305 19.2317 8.77043 19.1246C8.53124 19.0174 8.26546 18.9371 7.99969 18.8299C7.68077 18.7228 7.38842 18.6156 7.0695 18.5353C6.64426 18.4281 6.19245 18.321 5.74064 18.2406C4.99649 18.1067 4.22575 18.0531 3.48159 18.0531H0L0.186039 18.2406L0.478387 18.5353L0.770735 18.8299L1.06308 19.1246L1.32885 19.4996L1.6212 19.7942L1.88697 20.0889L2.17932 20.3835L2.47167 20.6781L2.76401 20.9728L3.05636 21.2674L3.34871 21.5621L3.64106 21.8567L3.9334 22.1514L4.22575 22.446L4.5181 22.7406L4.81045 23.0353L5.10279 23.3299L5.39514 23.6246L5.68749 23.9192L5.97984 24.2139L6.27219 24.5085L6.56453 24.8031L6.85688 25.0978L7.14923 25.3924L7.44158 25.6871L7.73392 25.9817L8.02627 26.2764L8.31862 26.571L8.61097 26.8656L8.90331 27.1603L9.19566 27.4549L9.48801 27.7496L9.78036 28.0442L10.0727 28.3389L10.3651 28.6335L10.6574 28.9281L10.9497 29.2228L11.2421 29.5174L11.5344 29.8121L11.8268 30.1067L13.7138 32.0353H22.9626L24.8495 30.1335L25.1419 29.8389L25.4342 29.5442L25.7266 29.2496L26.0189 28.9549L26.0721 28.9014L26.1252 28.9549L26.4176 29.2496L26.7099 29.5442L27.0023 29.8389L27.2946 30.1335L29.2082 32.0621H38.457H38.4836L36.3043 29.8389Z" fill="url(#paint0_linear)"/>
<path d="M48.2387 18.1867C47.468 18.1867 46.7238 18.2403 45.9797 18.3742C45.5279 18.4546 45.0761 18.535 44.6508 18.6689C44.3319 18.7492 44.013 18.8564 43.7206 18.9635C43.4549 19.0439 43.2157 19.151 42.9499 19.2582C42.7373 19.3385 42.5247 19.4457 42.2855 19.5528C42.0994 19.6332 41.9134 19.7403 41.7273 19.8475C41.5413 19.9278 41.3818 20.035 41.2224 20.1421C41.0629 20.2225 40.9035 20.3296 40.744 20.4367C40.6111 20.5171 40.4516 20.6242 40.3188 20.7314C40.1859 20.8385 40.053 20.9189 39.9201 21.026C39.7872 21.1064 39.6809 21.2135 39.548 21.3207C39.4417 21.401 39.3088 21.5082 39.2025 21.6153C39.0962 21.7225 38.9899 21.8028 38.8836 21.91C38.7773 21.9903 38.671 22.0975 38.5912 22.2046C38.5115 22.285 38.4318 22.3385 38.3521 22.4189L38.2989 22.4725L38.0066 22.7671L37.7142 23.0617L37.4219 23.3564L37.1295 23.651L36.8372 23.9457L36.5448 24.2403L36.2525 24.535L35.9601 24.8296L35.6678 25.1242L35.3754 25.4189L35.3223 25.4725L35.5615 25.7135L35.8538 26.0082L36.1462 26.3028L36.4385 26.5975L36.7309 26.8921L37.0232 27.1867L37.3155 27.4814L37.6079 27.776L37.9002 28.0707L38.1926 28.3653L38.4849 28.66L38.7773 28.9546L39.0696 29.2492L39.362 29.5439L39.6543 29.8385L39.9467 30.1332L40.0796 30.2671L40.2125 30.1332L40.5048 29.8385L40.7971 29.5439L41.0895 29.2492L41.3818 28.9546L41.6742 28.66L41.9665 28.3653L42.2589 28.0707L42.5512 27.776L42.8436 27.4814L43.1359 27.1867L43.4283 26.8921L43.7206 26.5975L44.013 26.3028L44.3053 26.0082L44.5977 25.7135L44.89 25.4189L45.1824 25.1242L45.4747 24.8296L45.7671 24.535L46.0594 24.2403L46.3518 23.9457L46.6441 23.651L46.9365 23.3564L47.2288 23.0617L47.5212 22.7671L47.8135 22.4725L48.1058 22.1778L48.3982 21.8832L48.6905 21.5885L48.9829 21.2939L49.2752 20.9992L49.5676 20.7046L49.8599 20.41L50.1523 20.1153L50.4446 19.8207L50.737 19.526L51.0293 19.2314L51.3217 18.9367L51.614 18.6421L51.9064 18.3475L52.0924 18.16H48.2387V18.1867Z" fill="url(#paint1_linear)"/>
<path d="M170.891 18.1074H159.516V31.8753H162.094V26.2771H170.891C172.592 26.2771 174.001 24.8842 174.001 23.1431V21.2413C174.001 19.5271 172.619 18.1074 170.891 18.1074ZM171.423 23.1699C171.423 23.4646 171.184 23.7056 170.891 23.7056H162.068V20.7056H170.891C171.184 20.7056 171.423 20.9467 171.423 21.2413V23.1699Z" fill="#146F59"/>
<path d="M141.814 23.7056V23.8128V26.2771V31.8753H144.392V26.2771H153.747V31.8753H156.325V26.2771V23.6788V18.1074H147.475C144.392 18.1074 141.867 20.6253 141.814 23.7056ZM153.747 23.7056H144.392C144.445 22.0449 145.801 20.7056 147.475 20.7056H153.747V23.7056Z" fill="#146F59"/>
<path d="M61.2601 26.625V28.9822C61.2601 30.5893 62.5624 31.9018 64.157 31.9018H75.7446C75.7446 30.4822 74.6018 29.3036 73.1667 29.3036H63.8115V26.3036H73.1667C74.5752 26.3036 75.7446 25.1518 75.7446 23.7054H64.1305C62.5624 23.7054 61.2601 25.0179 61.2601 26.625Z" fill="#146F59"/>
<path d="M116.063 23.7054H104.423C104.423 25.125 105.566 26.3036 107.001 26.3036H116.356V29.3036H107.001C105.592 29.3036 104.423 30.4554 104.423 31.9018H116.063C117.632 31.9018 118.907 30.6161 118.907 29.0357V26.5982C118.907 24.9911 117.632 23.7054 116.063 23.7054Z" fill="#146F59"/>
<path d="M98.655 20.7056V31.8753C100.064 31.8753 101.233 30.7235 101.233 29.2771V18.1074C99.7978 18.1074 98.655 19.286 98.655 20.7056Z" fill="#146F59"/>
<path d="M87.1993 23.3576L80.6879 18.1344H78.9338V31.8755C80.3424 31.8755 81.5118 30.7237 81.5118 29.2773V22.0987L87.1993 26.6523L92.8602 22.0987V29.3041C92.8602 30.7237 94.003 31.9023 95.4382 31.9023V18.1344H93.6841L87.1993 23.3576Z" fill="#146F59"/>
<path d="M136.048 20.7056V27.911L130.36 23.3574L124.7 27.911V20.7056C124.7 19.286 123.557 18.1074 122.122 18.1074V31.9021C122.201 31.9021 122.281 31.8753 122.361 31.8753H123.876L130.36 26.6521L136.872 31.8753H138.626V18.1074C137.191 18.1074 136.048 19.286 136.048 20.7056Z" fill="#146F59"/>
<path d="M68.4905 20.7056H61.235C61.235 19.286 62.3778 18.1074 63.813 18.1074H71.0685C71.0685 19.5538 69.9257 20.7056 68.4905 20.7056Z" fill="url(#paint2_linear)"/>
<path d="M111.678 20.7056H104.423C104.423 19.286 105.566 18.1074 107.001 18.1074H114.256C114.23 19.5538 113.087 20.7056 111.678 20.7056Z" fill="url(#paint3_linear)"/>
</g>
<defs>
<linearGradient id="paint0_linear" x1="10" y1="18.0004" x2="10" y2="32.0004" gradientUnits="userSpaceOnUse">
<stop stop-color="#BBA884"/>
<stop offset="1" stop-color="#83775B"/>
</linearGradient>
<linearGradient id="paint1_linear" x1="41.502" y1="31.9998" x2="41.502" y2="17.9998" gradientUnits="userSpaceOnUse">
<stop stop-color="#83775B"/>
<stop offset="0.9988" stop-color="#BBA884"/>
</linearGradient>
<linearGradient id="paint2_linear" x1="71.0688" y1="28" x2="71.0688" y2="19.4096" gradientUnits="userSpaceOnUse">
<stop stop-color="#83775B"/>
<stop offset="0.9988" stop-color="#B0A486"/>
</linearGradient>
<linearGradient id="paint3_linear" x1="114.257" y1="28" x2="114.257" y2="19.4096" gradientUnits="userSpaceOnUse">
<stop stop-color="#83775B"/>
<stop offset="0.9988" stop-color="#B0A486"/>
</linearGradient>
<clipPath id="clip0">
<rect width="174" height="48" fill="white"/>
</clipPath>
</defs>
</svg>
