<svg width="1736" height="1736" viewBox="0 0 1736 1736" fill="none" xmlns="http://www.w3.org/2000/svg">
<path d="M1736 868C1736 1347.38 1347.38 1736 868 1736C388.617 1736 0 1347.38 0 868C0 388.617 388.617 0 868 0C1347.38 0 1736 388.617 1736 868Z" fill="#393946"/>
<path d="M785.248 1023.58V833.7C851.45 831.25 903.757 818.183 942.17 794.5C980.583 770 999.79 732.025 999.79 680.575V663.425C999.79 622.592 987.53 592.375 963.011 572.775C939.31 553.175 907.435 543.375 867.387 543.375C824.887 543.375 790.561 555.625 764.407 580.125C738.254 603.808 720.273 634.025 710.465 670.775L594 624.225C601.356 598.908 612.389 574.408 627.101 550.725C642.629 526.225 661.427 504.992 683.494 487.025C706.379 469.058 733.35 454.767 764.407 444.15C795.465 432.717 831.426 427 872.291 427C913.156 427 949.934 432.717 982.626 444.15C1016.14 455.583 1044.74 471.917 1068.44 493.15C1092.14 513.567 1110.13 538.883 1122.38 569.1C1135.46 598.5 1142 631.167 1142 667.1C1142 703.85 1135.46 736.517 1122.38 765.1C1109.31 793.683 1092.14 818.183 1070.89 838.6C1049.65 859.017 1025.13 875.758 997.338 888.825C970.367 901.892 942.579 910.875 913.973 915.775V1023.58H785.248ZM852.676 1309C815.08 1309 788.518 1301.24 772.989 1285.73C757.46 1270.21 749.696 1250.61 749.696 1226.92V1197.53C749.696 1173.84 757.46 1154.24 772.989 1138.73C788.518 1123.21 815.08 1115.45 852.676 1115.45C890.271 1115.45 916.834 1123.21 932.362 1138.73C947.891 1154.24 955.655 1173.84 955.655 1197.53V1226.92C955.655 1250.61 947.891 1270.21 932.362 1285.73C916.834 1301.24 890.271 1309 852.676 1309Z" fill="white"/>
<path fill-rule="evenodd" clip-rule="evenodd" d="M868 1672C1312.04 1672 1672 1312.04 1672 868C1672 423.963 1312.04 64 868 64C423.963 64 64 423.963 64 868C64 1312.04 423.963 1672 868 1672ZM868 1736C1347.38 1736 1736 1347.38 1736 868C1736 388.617 1347.38 0 868 0C388.617 0 0 388.617 0 868C0 1347.38 388.617 1736 868 1736Z" fill="white"/>
</svg>
