<svg width="31" height="31" viewBox="0 0 31 31" fill="none" xmlns="http://www.w3.org/2000/svg">
<path fill-rule="evenodd" clip-rule="evenodd" d="M5.97329 4.72182C5.44806 4.86255 5.03782 5.2728 4.89708 5.79803L3.2874 11.8054C3.14667 12.3307 3.29683 12.8911 3.68132 13.2756L8.07905 17.6733C8.46354 18.0578 9.02395 18.2079 9.54917 18.0672L13.8594 16.9123L13.8576 16.9189L16.4042 16.2357L16.4057 16.2299L21.5644 14.8476L25.3408 18.624L23.9585 23.7827L18.7999 25.1649L15.0235 21.3885L15.7218 18.7825L13.1752 19.4657L12.7046 21.222C12.5639 21.7473 12.714 22.3077 13.0985 22.6922L17.4962 27.0899C17.8807 27.4744 18.4411 27.6245 18.9664 27.4838L24.9738 25.8741C25.499 25.7334 25.9092 25.3231 26.05 24.7979L27.6597 18.7905C27.8004 18.2653 27.6502 17.7049 27.2657 17.3204L22.868 12.9227C22.4835 12.5382 21.9231 12.388 21.3979 12.5287L17.0877 13.6837L17.0895 13.677L14.5429 14.3602L14.5413 14.3661L9.38268 15.7483L5.6063 11.9719L6.98855 6.81329L12.1472 5.43104L15.9236 9.20742L15.2253 11.8134L17.7719 11.1302L18.2425 9.37391C18.3832 8.84869 18.233 8.28828 17.8485 7.90379L13.4508 3.50606C13.0663 3.12157 12.5059 2.97141 11.9807 3.11214L5.97329 4.72182Z" fill="#7A2DF4"/>
</svg>
