<?xml version="1.0" encoding="utf-8"?>
<!-- Generator: Adobe Illustrator 22.1.0, SVG Export Plug-In . SVG Version: 6.00 Build 0)  -->
<svg version="1.1" id="Слой_1" xmlns="http://www.w3.org/2000/svg" xmlns:xlink="http://www.w3.org/1999/xlink" x="0px" y="0px"
	 viewBox="0 0 108.8 48" style="enable-background:new 0 0 108.8 48;" xml:space="preserve">
<style type="text/css">
	.st0{fill:#C39465;}
	.st1{fill:#004222;}
</style>
<g>
	<path class="st0" d="M31.5,33.9H3.6v0.6h27.9V33.9z"/>
	<path class="st0" d="M105.2,33.9H77.3v0.6h27.9V33.9z"/>
	<path class="st1" d="M29.8,13.8c-0.3,0-0.5,0.1-0.6,0.1c-0.1,0.1-0.3,0.2-0.4,0.3L23,21.8l-5.7-7.6c-0.1-0.1-0.3-0.3-0.4-0.3
		c-0.1-0.1-0.3-0.1-0.6-0.1c-0.3,0-0.6,0.1-0.9,0.2c-0.2,0.1-0.3,0.3-0.3,0.7v9.5h2.1v-6.7l4.9,6.5c0.2,0.3,0.6,0.4,1,0.4
		c0.4,0,0.8-0.1,1-0.4l4.9-6.5v6.7H31v-9.5c0-0.3-0.1-0.6-0.3-0.7C30.4,13.8,30.1,13.8,29.8,13.8z"/>
	<path class="st1" d="M37.6,14h-2.3v10.2h2.3V14z"/>
	<path class="st1" d="M108.4,15.6c-0.1-0.4-0.4-0.7-0.7-0.9c-0.3-0.2-0.8-0.4-1.2-0.5c-0.5-0.1-1.1-0.1-1.8-0.1h-7.9v1.9h7.7
		c0.3,0,0.7,0,0.9,0.1c0.3,0,0.4,0.1,0.6,0.2c0.1,0.1,0.2,0.2,0.3,0.4c0.1,0.1,0.1,0.4,0.1,0.6v0.6c0,0.3,0,0.5-0.1,0.7
		c-0.1,0.1-0.1,0.3-0.3,0.4c-0.1,0.1-0.3,0.1-0.6,0.2c-0.2,0-0.6,0.1-0.9,0.1h-7.7v5.1H99v-3.4h3.9h1.8c0.7,0,1.3-0.1,1.8-0.1
		c0.5-0.1,0.9-0.3,1.2-0.5c0.3-0.2,0.6-0.6,0.8-0.9c0.1-0.3,0.2-0.8,0.2-1.5v-0.7C108.6,16.4,108.5,15.9,108.4,15.6z"/>
	<path class="st1" d="M3.2,22.2c-0.2-0.1-0.3-0.1-0.5-0.3c-0.1-0.1-0.2-0.3-0.3-0.5c-0.1-0.2-0.1-0.4-0.1-0.8V20H11v-1.8H0.2v2.5
		c0,0.6,0.1,1.2,0.2,1.6s0.3,0.8,0.6,1c0.3,0.3,0.7,0.5,1.2,0.6c0.5,0.1,1.1,0.2,1.9,0.2h7v-1.9H4C3.6,22.3,3.4,22.2,3.2,22.2z"/>
	<path class="st1" d="M11,14H4c-0.8,0-1.4,0.1-1.9,0.2c-0.5,0.1-0.9,0.3-1.2,0.6c-0.3,0.3-0.5,0.6-0.6,1.1H11V14z"/>
	<path class="st1" d="M43.6,14.1c-0.3,0.1-0.7,0.3-0.9,0.5c-0.2,0.2-0.4,0.6-0.5,0.9c-0.1,0.1-0.1,0.3-0.1,0.4h14V14H45
		C44.3,14,43.9,14.1,43.6,14.1z"/>
	<path class="st1" d="M55.4,18.7c-0.3-0.2-0.6-0.3-1-0.5c-0.4-0.1-0.9-0.1-1.4-0.1H42.1c0,0.1,0.1,0.3,0.1,0.3
		c0.1,0.3,0.2,0.6,0.5,0.8c0.2,0.2,0.5,0.3,0.9,0.5c0.3,0.1,0.8,0.1,1.4,0.1h8c0.4,0,0.7,0.1,0.9,0.2c0.2,0.1,0.3,0.3,0.3,0.7v0.6
		c0,0.3-0.1,0.6-0.3,0.7c-0.2,0.1-0.5,0.2-0.9,0.2H42v1.9h11c0.6,0,1-0.1,1.4-0.1c0.4-0.1,0.7-0.3,1-0.5c0.3-0.2,0.4-0.5,0.6-0.8
		c0.1-0.3,0.1-0.8,0.1-1.3v-0.8c0-0.5-0.1-0.8-0.1-1.2C55.8,19.2,55.6,18.9,55.4,18.7z"/>
	<path class="st1" d="M87.1,14c-0.3-0.2-0.6-0.3-1-0.3c-0.5,0-0.8,0.1-1.1,0.3c-0.3,0.2-0.5,0.4-0.6,0.7l-5.9,9.5H81l1.4-2.4h7
		l1.4,2.4h2.6l-5.9-9.5C87.6,14.4,87.3,14.2,87.1,14z M83.5,20l2.5-4l2.5,4H83.5z"/>
	<path class="st1" d="M75.9,13.9l-3,7.4L70,14.5c-0.1-0.3-0.3-0.6-0.6-0.7c-0.2-0.1-0.5-0.2-0.9-0.2c-0.3,0-0.6,0.1-0.8,0.2
		c-0.2,0.1-0.3,0.3-0.6,0.7l-3,6.7l-2.9-7.4h-2.6l3.9,9.5c0.1,0.3,0.3,0.6,0.5,0.7c0.2,0.1,0.5,0.3,0.9,0.3c0.3,0,0.6-0.1,0.9-0.3
		c0.2-0.2,0.4-0.4,0.6-0.7l3.1-6.6l3,6.6c0.1,0.3,0.3,0.6,0.6,0.7c0.2,0.2,0.6,0.3,0.9,0.3c0.3,0,0.6-0.1,0.8-0.3
		c0.2-0.2,0.4-0.4,0.6-0.7c0.1-0.3,0.3-0.6,0.5-1.1c0.2-0.5,0.5-1,0.8-1.7c0.3-0.6,0.6-1.3,0.8-1.9c0.3-0.7,0.6-1.3,0.8-1.9
		c0.3-0.6,0.5-1.2,0.8-1.7c0.2-0.5,0.4-0.9,0.5-1.1H75.9z"/>
	<path class="st0" d="M37.1,35.6c0.1-0.3,0.1-0.8,0.1-1.1v-0.6c0-1-0.1-2.5-0.2-3.5c0.1-0.2-0.8-0.4-0.6-0.6h0.1
		c0.1,1.3,1.2,2.6,1.2,4c0,0.3,0,0.7-0.1,0.9C37.6,35,37.5,35.3,37.1,35.6L37.1,35.6z"/>
	<path class="st0" d="M42.6,33.3c-0.1-0.5-0.3-0.7-0.4-0.7c-0.3,0-0.6,0.1-0.9,0.4c-0.3,0.3-0.6,0.6-0.6,0.7c0,0.5,1.4,0.4,1.9,0.8
		c0.1,0.1,0.3,0.3,0.3,0.6c0,0.3-0.2,0.8-0.5,1c-0.6,0.5-1.4,0.9-2.1,0.9c-1.3,0-1.9-0.9-1.9-2.1c0-0.6,0.1-1,0.3-1.4l0.2,0.1
		c-0.1,0.3-0.2,0.7-0.2,1c0,1,0.7,1.6,1.7,1.6c0.3,0,1-0.1,1.5-0.5c0.3-0.2,0.7-0.5,0.7-0.6c0-0.1-0.4-0.3-0.9-0.3
		c-0.5-0.1-0.9-0.2-1-0.3c-0.1-0.1-0.2-0.3-0.2-0.5c0-0.6,0.2-1,0.6-1.5c0.4-0.4,1-0.8,1.4-0.8c0.2,0,0.3,0.1,0.4,0.3
		c0.1,0.2,0.1,0.3,0.1,0.6C42.9,32.8,42.7,33,42.6,33.3L42.6,33.3z M40,38.8c-0.2-0.2-0.4-0.4-0.6-0.6c0.1-0.2,0.3-0.4,0.4-0.6
		c0.2,0.2,0.4,0.3,0.6,0.6C40.3,38.5,40.1,38.7,40,38.8z M41,38.7c-0.2-0.2-0.4-0.4-0.6-0.6c0.1-0.2,0.3-0.4,0.4-0.6
		c0.2,0.2,0.4,0.3,0.6,0.6C41.3,38.5,41.2,38.6,41,38.7z"/>
	<path class="st0" d="M44.7,34.5c-0.6,0-0.9,0.3-0.9,0.4c0,0.6,0.4,1.7,0.7,2.9c0,0.1,0.1,0.3,0.1,0.5c0,0.3-0.1,0.6-0.1,0.8h-0.1
		c0-0.7-0.5-1.8-0.8-3c-0.1-0.2-0.1-0.5-0.1-0.6c0-0.3,0.1-0.5,0.1-0.8c0.1-0.3,0.3-0.6,0.5-0.7c-0.1-0.3-0.1-0.6-0.1-0.7
		c0-0.2,0.1-0.6,0.3-0.7c0.1-0.1,0.3-0.2,0.6-0.2c0.3,0,0.5,0.1,0.7,0.3c0.3,0.3,0.6,0.6,0.8,1.1c0.1,0.1,0.1,0.3,0.1,0.3
		c0,0.2-0.1,0.4-0.2,0.6C45.8,34.6,45.2,34.5,44.7,34.5z M45.9,33.9c-0.3-0.4-0.7-0.8-1.2-0.8c-0.1,0-0.2,0-0.3,0.1v0.3
		c0,0.2-0.1,0.4-0.1,0.6c0.2-0.1,0.5-0.1,0.8-0.1C45.2,33.8,45.5,33.9,45.9,33.9z"/>
	<path class="st0" d="M51.3,33.3c-0.1-0.5-0.3-0.7-0.4-0.7c-0.3,0-0.6,0.1-0.9,0.4c-0.3,0.3-0.6,0.6-0.6,0.7c0,0.5,1.4,0.4,1.9,0.8
		c0.1,0.1,0.3,0.3,0.3,0.6c0,0.3-0.2,0.8-0.5,1c-0.6,0.5-1.4,0.9-2.1,0.9c-1.3,0-1.9-0.9-1.9-2.1c0-0.6,0.1-1,0.3-1.4l0.2,0.1
		c-0.1,0.3-0.2,0.7-0.2,1c0,1,0.7,1.6,1.7,1.6c0.3,0,1-0.1,1.5-0.5c0.3-0.2,0.7-0.5,0.7-0.6c0-0.1-0.4-0.3-0.9-0.3s-0.9-0.2-1-0.3
		C49.1,34.4,49,34.2,49,34c0-0.6,0.2-1,0.6-1.5c0.4-0.4,1-0.8,1.4-0.8c0.2,0,0.3,0.1,0.4,0.3c0.1,0.2,0.1,0.3,0.1,0.6
		C51.6,32.8,51.4,33,51.3,33.3L51.3,33.3z M48.7,38.8c-0.2-0.2-0.4-0.4-0.6-0.6c0.1-0.2,0.3-0.4,0.4-0.6c0.2,0.2,0.4,0.3,0.6,0.6
		C49,38.5,48.8,38.7,48.7,38.8z M49.7,38.7c-0.2-0.2-0.4-0.4-0.6-0.6c0.1-0.2,0.3-0.4,0.4-0.6c0.2,0.2,0.4,0.3,0.6,0.6
		C50,38.5,49.9,38.6,49.7,38.7z"/>
	<path class="st0" d="M57.2,33.3c0.1,0.3,0.3,0.6,0.3,0.8c0.1,0.2,0.1,0.5,0.5,0.5c0.1,0,0.3-0.1,0.3-0.1c0.1-0.1,0.3-0.2,0.3-0.4
		l0.1-0.6l0.3-0.2c-0.1,0.2-0.1,0.4-0.1,0.6c0,0.5,0.3,0.6,0.6,0.6c0.1,0,0.3-0.1,0.3-0.3c0-0.2-0.1-0.6-0.2-0.9
		c0.1-0.2,0.3-0.3,0.5-0.6c0.1,0.4,0.1,0.8,0.1,1c0,0.3-0.1,0.6-0.2,0.7c-0.1,0.3-0.4,0.6-0.8,0.6c-0.3,0-0.6-0.1-0.8-0.4
		c-0.2,0.3-0.5,0.6-1,0.6h-0.1c0,0.3-0.1,0.6-0.2,0.8c-0.3,0.6-1.1,1.1-1.9,1.1c-1.1,0-1.6-0.8-1.6-1.7c0-0.6,0.1-1.2,0.4-1.6
		l0.2,0.1c-0.1,0.3-0.3,0.7-0.3,1c0,0.9,0.6,1.4,1.4,1.4c0.7,0,1.5-0.5,1.7-1.1c-0.1-0.6-0.3-1-0.6-1.5C56.8,33.7,57,33.5,57.2,33.3
		z"/>
	<path class="st0" d="M62.8,34.9c-0.6,0-1.2-0.3-1.2-1c0-0.3,0.1-0.7,0.3-1c0.3-0.3,0.6-0.5,0.8-0.5c0.3,0,0.6,0.2,0.8,0.6
		c0.2,0.4,0.3,0.9,0.3,1.5c0,0.6-0.1,1-0.4,1.5c-0.5,0.8-1,1-1.4,1c-0.5,0-1-0.1-1.6-0.6l0.1-0.2c0.3,0.1,0.6,0.2,0.8,0.2
		c0.6,0,1.1-0.3,1.7-0.8c0.3-0.3,0.5-0.6,0.6-0.9C63.3,34.9,63,34.9,62.8,34.9z M62.5,33.1c-0.3,0-0.6,0.3-0.6,0.5
		c0,0.3,0.5,0.6,1,0.6c0.2,0,0.4,0,0.6-0.1C63.4,33.6,63,33.1,62.5,33.1z"/>
	<path class="st0" d="M64.5,35.6c0.1-0.3,0.1-0.8,0.1-1.1v-0.6c0-1-0.1-2.5-0.2-3.5c0.1-0.2-0.8-0.4-0.6-0.6h0.1
		c0.1,1.3,1.2,2.6,1.2,4c0,0.3,0,0.7-0.1,0.9C65.1,35,65,35.3,64.5,35.6L64.5,35.6z"/>
	<path class="st0" d="M68.5,35.7c-1.5,0-2.8-0.6-2.8-1.9c0-0.5,0.1-0.9,0.3-1.4l0.2,0.1c-0.1,0.3-0.1,0.6-0.1,0.8
		c0,1.1,1.1,1.6,2.5,1.6c0.6,0,1.3-0.1,1.9-0.2c0.3-0.1,0.5-0.1,0.8-0.2c0.1,0,0.1-0.1,0.1-0.1c0-0.3-0.3-0.8-0.6-1.4
		c0.1-0.2,0.3-0.5,0.4-0.6c0.3,0.5,0.6,1.2,0.6,1.7c0,0.4-0.1,0.7-0.3,0.9C71.1,35.3,69.6,35.7,68.5,35.7z M68.8,36.7
		c0.2,0.1,0.5,0.3,0.7,0.6c-0.1,0.2-0.3,0.4-0.5,0.6c-0.2-0.2-0.4-0.4-0.7-0.6C68.4,37.1,68.6,36.9,68.8,36.7z"/>
</g>
</svg>
